<?xml version="1.0" encoding="UTF-8"?>
<svg id="Logo" xmlns="http://www.w3.org/2000/svg" width="225.8mm" height="129.3mm" version="1.1" viewBox="0 0 640 366.5">
  <!-- Generator: Adobe Illustrator 29.3.1, SVG Export Plug-In . SVG Version: 2.1.0 Build 151)  -->
  <defs>
    <style>
      .st0 {
        fill: #4d4d4d;
      }

      .st1 {
        fill: #4e4d4d;
      }

      .st2 {
        fill: #0f7feb;
      }
    </style>
  </defs>
  <g>
    <g>
      <path class="st0" d="M511.7,175.4c-1.4-1-25.9-10.1-42.6-16.3-29.7-10.1-61.8-19.6-91-25.9-13.9-2.9-18.2-3.8-18.7-3.8-1,0-1,126,0,126,0,0,2.9,0,5.7.5,44.1,2.4,83.8-5.3,110.2-22,9.1-5.7,19.2-14.9,24.4-22.5,6.7-9.6,11-20.6,12.5-31.6.5-3.8,0-4.8,0-4.8h0l-.5.5Z"/>
      <path class="st0" d="M252.5,116.4c-10.5-.5-41.7-.5-50.8,0-32.6,1.9-56.5,6.7-68,13.4-3.8,2.4-4.3,2.4-2.9,4.3,2.4,4.8,10.5,16.3,16.8,23.5,12,13.9,27.8,27.8,45,39.8,22,15.3,47.4,28.3,75.2,38.3,3.8,1.4,7.2,2.4,7.7,2.4h1v-120.2c-.5,0-12.5-1-23.5-1.9h0l-.5.5Z"/>
    </g>
    <path id="b" class="st2" d="M126,124.1c-3.8-7.2-7.2-18.2-8.6-26.3-2.9-18.7,0-35.9,9.6-50.3C152.9,7.7,220.4-9.1,299,4.8c20.1,3.4,43.6,10.1,62.8,16.8,23,8.6,43.6,18.7,63.7,31.6,5.7,3.8,7.7,4.8,7.2,5.3,0,0-3.4,0-7.7-1-21.1-2.9-43.6-4.8-70.4-6.2-12-.5-56-.5-67.1,0-33.5,1.9-57.5,5.3-81,10.5-37.4,8.6-62.3,21.1-71.9,35.9-1.4,2.4-2.9,5.3-2.4,5.7,0,0,1.9-1.4,4.3-3.4,24.4-23.5,88.1-37.8,167.2-37.8s115.4,9.1,115.4,9.1c0,0,38.3,6.2,40.2,7.2.5,0,5.3,4.3,10.1,9.6,8.1,8.1,11.5,12,11,12,0,0-3.4-.5-7.7-1.4-29.2-7.2-57-12.5-81-15.8-4.8-.5-10.1-1.4-12-1.4-15.3-1.9-45.5-4.8-65.6-5.3-21.6-1-57.5,0-71.9,1.9-1,0-4.8.5-8.1,1-26.3,2.9-50.8,7.7-68.5,14.4-17.7,6.7-29.2,13.9-34.5,22.5-1.9,2.9-2.9,5.3-3.4,9.1v2.9l-1.9-2.9h0v-1Z"/>
    <g id="c">
      <g id="d">
        <path class="st0" d="M509.3,225.7c2.4,0,4.8.5,7.2,1.9s4.3,2.9,5.3,5.3c1.4,2.4,1.9,4.8,1.9,7.2s-.5,4.8-1.9,7.2-2.9,4.3-5.3,5.3-4.8,1.9-7.2,1.9-4.8-.5-7.2-1.9-4.3-2.9-5.3-5.3c-1.4-2.4-1.9-4.8-1.9-7.2s.5-4.8,1.9-7.2,2.9-4.3,5.3-5.3,4.8-1.9,7.2-1.9h0ZM509.3,228c-1.9,0-3.8.5-5.7,1.4s-3.4,2.4-4.3,4.3-1.4,3.8-1.4,6.2.5,4.3,1.4,5.7c1,1.9,2.4,3.4,4.3,4.3s3.8,1.4,5.7,1.4,4.3-.5,5.7-1.4c1.9-1,3.4-2.4,4.3-4.3,1-1.9,1.4-3.8,1.4-5.7s-.5-4.3-1.4-6.2c-1-1.9-2.4-3.4-4.3-4.3s-3.8-1.4-5.7-1.4h0ZM502.6,248.2v-15.3h9.1c1,0,1.4,1,1.9,1.4s1,1.4,1,2.4,0,1.9-1.4,2.9-1.9,1.4-3.4,1.4c.5,0,1,.5,1.4,1,.5.5,1.4,1.4,2.4,2.9l1.9,2.9h-2.9l-1.4-2.4c-1-1.9-1.9-2.9-2.4-3.4,0,0-1-.5-1.9-.5h-1.4v6.7h-2.9ZM505.4,239.5h2.9c1.4,0,2.4,0,2.9-.5.5,0,1-1,1-1.9v-1.4c0-.5-.5-.5-1-1h-5.3v4.8h-.5Z"/>
      </g>
    </g>
  </g>
  <g>
    <g>
      <rect class="st1" x="97.2" y="283.6" width="19.2" height="13.9"/>
      <g>
        <path class="st0" d="M281.2,323.9c-3.4-2.4-8.1-3.8-15.3-3.8h-23.5c-3.8,0-6.2-.5-7.7-1s-1.4-1.4-1.4-2.4.5-1.9,1.4-2.4,2.9-.5,5.3-.5h13.4c2.9,0,4.8,0,6.2.5s2.4,1,2.9,1.9h19.2c0-4.8-1.9-8.1-5.3-10.5s-8.6-3.4-15.3-3.4h-22c-9.6,0-16.3,1-20.1,3.4s-6.2,6.2-6.2,11.5,1.9,8.6,5.7,11c3.8,2.4,10.5,3.4,20.1,3.4h19.2c2.9,0,4.8,1,6.2,1.4s1.9,1.4,1.9,2.9-.5,2.4-1.9,2.9-3.4,1-5.7,1h-13.9c-3.8,0-6.2,0-8.1-1s-2.4-1.9-2.4-3.4h-20.6c0,5.7,1.9,10.1,6.2,12,3.8,2.4,11.5,3.4,22.5,3.4h19.6c9.1,0,15.3-1,18.7-3.4,3.4-2.4,5.3-6.7,5.3-12.5s-1.4-8.6-4.8-11.5h0l.5.5Z"/>
        <path class="st0" d="M197.4,306.1c-4.3-2.4-11.5-3.4-22-3.4s-14.4.5-17.7,1.9-5.7,3.8-5.7,7.2v-8.6h-19.2v63.2h19.2v-24.4c1,2.9,3.4,5.3,6.7,6.7s9.1,1.9,17.7,1.9,16.8-1.4,21.6-3.8c4.8-2.4,6.7-6.7,6.7-12.5v-15.8c0-5.7-1.9-10.1-6.2-12.5h-1ZM184.4,329.6c0,2.9-1,4.8-2.9,6.2s-4.8,1.9-9.6,1.9h-8.6c-4.8,0-7.7-.5-9.6-1.9s-2.4-3.4-2.4-6.7v-5.7c0-2.9,1-4.8,2.9-6.2s4.8-1.9,9.6-1.9h8.6c4.3,0,7.7.5,9.6,1.9s2.9,3.4,2.9,6.2v5.7h0l-.5.5Z"/>
        <rect class="st0" x="97.2" y="303.3" width="19.2" height="47.4"/>
        <polygon class="st0" points="0 299.9 31.6 299.9 31.6 350.7 55.1 350.7 55.1 299.9 86.7 299.9 86.7 283.6 0 283.6 0 299.9"/>
      </g>
    </g>
    <g>
      <polygon class="st2" points="368.9 291.8 368.9 284.6 284.6 284.6 284.6 291.8 321.9 291.8 321.9 350.7 331.5 350.7 331.5 291.8 368.9 291.8"/>
      <path class="st2" d="M399,306.1c-3.8-2.4-10.1-3.4-19.2-3.4s-11.5.5-14.9,1.9c-3.4,1-5.7,3.4-7.2,6.2v-6.7h-8.1v46.5h8.6v-29.2c0-3.8,1.4-7.2,4.8-8.6,2.9-1.9,8.1-2.9,14.9-2.9s12.5.5,14.9,1.9,3.8,4.3,3.8,8.1v4.3h7.7v-6.2c0-5.7-1.9-9.6-5.3-12h0Z"/>
      <path class="st2" d="M472.8,307.1c-3.8-2.9-10.1-4.3-18.2-4.3h-15.3c-8.1,0-13.9,1-17.2,3.4-3.4,1.9-5.3,5.7-5.3,10.5v1.4h9.1v-1.4c0-2.4,1-4.3,2.9-5.3s5.7-1.4,12.5-1.4h12.5c6.7,0,11,1,13.4,2.4s3.8,4.3,3.8,8.1v6.2c-1.9-1.9-4.3-3.4-7.2-4.3-2.9-1-6.7-1.4-11-1.4h-14.9c-9.1,0-15.3,1-19.2,3.4s-5.3,5.7-5.3,11,1.9,9.6,5.3,12c3.4,2.4,10.1,3.4,19.2,3.4h14.4c5.7,0,9.6-.5,12.5-1.4,2.9-1,4.8-2.9,6.2-5.3v6.2h8.1v-30.2c0-5.7-1.9-10.1-5.7-12.9h-.5ZM466.1,342.5c-2.4,1-7.2,1.4-13.9,1.4h-12.9c-7.7,0-12.5-.5-14.4-1.4-1.9-1-2.9-3.4-2.9-7.2s1-5.3,3.4-6.2c2.4-1,6.7-1.4,14.4-1.4h12.9c6.7,0,11.5,0,13.9,1.4s3.8,2.4,3.8,4.8v4.3h0c0,2.4-1,3.8-3.4,4.8h0l-1-.5Z"/>
      <path class="st2" d="M550.9,309c-1.9-2.4-3.8-3.8-6.7-4.8s-5.7-1.4-10.1-1.4h-16.3c-9.1,0-15.3,1.4-19.6,4.8-3.8,2.9-5.7,8.1-5.7,15.3v7.2c0,7.7,1.9,12.9,5.7,15.8,3.8,2.9,10.5,4.8,19.6,4.8h14.4c5.7,0,10.1-.5,12.9-1.9,2.9-1.4,4.8-3.4,6.7-6.2v7.7h7.2v-66.1h-8.1v25.4h0v-.5ZM550.9,329.1c0,5.7-1.4,9.6-3.8,11.5s-7.7,2.9-15.3,2.9h-12c-7.7,0-12.9-1-15.3-2.9s-3.8-5.7-3.8-11.5v-5.7c0-5.7,1.4-9.6,3.8-11.5s7.7-2.9,15.3-2.9h12c7.7,0,12.9,1,15.3,2.9s3.8,5.7,3.8,11.5v5.7h0Z"/>
      <path class="st2" d="M631.9,335.8h0c0,3.4-1.4,5.3-4.3,6.2-2.9,1.4-7.2,1.9-12.9,1.9h-13.9c-6.7,0-11.5-1-14.4-2.9s-4.3-5.3-4.3-10.5v-2.4h58v-3.8c0-8.1-1.9-13.9-5.7-17.2s-11-4.8-21.1-4.8h-13.4c-9.6,0-16.3,1.4-20.6,4.8s-6.2,8.1-6.2,15.8v7.7c0,7.2,1.9,12.5,6.2,15.3,4.3,2.9,11,4.8,20.6,4.8h15.8c7.7,0,13.9-1,17.7-3.4,4.3-2.4,6.2-5.7,6.2-10.1v-1h-8.6l1-.5ZM586.3,312.4c2.9-1.9,7.2-2.9,13.9-2.9h13.4c7.2,0,12,1,14.4,2.4s3.8,4.3,3.8,8.6v1h-49.3c0-4.3,1.4-7.7,3.8-9.6h0v.5Z"/>
    </g>
  </g>
</svg>