<?xml version="1.0" encoding="UTF-8"?>
<svg id="Logo" xmlns="http://www.w3.org/2000/svg" width="148.5" height="111.1" version="1.1" viewBox="0 0 148.5 111.1">
  <!-- Generator: Adobe Illustrator 29.3.1, SVG Export Plug-In . SVG Version: 2.1.0 Build 151)  -->
  <defs>
    <style>
      .st0 {
        fill: #4d4d4d;
      }

      .st1 {
        fill: #4e4d4d;
      }

      .st2 {
        fill: #0f7feb;
      }
    </style>
  </defs>
  <g>
    <g>
      <path class="st0" d="M114.3,53.9c-.3-.2-5.4-2.1-8.9-3.4-6.2-2.1-12.9-4.1-19-5.4-2.9-.6-3.8-.8-3.9-.8-.2,0-.2,26.3,0,26.3,0,0,.6,0,1.2.1,9.2.5,17.5-1.1,23-4.6,1.9-1.2,4-3.1,5.1-4.7,1.4-2,2.3-4.3,2.6-6.6.1-.8,0-1,0-1h0Z"/>
      <path class="st0" d="M60.2,41.6c-2.2-.1-8.7-.1-10.6,0-6.8.4-11.8,1.4-14.2,2.8-.8.5-.9.5-.6.9.5,1,2.2,3.4,3.5,4.9,2.5,2.9,5.8,5.8,9.4,8.3,4.6,3.2,9.9,5.9,15.7,8,.8.3,1.5.5,1.6.5h.2v-12.5c0-8.5,0-12.6,0-12.6-.1,0-2.6-.2-4.9-.4h0Z"/>
    </g>
    <path id="b" class="st2" d="M33.8,43.2c-.8-1.5-1.5-3.8-1.8-5.5-.6-3.9,0-7.5,2-10.5,5.4-8.3,19.5-11.8,35.9-8.9,4.2.7,9.1,2.1,13.1,3.5,4.8,1.8,9.1,3.9,13.3,6.6,1.2.8,1.6,1,1.5,1.1,0,0-.7,0-1.6-.2-4.4-.6-9.1-1-14.7-1.3-2.5-.1-11.7-.1-14,0-7,.4-12,1.1-16.9,2.2-7.8,1.8-13,4.4-15,7.5-.3.5-.6,1.1-.5,1.2,0,0,.4-.3.9-.7,5.1-4.9,18.4-7.9,34.9-7.9,7.8,0,24.1,1.9,24.1,1.9,0,0,8,1.3,8.4,1.5.1,0,1.1.9,2.1,2,1.7,1.7,2.4,2.5,2.3,2.5,0,0-.7-.1-1.6-.3-6.1-1.5-11.9-2.6-16.9-3.3-1-.1-2.1-.3-2.5-.3-3.2-.4-9.5-1-13.7-1.1-4.5-.2-12,0-15,.4-.2,0-1,.1-1.7.2-5.5.6-10.6,1.6-14.3,3-3.7,1.4-6.1,2.9-7.2,4.7-.4.6-.6,1.1-.7,1.9v.6c0,0-.4-.6-.4-.6h0Z"/>
    <g id="c">
      <g id="d">
        <path class="st0" d="M113.8,64.4c.5,0,1,.1,1.5.4s.9.6,1.1,1.1c.3.5.4,1,.4,1.5s-.1,1-.4,1.5-.6.9-1.1,1.1-1,.4-1.5.4-1-.1-1.5-.4c-.5-.3-.9-.6-1.1-1.1-.3-.5-.4-1-.4-1.5s.1-1,.4-1.5.6-.9,1.1-1.1,1-.4,1.5-.4h0ZM113.8,64.9c-.4,0-.8.1-1.2.3s-.7.5-.9.9-.3.8-.3,1.3.1.9.3,1.2c.2.4.5.7.9.9s.8.3,1.2.3.9-.1,1.2-.3c.4-.2.7-.5.9-.9s.3-.8.3-1.2-.1-.9-.3-1.3-.5-.7-.9-.9-.8-.3-1.2-.3h0ZM112.4,69.1v-3.2h1.1c.4,0,.7,0,.8,0,.2,0,.3.2.4.3s.2.3.2.5c0,.2,0,.4-.3.6s-.4.3-.7.3c.1,0,.2.1.3.2.1.1.3.3.5.6l.4.6h-.6l-.3-.5c-.2-.4-.4-.6-.5-.7,0,0-.2-.1-.4-.1h-.3v1.4s-.5,0-.5,0ZM113,67.3h.6c.3,0,.5,0,.6-.1.1,0,.2-.2.2-.4s0-.2,0-.3-.1-.1-.2-.2c0,0-.3,0-.5,0h-.6v1h0Z"/>
      </g>
    </g>
  </g>
  <g>
    <g>
      <rect class="st1" x="27.7" y="76.5" width="4" height="2.9"/>
      <g>
        <path class="st0" d="M66.1,84.9c-.7-.5-1.7-.8-3.2-.8h-4.9c-.8,0-1.3-.1-1.6-.2s-.3-.3-.3-.5.1-.4.3-.5.6-.1,1.1-.1h2.8c.6,0,1,0,1.3.1s.5.2.6.4h4c0-1-.4-1.7-1.1-2.2-.7-.5-1.8-.7-3.2-.7h-4.6c-2,0-3.4.2-4.2.7s-1.3,1.3-1.3,2.4.4,1.8,1.2,2.3c.8.5,2.2.7,4.2.7h4c.6,0,1,.2,1.3.3s.4.3.4.6-.1.5-.4.6-.7.2-1.2.2h-2.9c-.8,0-1.3,0-1.7-.2s-.5-.4-.5-.7h0s-4.3,0-4.3,0h0c0,1.2.4,2.1,1.3,2.5.8.5,2.4.7,4.7.7h4.1c1.9,0,3.2-.2,3.9-.7.7-.5,1.1-1.4,1.1-2.6s-.3-1.8-1-2.4h0,0Z"/>
        <path class="st0" d="M48.6,81.2c-.9-.5-2.4-.7-4.6-.7s-3,.1-3.7.4c-.7.3-1.2.8-1.2,1.5v-1.8h-4v13.2h4v-5.1c.2.6.7,1.1,1.4,1.4.7.3,1.9.4,3.7.4s3.5-.3,4.5-.8,1.4-1.4,1.4-2.6v-3.3c0-1.2-.4-2.1-1.3-2.6h0ZM45.9,86.1c0,.6-.2,1-.6,1.3s-1,.4-2,.4h-1.8c-1,0-1.6-.1-2-.4s-.5-.7-.5-1.4v-1.2c0-.6.2-1,.6-1.3s1-.4,2-.4h1.8c.9,0,1.6.1,2,.4.4.3.6.7.6,1.3v1.2h0Z"/>
        <rect class="st0" x="27.7" y="80.6" width="4" height="9.9"/>
        <polygon class="st0" points="7.4 79.9 14 79.9 14 90.5 18.9 90.5 18.9 79.9 25.5 79.9 25.5 76.5 7.4 76.5 7.4 79.9"/>
      </g>
    </g>
    <g>
      <polygon class="st2" points="84.4 78.2 84.4 76.7 66.8 76.7 66.8 78.2 74.6 78.2 74.6 90.5 76.6 90.5 76.6 78.2 84.4 78.2"/>
      <path class="st2" d="M90.7,81.2c-.8-.5-2.1-.7-4-.7s-2.4.1-3.1.4c-.7.2-1.2.7-1.5,1.3v-1.4h-1.7v9.7h1.8v-6.1c0-.8.3-1.5,1-1.8.6-.4,1.7-.6,3.1-.6s2.6.1,3.1.4.8.9.8,1.7v.9h1.6v-1.3c0-1.2-.4-2-1.1-2.5h0Z"/>
      <path class="st2" d="M106.1,81.4c-.8-.6-2.1-.9-3.8-.9h-3.2c-1.7,0-2.9.2-3.6.7-.7.4-1.1,1.2-1.1,2.2v.3h1.9v-.3c0-.5.2-.9.6-1.1s1.2-.3,2.6-.3h2.6c1.4,0,2.3.2,2.8.5.5.3.8.9.8,1.7v1.3c-.4-.4-.9-.7-1.5-.9-.6-.2-1.4-.3-2.3-.3h-3.1c-1.9,0-3.2.2-4,.7-.8.5-1.1,1.2-1.1,2.3s.4,2,1.1,2.5,2.1.7,4,.7h3c1.2,0,2-.1,2.6-.3.6-.2,1-.6,1.3-1.1v1.3h1.7v-6.3c0-1.2-.4-2.1-1.2-2.7h0s0,0,0,0ZM104.7,88.8c-.5.2-1.5.3-2.9.3h-2.7c-1.6,0-2.6-.1-3-.3-.4-.2-.6-.7-.6-1.5s.2-1.1.7-1.3c.5-.2,1.4-.3,3-.3h2.7c1.4,0,2.4,0,2.9.3s.8.5.8,1v.9h0c0,.5-.2.8-.7,1h0Z"/>
      <path class="st2" d="M122.4,81.8c-.4-.5-.8-.8-1.4-1-.6-.2-1.2-.3-2.1-.3h-3.4c-1.9,0-3.2.3-4.1,1-.8.6-1.2,1.7-1.2,3.2v1.5c0,1.6.4,2.7,1.2,3.3s2.2,1,4.1,1h3c1.2,0,2.1-.1,2.7-.4s1-.7,1.4-1.3v1.6h1.5v-13.8h-1.7v5.3h0ZM122.4,86c0,1.2-.3,2-.8,2.4-.5.4-1.6.6-3.2.6h-2.5c-1.6,0-2.7-.2-3.2-.6-.5-.4-.8-1.2-.8-2.4v-1.2c0-1.2.3-2,.8-2.4.5-.4,1.6-.6,3.2-.6h2.5c1.6,0,2.7.2,3.2.6s.8,1.2.8,2.4v1.2h0Z"/>
      <path class="st2" d="M139.3,87.4h0c0,.7-.3,1.1-.9,1.3-.6.3-1.5.4-2.7.4h-2.9c-1.4,0-2.4-.2-3-.6-.6-.4-.9-1.1-.9-2.2v-.5h12.1c0-.1,0-.2,0-.3v-.5c0-1.7-.4-2.9-1.2-3.6-.8-.7-2.3-1-4.4-1h-2.8c-2,0-3.4.3-4.3,1s-1.3,1.7-1.3,3.3v1.6c0,1.5.4,2.6,1.3,3.2s2.3,1,4.3,1h3.3c1.6,0,2.9-.2,3.7-.7.9-.5,1.3-1.2,1.3-2.1v-.2h-1.8,0ZM129.8,82.5c.6-.4,1.5-.6,2.9-.6h2.8c1.5,0,2.5.2,3,.5.5.3.8.9.8,1.8v.2h-10.3c0-.9.3-1.6.8-2h0Z"/>
    </g>
  </g>
</svg>