<?xml version="1.0" encoding="UTF-8"?>
<svg id="Logo" xmlns="http://www.w3.org/2000/svg" width="102.02" height="64.36" viewBox="0 0 102.02 64.36">
  <path d="M99.12,43.96c-.31-.25-6.48-2.57-10.73-4.05-7.44-2.56-15.53-4.86-22.83-6.48-3.49-.78-4.55-.98-4.7-.93-.19.07-.2,31.55,0,31.62.07,0,.71.08,1.42.12,10.99.65,20.95-1.33,27.62-5.5,2.29-1.44,4.85-3.76,6.17-5.61,1.7-2.38,2.75-5.11,3.09-7.91.12-.98.11-1.14-.01-1.25h-.03,0Z" fill="#4d4d4d"/>
  <path d="M34.13,29.1c-2.7-.14-10.45-.14-12.76,0-8.16.46-14.14,1.62-17.01,3.31-1.01.57-1.02.61-.76,1.12.61,1.21,2.68,4.07,4.25,5.9,3.01,3.49,6.91,6.92,11.33,9.98,5.46,3.79,11.89,7.08,18.84,9.66.93.34,1.8.64,1.92.64h.23v-15.04c0-10.2-.03-15.07-.1-15.11-.12-.08-3.09-.3-5.94-.44h0v-.03h0Z" fill="#4d4d4d"/>
  <path id="b" d="M2.45,31.13c-.94-1.85-1.81-4.51-2.17-6.63-.78-4.71.05-9,2.41-12.61C9.23,1.95,26.08-2.25,45.75,1.17c5.09.89,10.94,2.47,15.71,4.25,5.82,2.18,10.91,4.7,15.95,7.87,1.47.93,1.88,1.23,1.81,1.28,0,0-.86-.08-1.87-.2-5.24-.69-10.97-1.2-17.69-1.57-3.01-.16-14.07-.16-16.8,0-8.45.5-14.41,1.29-20.3,2.67-9.3,2.18-15.61,5.31-18.01,8.96-.41.61-.68,1.29-.56,1.42.04.04.5-.37,1.05-.89,6.08-5.83,22.09-9.45,41.84-9.44,9.34,0,28.86,2.3,28.86,2.3,0,0,9.6,1.61,10.11,1.81.16.05,1.31,1.12,2.55,2.36,2.08,2.07,2.89,2.94,2.79,3.05-.01,0-.87-.16-1.88-.41-7.31-1.76-14.26-3.09-20.34-3.92-1.23-.16-2.56-.34-2.94-.41-3.81-.53-11.41-1.17-16.4-1.38-5.37-.2-14.36,0-18.05.42-.25.03-1.14.12-1.99.2-6.58.68-12.72,1.98-17.22,3.64-4.4,1.63-7.31,3.53-8.69,5.67-.49.75-.71,1.38-.8,2.29l-.07.68-.35-.69h-.03s.02,0,.02,0Z" fill="#0f7feb"/>
  <path d="M98.42,56.49c.6,0,1.2.15,1.77.46s1.02.76,1.35,1.33c.31.57.48,1.17.48,1.81s-.15,1.23-.48,1.8-.76,1.02-1.33,1.33-1.17.48-1.8.48-1.23-.15-1.8-.48c-.57-.31-1.02-.78-1.33-1.33-.31-.57-.48-1.17-.48-1.8s.15-1.23.48-1.81.78-1.02,1.35-1.33,1.16-.46,1.77-.46h.03,0ZM98.42,57.09c-.52,0-1.01.12-1.47.38s-.86.64-1.13,1.12-.41.98-.41,1.53.14,1.02.38,1.48c.26.48.64.86,1.12,1.12s.98.38,1.48.38,1.02-.14,1.48-.38c.48-.26.86-.64,1.12-1.12s.38-.98.38-1.48-.14-1.02-.41-1.53-.65-.86-1.13-1.12-.98-.38-1.47-.38h.06ZM96.84,62.1v-3.9h1.33c.45,0,.79.03.99.11.2.07.35.19.48.37s.19.37.19.56c0,.27-.11.53-.31.75s-.48.33-.8.35c.14.07.25.12.33.2.15.15.35.41.57.78l.48.76h-.78l-.34-.6c-.26-.48-.48-.78-.65-.9-.11-.1-.27-.14-.49-.14h-.37v1.65h-.63ZM97.47,59.95h.76c.35,0,.6-.07.75-.15.14-.11.2-.25.2-.44,0-.11-.03-.22-.1-.31s-.14-.15-.26-.2c-.11-.04-.33-.07-.64-.07h-.71v1.17h-.01.01Z" fill="#4d4d4d"/>
</svg>