<?xml version="1.0" encoding="UTF-8"?>
<svg id="Logo" xmlns="http://www.w3.org/2000/svg" width="413.85" height="64.36" viewBox="0 0 413.85 64.36">
  <g>
    <g>
      <path d="M99.12,43.96c-.31-.25-6.48-2.57-10.73-4.05-7.44-2.56-15.53-4.86-22.83-6.48-3.49-.78-4.55-.98-4.7-.93-.19.07-.2,31.55,0,31.62.07,0,.71.08,1.42.12,10.99.65,20.95-1.33,27.62-5.5,2.29-1.44,4.85-3.76,6.17-5.61,1.7-2.38,2.75-5.11,3.09-7.91.12-.98.11-1.14,0-1.25h-.03Z" fill="#4d4d4d"/>
      <path d="M34.13,29.1c-2.7-.14-10.45-.14-12.76,0-8.16.46-14.14,1.62-17.01,3.31-1.01.57-1.02.61-.76,1.12.61,1.21,2.68,4.07,4.25,5.9,3.01,3.49,6.91,6.92,11.33,9.98,5.46,3.79,11.89,7.08,18.84,9.66.93.34,1.8.64,1.92.64h.23v-15.04c0-10.2-.03-15.07-.1-15.11-.12-.08-3.09-.3-5.94-.44h0v-.03h0Z" fill="#4d4d4d"/>
    </g>
    <path id="b" d="M2.45,31.13c-.94-1.85-1.81-4.51-2.17-6.63-.78-4.71.05-9,2.41-12.61C9.23,1.95,26.08-2.25,45.75,1.17c5.09.89,10.94,2.47,15.71,4.25,5.82,2.18,10.91,4.7,15.95,7.87,1.47.93,1.88,1.23,1.81,1.28,0,0-.86-.08-1.87-.2-5.24-.69-10.97-1.2-17.69-1.57-3.01-.16-14.07-.16-16.8,0-8.45.5-14.41,1.29-20.3,2.67-9.3,2.18-15.61,5.31-18.01,8.96-.41.61-.68,1.29-.56,1.42.04.04.5-.37,1.05-.89,6.08-5.83,22.09-9.45,41.84-9.44,9.34,0,28.86,2.3,28.86,2.3,0,0,9.6,1.61,10.11,1.81.16.05,1.31,1.12,2.55,2.36,2.08,2.07,2.89,2.94,2.79,3.05,0,0-.87-.16-1.88-.41-7.31-1.76-14.26-3.09-20.34-3.92-1.23-.16-2.56-.34-2.94-.41-3.81-.53-11.41-1.17-16.4-1.38-5.37-.2-14.36,0-18.05.42-.25.03-1.14.12-1.99.2-6.58.68-12.72,1.98-17.22,3.64-4.4,1.63-7.31,3.53-8.69,5.67-.49.75-.71,1.38-.8,2.29l-.07.68-.35-.69h-.03s.02,0,.02,0Z" fill="#0f7feb"/>
    <g id="c">
      <g id="d">
        <path d="M98.42,56.49c.6,0,1.2.15,1.77.46s1.02.76,1.35,1.33c.31.57.48,1.17.48,1.81s-.15,1.23-.48,1.8-.76,1.02-1.33,1.33-1.17.48-1.8.48-1.23-.15-1.8-.48c-.57-.31-1.02-.78-1.33-1.33-.31-.57-.48-1.17-.48-1.8s.15-1.23.48-1.81.78-1.02,1.35-1.33,1.16-.46,1.77-.46h.03-.01ZM98.42,57.09c-.52,0-1.01.12-1.47.38s-.86.64-1.13,1.12-.41.98-.41,1.53.14,1.02.38,1.48c.26.48.64.86,1.12,1.12s.98.38,1.48.38,1.02-.14,1.48-.38c.48-.26.86-.64,1.12-1.12s.38-.98.38-1.48-.14-1.02-.41-1.53-.65-.86-1.13-1.12-.98-.38-1.47-.38h.06ZM96.84,62.1v-3.9h1.33c.45,0,.79.03.99.11.2.07.35.19.48.37s.19.37.19.56c0,.27-.11.53-.31.75s-.48.33-.8.35c.14.07.25.12.33.2.15.15.35.41.57.78l.48.76h-.78l-.34-.6c-.26-.48-.48-.78-.65-.9-.11-.1-.27-.14-.49-.14h-.37v1.65h-.63ZM97.47,59.95h.76c.35,0,.6-.07.75-.15.14-.11.2-.25.2-.44,0-.11-.03-.22-.1-.31s-.14-.15-.26-.2c-.11-.04-.33-.07-.64-.07h-.71v1.17h0,.01Z" fill="#4d4d4d"/>
      </g>
    </g>
  </g>
  <g>
    <g>
      <path d="M244.66,22.37c-1.5-1.13-3.88-1.73-7.11-1.77h-11.12c-1.82-.09-2.99-.27-3.5-.49s-.77-.6-.77-1.12.24-.88.73-1.09,1.34-.33,2.55-.33h6.36c1.28,0,2.3.12,3.05.33s1.24.55,1.46.97h9.1c-.03-2.25-.84-3.9-2.42-4.97-1.58-1.08-4.02-1.61-7.31-1.61h-10.31c-4.45,0-7.61.56-9.49,1.68s-2.83,2.95-2.83,5.52c0,2.42.88,4.15,2.62,5.16,1.74,1.02,4.88,1.53,9.43,1.54l8.99.15c1.3.07,2.26.25,2.83.55s.88.72.88,1.28c0,.62-.27,1.06-.81,1.32s-1.48.4-2.81.4h-6.64c-1.73,0-2.98-.16-3.76-.48s-1.17-.82-1.17-1.52v-.08l-9.64.03h0c.05,2.75.98,4.65,2.83,5.73,1.84,1.08,5.36,1.61,10.58,1.61h9.24c4.22,0,7.17-.56,8.83-1.69,1.68-1.13,2.5-3.06,2.5-5.8,0-2.41-.74-4.16-2.26-5.31h-.03,0Z" fill="#4d4d4d"/>
      <path d="M205.1,13.98c-1.99-1.13-5.44-1.69-10.33-1.69-3.94,0-6.74.33-8.43,1.01-1.69.66-2.63,1.8-2.82,3.38v-4.08h-9.1v29.8h9.1v-11.54c.48,1.46,1.53,2.5,3.15,3.09,1.62.6,4.36.88,8.24.88,4.63,0,7.98-.61,10.05-1.84s3.11-3.18,3.11-5.89v-7.35c0-2.71-1-4.63-2.98-5.76h.01ZM199,24.98c0,1.36-.44,2.31-1.32,2.9s-2.35.86-4.41.86h-4.12c-2.19,0-3.7-.28-4.52-.84s-1.24-1.58-1.24-3.06v-2.69c0-1.36.44-2.31,1.3-2.89s2.35-.84,4.45-.84h4.12c2.11,0,3.59.28,4.45.85.85.57,1.28,1.54,1.28,2.91v2.78h0v.02h.01Z" fill="#4d4d4d"/>
      <rect x="158.04" y="12.57" width="9.1" height="22.27" fill="#4d4d4d"/>
      <polygon points="112.2 11.08 127.15 11.08 127.15 34.86 138.04 34.86 138.04 11.08 152.98 11.08 152.98 3.36 112.2 3.36 112.2 11.08" fill="#4d4d4d"/>
      <rect x="158.04" y="3.36" width="9.1" height="6.54" fill="#4d4d4d"/>
      <polygon points="285.95 7.28 285.95 3.81 246.21 3.81 246.21 7.28 263.87 7.28 263.87 35.02 268.3 35.02 268.3 7.28 285.95 7.28" fill="#0f7feb"/>
      <path d="M300.08,14.02c-1.72-1.12-4.69-1.66-8.92-1.66-3.16,0-5.48.28-6.97.85-1.49.56-2.65,1.54-3.46,2.93v-3.26h-3.86v21.83h4.04v-13.68c0-1.9.73-3.27,2.21-4.12,1.46-.85,3.82-1.28,7.06-1.28,3.52,0,5.86.33,7.02.98,1.16.65,1.74,1.98,1.74,3.94v2.06h3.68v-2.91c0-2.67-.85-4.56-2.57-5.66h.01l.02-.02h0Z" fill="#0f7feb"/>
      <path d="M334.81,14.31c-1.82-1.3-4.65-1.97-8.54-1.97h-7.21c-3.79,0-6.53.51-8.2,1.5-1.69,1-2.53,2.62-2.53,4.85v.6h4.19v-.65c0-1.18.43-1.98,1.29-2.39s2.82-.6,5.88-.6h5.94c3.12,0,5.25.36,6.4,1.08,1.13.72,1.7,2.02,1.7,3.88v3.02c-.85-.9-1.98-1.57-3.35-1.99-1.38-.41-3.11-.62-5.21-.62h-7.02c-4.23,0-7.21.51-8.92,1.53-1.73,1.02-2.58,2.78-2.58,5.28,0,2.65.86,4.51,2.59,5.57s4.73,1.6,9.02,1.6h6.66c2.63,0,4.6-.25,5.9-.73,1.3-.49,2.27-1.3,2.93-2.47v2.91h3.8v-14.27c0-2.79-.9-4.84-2.73-6.16v.03h-.01,0ZM331.82,31.13c-1.12.43-3.31.64-6.56.64h-6c-3.62,0-5.9-.27-6.85-.78-.96-.52-1.42-1.62-1.42-3.31,0-1.44.51-2.41,1.52-2.9,1.02-.51,3.26-.74,6.76-.74h6c3.2,0,5.37.21,6.52.65s1.72,1.18,1.72,2.26v1.93h0c0,1.08-.56,1.84-1.68,2.26h0Z" fill="#0f7feb"/>
      <path d="M371.57,15.43c-.85-1.06-1.91-1.84-3.16-2.34-1.26-.51-2.82-.74-4.69-.74h-7.69c-4.26,0-7.33.73-9.2,2.19-1.86,1.45-2.79,3.88-2.79,7.26v3.46c0,3.52.93,6.02,2.77,7.51s4.92,2.23,9.23,2.23h6.66c2.78,0,4.84-.31,6.2-.89s2.37-1.6,3.06-3.01v3.6h3.47V3.52h-3.86v11.91h.01s-.01,0-.01,0ZM371.62,24.88c0,2.71-.6,4.53-1.78,5.47-1.18.93-3.59,1.41-7.23,1.41h-5.6c-3.63,0-6.04-.47-7.23-1.41-1.18-.93-1.78-2.75-1.78-5.47v-2.62c0-2.63.6-4.4,1.8-5.31,1.2-.92,3.6-1.37,7.22-1.37h5.6c3.62,0,6.02.45,7.22,1.37s1.8,2.69,1.8,5.31v2.62h-.02,0Z" fill="#0f7feb"/>
      <path d="M409.73,27.97v.23c0,1.26-.66,2.21-1.98,2.82-1.32.6-3.38.92-6.16.92h-6.52c-3.19,0-5.43-.45-6.7-1.38-1.29-.93-1.93-2.54-1.93-4.88v-1.2l27.38-.03c.03-.2.03-.41.03-.65v-1.05c0-3.86-.93-6.54-2.78-8.08-1.85-1.54-5.12-2.31-9.83-2.31h-6.24c-4.53,0-7.77.73-9.69,2.21s-2.89,3.94-2.89,7.41v3.52c0,3.4.97,5.85,2.91,7.31,1.94,1.46,5.16,2.21,9.67,2.21h7.5c3.71,0,6.53-.55,8.46-1.64,1.93-1.1,2.89-2.7,2.89-4.83v-.56h-4.12v-.02h0ZM388.33,16.84c1.26-.86,3.47-1.29,6.62-1.29h6.21c3.4,0,5.66.37,6.81,1.12,1.14.73,1.72,2.1,1.72,4.07v.52h-23.24c0-2.07.64-3.55,1.89-4.4h0v-.02h-.01Z" fill="#0f7feb"/>
    </g>
    <g>
      <path d="M128.53,60.86h-1.53v-12.31h8.56c1.96,0,3.25.21,3.88.63s.94,1.19.94,2.3v1.61c0,1.11-.31,1.88-.94,2.29s-1.92.62-3.88.62h-7.03s0,4.86,0,4.86ZM128.53,54.61h7.47c1.11,0,1.84-.13,2.2-.4.36-.26.54-.82.54-1.67v-.59c0-.85-.18-1.41-.54-1.67s-1.1-.4-2.2-.4h-7.47v4.72h0Z" fill="#4d4d4d"/>
      <path d="M142.53,60.86v-8.61h1.34v1.28c.28-.55.68-.93,1.2-1.15s1.33-.34,2.42-.34c1.47,0,2.5.22,3.1.66s.89,1.18.89,2.24v1.15h-1.28v-.81c0-.78-.2-1.3-.61-1.55-.41-.26-1.22-.39-2.44-.39-1.12,0-1.94.17-2.45.5-.51.34-.76.88-.76,1.63v5.4h-1.41Z" fill="#4d4d4d"/>
      <path d="M157.3,60.97c-1.5,0-2.57-.29-3.21-.88s-.96-1.57-.96-2.96v-1.36c0-1.33.32-2.29.97-2.87s1.71-.86,3.2-.86h2.99c1.48,0,2.55.29,3.2.86.65.58.97,1.53.97,2.87v1.36c0,1.39-.32,2.38-.96,2.96-.64.59-1.71.88-3.21.88h-2.99,0ZM157.66,59.69h2.27c1.27,0,2.11-.18,2.53-.55s.62-1.09.62-2.16v-1.03c0-1.04-.21-1.73-.63-2.1-.42-.36-1.26-.54-2.52-.54h-2.27c-1.26,0-2.09.18-2.51.54s-.62,1.06-.62,2.1v1.03c0,1.07.21,1.79.62,2.16s1.25.55,2.51.55h0Z" fill="#4d4d4d"/>
      <path d="M167.64,60.86v-7.47h-1.83v-1.24h1.83v-.62c0-1.04.25-1.79.76-2.27s1.31-.72,2.42-.72h2.22v1.26h-2.17c-.68,0-1.16.11-1.44.34s-.42.6-.42,1.13v.88h4.03v1.24h-4.03v7.47s-1.37,0-1.37,0Z" fill="#4d4d4d"/>
      <path d="M180.46,52.04c1.64,0,2.78.3,3.42.91s.96,1.67.96,3.19v.67h-9.52v.48c0,.92.22,1.56.67,1.93.45.36,1.22.55,2.33.55h2.26c.96,0,1.68-.12,2.14-.36s.69-.61.69-1.11v-.09h1.44v.22c0,.84-.34,1.47-1,1.91-.67.43-1.65.65-2.94.65h-2.6c-1.57,0-2.69-.29-3.36-.87s-1.01-1.54-1.01-2.89v-1.39c0-1.37.33-2.34,1-2.92s1.79-.87,3.37-.87h2.17-.02ZM175.31,55.56h8.08v-.21c0-.78-.2-1.31-.6-1.6-.4-.29-1.18-.44-2.36-.44h-2.16c-1.1,0-1.86.17-2.3.51s-.66.92-.66,1.74h0Z" fill="#4d4d4d"/>
      <path d="M190.79,57c-1.58,0-2.6-.16-3.07-.49s-.71-.98-.71-1.95.28-1.57.85-1.94c.56-.37,1.54-.56,2.93-.56h2.47c1.38,0,2.38.17,3.01.5.63.34.94.87.94,1.6v.58h-1.31v-.36c0-.4-.2-.68-.61-.83-.4-.15-1.24-.22-2.51-.22h-1.36c-1.36,0-2.2.08-2.53.24s-.5.49-.5.99.17.85.5,1.02,1.18.25,2.53.25l2.37-.02c1.06,0,1.79.05,2.2.15s.73.27.97.51c.22.22.37.46.45.74.09.28.13.78.13,1.49,0,.84-.28,1.43-.84,1.77s-1.58.51-3.05.51h-3.51c-1.15,0-1.96-.24-2.43-.71-.47-.47-.72-1.28-.73-2.42h1.26v.15c0,.67.13,1.11.39,1.34s.87.34,1.83.34h3.89c.77,0,1.25-.09,1.46-.26s.31-.56.31-1.16c0-.49-.13-.83-.38-1-.25-.18-.71-.27-1.38-.27h-3.57,0Z" fill="#4d4d4d"/>
      <path d="M204.03,57c-1.58,0-2.6-.16-3.07-.49s-.71-.98-.71-1.95.28-1.57.85-1.94c.56-.37,1.54-.56,2.93-.56h2.47c1.38,0,2.38.17,3.01.5.63.34.94.87.94,1.6v.58h-1.31v-.36c0-.4-.2-.68-.61-.83-.4-.15-1.24-.22-2.51-.22h-1.36c-1.36,0-2.2.08-2.53.24s-.5.49-.5.99.17.85.5,1.02,1.18.25,2.53.25l2.37-.02c1.06,0,1.79.05,2.2.15s.73.27.97.51c.22.22.37.46.45.74.09.28.13.78.13,1.49,0,.84-.28,1.43-.84,1.77s-1.58.51-3.05.51h-3.51c-1.15,0-1.96-.24-2.43-.71s-.72-1.28-.73-2.42h1.26v.15c0,.67.13,1.11.39,1.34s.87.34,1.83.34h3.89c.77,0,1.25-.09,1.46-.26s.31-.56.31-1.16c0-.49-.13-.83-.38-1-.25-.18-.71-.27-1.38-.27h-3.57Z" fill="#4d4d4d"/>
      <path d="M213.71,50.19v-1.64h1.39v1.64h-1.39ZM213.71,60.86v-8.71h1.39v8.71h-1.39Z" fill="#4d4d4d"/>
      <path d="M221.78,60.97c-1.5,0-2.57-.29-3.21-.88s-.96-1.57-.96-2.96v-1.36c0-1.33.32-2.29.97-2.87s1.71-.86,3.2-.86h2.99c1.48,0,2.55.29,3.2.86s.97,1.53.97,2.87v1.36c0,1.39-.32,2.38-.96,2.96-.64.59-1.71.88-3.21.88h-2.99ZM222.14,59.69h2.27c1.27,0,2.11-.18,2.53-.55s.62-1.09.62-2.16v-1.03c0-1.04-.21-1.73-.63-2.1-.42-.36-1.26-.54-2.52-.54h-2.27c-1.26,0-2.09.18-2.51.54s-.62,1.06-.62,2.1v1.03c0,1.07.21,1.79.62,2.16s1.25.55,2.51.55h0Z" fill="#4d4d4d"/>
      <path d="M231.4,60.86v-8.71h1.37v1.61c.33-.61.83-1.05,1.51-1.32s1.65-.41,2.91-.41c1.8,0,3.05.23,3.75.7.71.47,1.06,1.28,1.06,2.45v5.67h-1.37v-5.3c0-.52-.04-.89-.13-1.12s-.24-.42-.45-.57c-.24-.18-.64-.31-1.19-.4s-1.24-.14-2.05-.14c-1.46,0-2.5.18-3.11.54s-.92.96-.92,1.79v5.2h-1.38Z" fill="#4d4d4d"/>
      <path d="M250.96,52.04c1.34,0,2.33.26,2.96.77.63.52.95,1.32.95,2.43v5.62h-1.32v-1.15c-.23.46-.56.78-1.02.98s-1.14.29-2.05.29h-2.31c-1.49,0-2.53-.21-3.13-.63s-.9-1.15-.9-2.2c0-.99.3-1.68.9-2.08s1.63-.6,3.1-.6h2.44c.73,0,1.33.08,1.81.25s.87.43,1.17.79v-1.19c0-.74-.2-1.25-.59-1.53s-1.13-.43-2.22-.43h-2.07c-1.06,0-1.74.08-2.04.24s-.45.47-.45.94v.26h-1.45v-.24c0-.88.29-1.52.88-1.91.58-.39,1.54-.59,2.85-.59h2.5v-.02h-.01ZM253.46,58.55v-.76c0-.42-.2-.72-.6-.89s-1.15-.26-2.27-.26h-2.08c-1.21,0-2,.1-2.35.29-.35.2-.53.58-.53,1.14,0,.66.17,1.1.5,1.3.33.21,1.12.31,2.38.31h2.08c1.13,0,1.89-.08,2.28-.25s.58-.46.58-.89h.01Z" fill="#4d4d4d"/>
      <path d="M259.06,48.55v12.31h-1.36v-12.31h1.36Z" fill="#4d4d4d"/>
      <path d="M275.37,61.01c-1.21,0-2.1-.06-2.68-.19-.58-.13-1.05-.35-1.42-.67-.4-.34-.69-.8-.88-1.36-.18-.57-.27-1.32-.27-2.26v-7.98h1.57v7.98c0,.66.03,1.13.1,1.42s.18.55.33.76c.22.31.52.54.92.68s.96.21,1.67.21h5.06c.72,0,1.27-.07,1.67-.21s.71-.37.93-.68c.15-.22.26-.47.33-.76.06-.29.1-.77.1-1.42v-7.98h1.57v7.89c0,.94-.09,1.71-.27,2.31s-.47,1.06-.86,1.41c-.35.31-.82.54-1.4.67s-1.48.19-2.7.19h-3.77Z" fill="#4d4d4d"/>
      <path d="M287.14,60.86v-8.71h1.37v1.61c.33-.61.83-1.05,1.51-1.32.68-.27,1.65-.41,2.91-.41,1.8,0,3.05.23,3.75.7.71.47,1.06,1.28,1.06,2.45v5.67h-1.37v-5.3c0-.52-.04-.89-.13-1.12s-.24-.42-.45-.57c-.24-.18-.64-.31-1.19-.4s-1.24-.14-2.05-.14c-1.46,0-2.5.18-3.11.54s-.92.96-.92,1.79v5.2h-1.38Z" fill="#4d4d4d"/>
      <path d="M306.52,60.97h-2.31c-1.5,0-2.57-.29-3.21-.88-.64-.59-.96-1.57-.96-2.96v-1.36c0-1.33.32-2.29.97-2.87s1.71-.86,3.2-.86h2.67c.65,0,1.19.1,1.63.29.43.2.8.5,1.1.92v-4.7h1.34v12.31h-1.21v-1.42c-.24.56-.59.95-1.06,1.19s-1.19.35-2.15.35h-.01ZM306.49,59.69c1.26,0,2.1-.18,2.51-.55s.62-1.09.62-2.16v-1.03c0-1.04-.21-1.73-.62-2.1-.42-.36-1.25-.54-2.51-.54h-1.94c-1.26,0-2.09.18-2.51.54s-.62,1.06-.62,2.1v1.03c0,1.07.21,1.79.62,2.16s1.25.55,2.51.55h1.94Z" fill="#4d4d4d"/>
      <path d="M319.91,52.04c1.64,0,2.78.3,3.42.91s.96,1.67.96,3.19v.41c0,.09,0,.18-.01.26h-9.52v.48c0,.92.22,1.56.67,1.93.45.36,1.22.55,2.33.55h2.27c.96,0,1.68-.12,2.14-.36.46-.24.69-.61.69-1.11v-.09h1.44v.22c0,.84-.33,1.47-1,1.91-.67.43-1.65.65-2.94.65h-2.6c-1.57,0-2.69-.29-3.36-.87-.68-.58-1.01-1.54-1.01-2.89v-1.39c0-1.37.33-2.34,1-2.92s1.79-.87,3.37-.87h2.17-.02ZM314.76,55.56h8.08v-.21c0-.78-.2-1.31-.6-1.6s-1.18-.44-2.36-.44h-2.16c-1.1,0-1.86.17-2.3.51s-.66.92-.66,1.74Z" fill="#4d4d4d"/>
      <path d="M326.6,60.86v-8.61h1.34v1.28c.28-.55.68-.93,1.2-1.15.52-.22,1.33-.34,2.42-.34,1.47,0,2.51.22,3.1.66s.89,1.18.89,2.24v1.15h-1.28v-.81c0-.78-.2-1.3-.61-1.55-.41-.26-1.22-.39-2.44-.39-1.12,0-1.94.17-2.45.5-.51.34-.76.88-.76,1.63v5.4h-1.41Z" fill="#4d4d4d"/>
      <path d="M339.99,60.86l-3.89-8.71h1.6l3.27,7.49,2.65-7.49h2.1l2.65,7.49,3.41-7.49h1.53l-4.1,8.71h-1.91l-2.65-7.52-2.75,7.52h-1.91,0Z" fill="#4d4d4d"/>
      <path d="M354.66,60.86v-8.61h1.34v1.28c.28-.55.68-.93,1.2-1.15.52-.22,1.33-.34,2.42-.34,1.47,0,2.51.22,3.1.66s.89,1.18.89,2.24v1.15h-1.28v-.81c0-.78-.2-1.3-.61-1.55-.41-.26-1.22-.39-2.44-.39-1.12,0-1.94.17-2.45.5-.51.34-.76.88-.76,1.63v5.4h-1.41Z" fill="#4d4d4d"/>
      <path d="M365.58,50.19v-1.64h1.39v1.64h-1.39ZM365.58,60.86v-8.71h1.39v8.71h-1.39Z" fill="#4d4d4d"/>
      <path d="M371.71,52.15h5.73v1.17h-5.75v4.57c0,.71.15,1.2.46,1.46s1.01.4,2.12.4c.89,0,1.49-.11,1.79-.33s.45-.7.45-1.43v-1.12h1.2v1.12c0,1.1-.28,1.87-.83,2.31-.55.44-1.53.66-2.94.66-.73,0-1.33-.07-1.8-.21s-.85-.35-1.15-.65c-.23-.22-.39-.48-.48-.78s-.14-.81-.14-1.53v-4.48h-1.87v-1.17h1.87v-1.99h1.33v1.99h0Z" fill="#4d4d4d"/>
      <path d="M385.92,52.04c1.64,0,2.78.3,3.42.91s.96,1.67.96,3.19v.41c0,.09,0,.18-.01.26h-9.52v.48c0,.92.22,1.56.67,1.93.45.36,1.22.55,2.33.55h2.27c.96,0,1.68-.12,2.14-.36.46-.24.69-.61.69-1.11v-.09h1.44v.22c0,.84-.33,1.47-1,1.91-.67.43-1.65.65-2.94.65h-2.6c-1.57,0-2.69-.29-3.36-.87-.68-.58-1.01-1.54-1.01-2.89v-1.39c0-1.37.33-2.34,1-2.92s1.79-.87,3.37-.87h2.17-.02ZM380.77,55.56h8.08v-.21c0-.78-.2-1.31-.6-1.6s-1.18-.44-2.36-.44h-2.16c-1.1,0-1.86.17-2.3.51s-.66.92-.66,1.74Z" fill="#4d4d4d"/>
      <path d="M392.61,60.86v-8.61h1.34v1.28c.28-.55.68-.93,1.2-1.15.52-.22,1.33-.34,2.42-.34,1.47,0,2.51.22,3.1.66s.89,1.18.89,2.24v1.15h-1.28v-.81c0-.78-.2-1.3-.61-1.55-.41-.26-1.22-.39-2.44-.39-1.12,0-1.94.17-2.45.5-.51.34-.76.88-.76,1.63v5.4h-1.41Z" fill="#4d4d4d"/>
      <path d="M407.1,57c-1.58,0-2.6-.16-3.07-.49s-.71-.98-.71-1.95.28-1.57.85-1.94c.56-.37,1.54-.56,2.93-.56h2.47c1.38,0,2.38.17,3.01.5.63.34.94.87.94,1.6v.58h-1.31v-.36c0-.4-.2-.68-.61-.83-.4-.15-1.24-.22-2.51-.22h-1.36c-1.36,0-2.2.08-2.53.24s-.5.49-.5.99.17.85.5,1.02,1.18.25,2.53.25l2.37-.02c1.06,0,1.79.05,2.2.15s.73.27.97.51c.22.22.37.46.45.74.09.28.13.78.13,1.49,0,.84-.28,1.43-.84,1.77s-1.58.51-3.05.51h-3.51c-1.15,0-1.96-.24-2.43-.71s-.72-1.28-.73-2.42h1.26v.15c0,.67.13,1.11.39,1.34s.87.34,1.83.34h3.89c.77,0,1.25-.09,1.46-.26s.31-.56.31-1.16c0-.49-.13-.83-.38-1-.25-.18-.71-.27-1.38-.27h-3.57Z" fill="#4d4d4d"/>
    </g>
  </g>
</svg>