<?xml version="1.0" encoding="UTF-8"?>
<svg id="Logo" xmlns="http://www.w3.org/2000/svg" width="1000mm" height="155.5mm" version="1.1" viewBox="0 0 2834.6 440.9">
  <!-- Generator: Adobe Illustrator 29.3.1, SVG Export Plug-In . SVG Version: 2.1.0 Build 151)  -->
  <defs>
    <style>
      .st0 {
        fill: #4d4d4d;
      }

      .st1 {
        fill: #0f7feb;
      }
    </style>
  </defs>
  <g>
    <g>
      <path class="st0" d="M678.9,301.1c-2.1-1.7-44.4-17.6-73.5-27.7-51-17.5-106.4-33.3-156.4-44.4-23.9-5.3-31.2-6.7-32.2-6.4-1.3.5-1.4,216.1,0,216.6.5,0,4.9.5,9.7.8,75.3,4.5,143.5-9.1,189.2-37.7,15.7-9.9,33.2-25.8,42.3-38.4,11.6-16.3,18.8-35,21.2-54.2.8-6.7.8-7.8,0-8.6h-.3Z"/>
      <path class="st0" d="M233.8,199.3c-18.5-1-71.6-1-87.4,0-55.9,3.2-96.9,11.1-116.5,22.7-6.9,3.9-7,4.2-5.2,7.7,4.2,8.3,18.4,27.9,29.1,40.4,20.6,23.9,47.3,47.4,77.6,68.4,37.4,26,81.4,48.5,129,66.2,6.4,2.3,12.3,4.4,13.2,4.4h1.6v-103c0-69.9-.2-103.2-.7-103.5-.8-.5-21.2-2.1-40.7-3h0v-.2h0Z"/>
    </g>
    <path id="b" class="st1" d="M16.8,213.2c-6.4-12.7-12.4-30.9-14.9-45.4-5.3-32.3.3-61.6,16.5-86.4C63.3,13.4,178.7-15.4,313.4,8c34.9,6.1,74.9,16.9,107.6,29.1,39.9,14.9,74.7,32.2,109.2,53.9,10.1,6.4,12.9,8.4,12.4,8.8,0,0-5.9-.5-12.8-1.4-35.9-4.7-75.1-8.2-121.2-10.8-20.6-1.1-96.4-1.1-115.1,0-57.9,3.4-98.7,8.8-139,18.3-63.7,14.9-106.9,36.4-123.4,61.4-2.8,4.2-4.7,8.8-3.8,9.7.3.3,3.4-2.5,7.2-6.1,41.6-39.9,151.3-64.7,286.6-64.7,64,0,197.7,15.8,197.7,15.8,0,0,65.8,11,69.2,12.4,1.1.3,9,7.7,17.5,16.2,14.2,14.2,19.8,20.1,19.1,20.9,0,0-6-1.1-12.9-2.8-50.1-12.1-97.7-21.2-139.3-26.8-8.4-1.1-17.5-2.3-20.1-2.8-26.1-3.6-78.2-8-112.3-9.5-36.8-1.4-98.4,0-123.6,2.9-1.7.2-7.8.8-13.6,1.4-45.1,4.7-87.1,13.6-117.9,24.9-30.1,11.2-50.1,24.2-59.5,38.8-3.4,5.1-4.9,9.5-5.5,15.7l-.5,4.7-2.4-4.7h-.2s.1,0,.1,0Z"/>
    <g id="c">
      <g id="d">
        <path class="st0" d="M674.1,386.9c4.1,0,8.2,1,12.1,3.2s7,5.2,9.2,9.1c2.1,3.9,3.3,8,3.3,12.4s-1,8.4-3.3,12.3-5.2,7-9.1,9.1-8,3.3-12.3,3.3-8.4-1-12.3-3.3c-3.9-2.1-7-5.3-9.1-9.1-2.1-3.9-3.3-8-3.3-12.3s1-8.4,3.3-12.4,5.3-7,9.2-9.1,7.9-3.2,12.1-3.2h.2,0,0ZM674.1,391.1c-3.6,0-6.9.8-10.1,2.6-3.2,1.8-5.9,4.4-7.7,7.7-1.8,3.3-2.8,6.7-2.8,10.5s1,7,2.6,10.1c1.8,3.3,4.4,5.9,7.7,7.7s6.7,2.6,10.1,2.6,7-1,10.1-2.6c3.3-1.8,5.9-4.4,7.7-7.7s2.6-6.7,2.6-10.1-1-7-2.8-10.5-4.5-5.9-7.7-7.7c-3.3-1.8-6.7-2.6-10.1-2.6h.4ZM663.3,425.4v-26.7h9.1c3.1,0,5.4.2,6.8.8,1.4.5,2.4,1.3,3.3,2.5s1.3,2.5,1.3,3.8c0,1.8-.8,3.6-2.1,5.1s-3.3,2.3-5.5,2.4c1,.5,1.7.8,2.3,1.4,1,1,2.4,2.8,3.9,5.3l3.3,5.2h-5.3l-2.3-4.1c-1.8-3.3-3.3-5.3-4.5-6.2-.8-.7-1.8-1-3.4-1h-2.5v11.3h-4.3ZM667.6,410.6h5.2c2.4,0,4.1-.5,5.1-1,1-.8,1.4-1.7,1.4-3s-.2-1.5-.7-2.1-1-1-1.8-1.4c-.8-.3-2.3-.5-4.4-.5h-4.9v8h0,0Z"/>
      </g>
    </g>
  </g>
  <g>
    <g>
      <path class="st0" d="M1675.8,153.2c-10.3-7.7-26.6-11.8-48.7-12.1h-76.2c-12.5-.6-20.5-1.8-24-3.4s-5.3-4.1-5.3-7.7,1.6-6,5-7.5,9.2-2.3,17.5-2.3h43.6c8.8,0,15.8.8,20.9,2.3s8.5,3.8,10,6.6h62.3c-.2-15.4-5.8-26.7-16.6-34-10.8-7.4-27.5-11-50.1-11h-70.6c-30.5,0-52.1,3.8-65,11.5-12.9,7.7-19.4,20.2-19.4,37.8s6,28.4,17.9,35.3c11.9,7,33.4,10.5,64.6,10.5l61.6,1c8.9.5,15.5,1.7,19.4,3.8s6,4.9,6,8.8-1.8,7.3-5.5,9c-3.7,1.8-10.1,2.7-19.2,2.7h-45.5c-11.8,0-20.4-1.1-25.8-3.3s-8-5.6-8-10.4v-.5l-66,.2h0c.3,18.8,6.7,31.8,19.4,39.2,12.6,7.4,36.7,11,72.5,11h63.3c28.9,0,49.1-3.8,60.5-11.6,11.5-7.7,17.1-21,17.1-39.7s-5.1-28.5-15.5-36.4h-.2Z"/>
      <path class="st0" d="M1404.8,95.8c-13.6-7.7-37.3-11.6-70.8-11.6s-46.2,2.3-57.7,6.9c-11.6,4.5-18,12.3-19.3,23.2v-27.9h-62.3v204.1h62.3v-79c3.3,10,10.5,17.1,21.6,21.2,11.1,4.1,29.9,6,56.4,6s54.7-4.2,68.8-12.6c14.2-8.4,21.3-21.8,21.3-40.3v-50.3c0-18.6-6.8-31.7-20.4-39.5h0ZM1363.1,171.1c0,9.3-3,15.8-9,19.9-6,4-16.1,5.9-30.2,5.9h-28.2c-15,0-25.3-1.9-31-5.8s-8.5-10.8-8.5-21v-18.4c0-9.3,3-15.8,8.9-19.8s16.1-5.8,30.5-5.8h28.2c14.5,0,24.6,1.9,30.5,5.8,5.8,3.9,8.8,10.5,8.8,19.9v19h0c0,.1,0,.1,0,.1h0Z"/>
      <rect class="st0" x="1082.5" y="86.1" width="62.3" height="152.5"/>
      <polygon class="st0" points="768.5 75.9 870.9 75.9 870.9 238.8 945.5 238.8 945.5 75.9 1047.8 75.9 1047.8 23 768.5 23 768.5 75.9"/>
      <rect class="st0" x="1082.5" y="23" width="62.3" height="44.8"/>
      <polygon class="st1" points="1958.6 49.9 1958.6 26.1 1686.4 26.1 1686.4 49.9 1807.4 49.9 1807.4 239.9 1837.7 239.9 1837.7 49.9 1958.6 49.9"/>
      <path class="st1" d="M2055.4,96.1c-11.8-7.7-32.1-11.4-61.1-11.4s-37.5,1.9-47.7,5.8c-10.2,3.8-18.2,10.5-23.7,20.1v-22.3h-26.4v149.5h27.7v-93.7c0-13,5-22.4,15.1-28.2,10-5.8,26.2-8.8,48.4-8.8s40.1,2.3,48.1,6.7c7.9,4.5,11.9,13.6,11.9,27v14.1h25.2v-19.9c0-18.3-5.8-31.2-17.6-38.8h.2c0-.1,0-.1,0-.1Z"/>
      <path class="st1" d="M2293.3,98c-12.5-8.9-31.8-13.5-58.5-13.5h-49.4c-26,0-44.7,3.5-56.2,10.3-11.6,6.8-17.3,17.9-17.3,33.2v4.1h28.7v-4.5c0-8.1,2.9-13.6,8.8-16.4s19.3-4.1,40.3-4.1h40.7c21.4,0,36,2.5,43.8,7.4,7.7,4.9,11.6,13.8,11.6,26.6v20.7c-5.8-6.2-13.6-10.8-22.9-13.6-9.5-2.8-21.3-4.2-35.7-4.2h-48.1c-29,0-49.4,3.5-61.1,10.5-11.8,7-17.7,19-17.7,36.2s5.9,30.9,17.7,38.2c11.8,7.3,32.4,11,61.8,11h45.6c18,0,31.5-1.7,40.4-5,8.9-3.4,15.5-8.9,20.1-16.9v19.9h26v-97.7c0-19.1-6.2-33.2-18.7-42.2v.2h0,0ZM2272.8,213.2c-7.7,2.9-22.7,4.4-44.9,4.4h-41.1c-24.8,0-40.4-1.8-46.9-5.3-6.6-3.6-9.7-11.1-9.7-22.7s3.5-16.5,10.4-19.9c7-3.5,22.3-5.1,46.3-5.1h41.1c21.9,0,36.8,1.4,44.7,4.5s11.8,8.1,11.8,15.5v13.2h0c0,7.4-3.8,12.6-11.5,15.5h0Z"/>
      <path class="st1" d="M2545.1,105.7c-5.8-7.3-13.1-12.6-21.6-16-8.6-3.5-19.3-5.1-32.1-5.1h-52.7c-29.2,0-50.2,5-63,15-12.7,9.9-19.1,26.6-19.1,49.7v23.7c0,24.1,6.4,41.2,19,51.4,12.6,10.2,33.7,15.3,63.2,15.3h45.6c19,0,33.2-2.1,42.5-6.1s16.2-11,21-20.6v24.7h23.8V24.1h-26.4v81.6h0,0ZM2545.4,170.4c0,18.6-4.1,31-12.2,37.5-8.1,6.4-24.6,9.7-49.5,9.7h-38.4c-24.9,0-41.4-3.2-49.5-9.7-8.1-6.4-12.2-18.8-12.2-37.5v-17.9c0-18,4.1-30.1,12.3-36.4,8.2-6.3,24.7-9.4,49.5-9.4h38.4c24.8,0,41.2,3.1,49.5,9.4,8.2,6.3,12.3,18.4,12.3,36.4v17.9h-.1,0Z"/>
      <path class="st1" d="M2806.4,191.6v1.6c0,8.6-4.5,15.1-13.6,19.3-9,4.1-23.2,6.3-42.2,6.3h-44.7c-21.8,0-37.2-3.1-45.9-9.5-8.8-6.4-13.2-17.4-13.2-33.4v-8.2l187.5-.2c.2-1.4.2-2.8.2-4.5v-7.2c0-26.4-6.4-44.8-19-55.3-12.7-10.5-35.1-15.8-67.3-15.8h-42.7c-31,0-53.2,5-66.4,15.1-13.2,10.1-19.8,27-19.8,50.8v24.1c0,23.3,6.6,40.1,19.9,50.1,13.3,10,35.3,15.1,66.2,15.1h51.4c25.4,0,44.7-3.8,57.9-11.2,13.2-7.5,19.8-18.5,19.8-33.1v-3.8h-28.2c0-.1,0-.1,0-.1ZM2659.8,115.4c8.6-5.9,23.8-8.8,45.3-8.8h42.5c23.3,0,38.8,2.5,46.6,7.7,7.8,5,11.8,14.4,11.8,27.9v3.6h-159.2c0-14.2,4.4-24.3,12.9-30.1h0c0-.1,0-.1,0-.1Z"/>
    </g>
    <g>
      <path class="st0" d="M880.4,416.9h-10.5v-84.3h58.6c13.4,0,22.3,1.4,26.6,4.3s6.4,8.2,6.4,15.8v11c0,7.6-2.1,12.9-6.4,15.7s-13.2,4.2-26.6,4.2h-48.2v33.3ZM880.4,374.1h51.2c7.6,0,12.6-.9,15.1-2.7,2.5-1.8,3.7-5.6,3.7-11.4v-4c0-5.8-1.2-9.7-3.7-11.4s-7.5-2.7-15.1-2.7h-51.2v32.3h0Z"/>
      <path class="st0" d="M976.3,416.9v-59h9.2v8.8c1.9-3.8,4.7-6.4,8.2-7.9s9.1-2.3,16.6-2.3,17.1,1.5,21.2,4.5,6.1,8.1,6.1,15.3v7.9h-8.8v-5.5c0-5.3-1.4-8.9-4.2-10.6-2.8-1.8-8.4-2.7-16.7-2.7s-13.3,1.2-16.8,3.4c-3.5,2.3-5.2,6-5.2,11.2v37h-9.7Z"/>
      <path class="st0" d="M1077.4,417.6c-10.3,0-17.6-2-22-6s-6.6-10.8-6.6-20.3v-9.3c0-9.1,2.2-15.7,6.6-19.7s11.7-5.9,21.9-5.9h20.5c10.1,0,17.5,2,21.9,5.9,4.5,4,6.6,10.5,6.6,19.7v9.3c0,9.5-2.2,16.3-6.6,20.3-4.4,4-11.7,6-22,6h-20.5,0ZM1079.9,408.9h15.5c8.7,0,14.5-1.2,17.3-3.8s4.2-7.5,4.2-14.8v-7.1c0-7.1-1.4-11.8-4.3-14.4-2.9-2.5-8.6-3.7-17.3-3.7h-15.5c-8.6,0-14.3,1.2-17.2,3.7s-4.2,7.3-4.2,14.4v7.1c0,7.3,1.4,12.3,4.2,14.8s8.6,3.8,17.2,3.8h0Z"/>
      <path class="st0" d="M1148.3,416.9v-51.2h-12.5v-8.5h12.5v-4.2c0-7.1,1.7-12.3,5.2-15.5s9-4.9,16.6-4.9h15.2v8.6h-14.9c-4.7,0-7.9.8-9.9,2.3s-2.9,4.1-2.9,7.7v6h27.6v8.5h-27.6v51.2h-9.4Z"/>
      <path class="st0" d="M1236.1,356.5c11.2,0,19,2.1,23.4,6.2s6.6,11.4,6.6,21.8v4.6h-65.2v3.3c0,6.3,1.5,10.7,4.6,13.2,3.1,2.5,8.4,3.8,16,3.8h15.5c6.6,0,11.5-.8,14.7-2.5s4.7-4.2,4.7-7.6v-.6h9.9v1.5c0,5.8-2.3,10.1-6.8,13.1-4.6,2.9-11.3,4.5-20.1,4.5h-17.8c-10.8,0-18.4-2-23-6-4.6-4-6.9-10.5-6.9-19.8v-9.5c0-9.4,2.3-16,6.8-20s12.3-6,23.1-6h14.9-.1,0ZM1200.8,380.6h55.3v-1.4c0-5.3-1.4-9-4.1-11-2.7-2-8.1-3-16.2-3h-14.8c-7.5,0-12.7,1.2-15.8,3.5s-4.5,6.3-4.5,11.9h0Z"/>
      <path class="st0" d="M1306.8,390.4c-10.8,0-17.8-1.1-21-3.4s-4.9-6.7-4.9-13.4,1.9-10.8,5.8-13.3c3.8-2.5,10.5-3.8,20.1-3.8h16.9c9.5,0,16.3,1.2,20.6,3.4,4.3,2.3,6.4,6,6.4,11v4h-9v-2.5c0-2.7-1.4-4.7-4.2-5.7-2.7-1-8.5-1.5-17.2-1.5h-9.3c-9.3,0-15.1.5-17.3,1.6s-3.4,3.4-3.4,6.8,1.2,5.8,3.4,7,8.1,1.7,17.3,1.7h16.2c7.3-.1,12.3.2,15.1.9s5,1.8,6.6,3.5c1.5,1.5,2.5,3.2,3.1,5.1.6,1.9.9,5.3.9,10.2s-1.9,9.8-5.8,12.1-10.8,3.5-20.9,3.5h-24c-7.9,0-13.4-1.6-16.6-4.9-3.2-3.2-4.9-8.8-5-16.6h8.6v1c0,4.6.9,7.6,2.7,9.2s6,2.3,12.5,2.3h26.6c5.3,0,8.6-.6,10-1.8s2.1-3.8,2.1-7.9-.9-5.7-2.6-6.8c-1.7-1.2-4.9-1.8-9.5-1.8h-24.5,0Z"/>
      <path class="st0" d="M1397.5,390.4c-10.8,0-17.8-1.1-21-3.4s-4.9-6.7-4.9-13.4,1.9-10.8,5.8-13.3c3.8-2.5,10.5-3.8,20.1-3.8h16.9c9.5,0,16.3,1.2,20.6,3.4,4.3,2.3,6.4,6,6.4,11v4h-9v-2.5c0-2.7-1.4-4.7-4.2-5.7-2.7-1-8.5-1.5-17.2-1.5h-9.3c-9.3,0-15.1.5-17.3,1.6s-3.4,3.4-3.4,6.8,1.2,5.8,3.4,7,8.1,1.7,17.3,1.7h16.2c7.3-.1,12.3.2,15.1.9s5,1.8,6.6,3.5c1.5,1.5,2.5,3.2,3.1,5.1.6,1.9.9,5.3.9,10.2s-1.9,9.8-5.8,12.1-10.8,3.5-20.9,3.5h-24c-7.9,0-13.4-1.6-16.6-4.9s-4.9-8.8-5-16.6h8.6v1c0,4.6.9,7.6,2.7,9.2s6,2.3,12.5,2.3h26.6c5.3,0,8.6-.6,10-1.8s2.1-3.8,2.1-7.9-.9-5.7-2.6-6.8c-1.7-1.2-4.9-1.8-9.5-1.8h-24.5,0Z"/>
      <path class="st0" d="M1463.8,343.8v-11.2h9.5v11.2h-9.5ZM1463.8,416.9v-59.7h9.5v59.7h-9.5Z"/>
      <path class="st0" d="M1519.1,417.6c-10.3,0-17.6-2-22-6-4.4-4-6.6-10.8-6.6-20.3v-9.3c0-9.1,2.2-15.7,6.6-19.7s11.7-5.9,21.9-5.9h20.5c10.1,0,17.5,2,21.9,5.9s6.6,10.5,6.6,19.7v9.3c0,9.5-2.2,16.3-6.6,20.3-4.4,4-11.7,6-22,6h-20.5,0ZM1521.6,408.9h15.5c8.7,0,14.5-1.2,17.3-3.8,2.9-2.5,4.2-7.5,4.2-14.8v-7.1c0-7.1-1.4-11.8-4.3-14.4-2.9-2.5-8.6-3.7-17.3-3.7h-15.5c-8.6,0-14.3,1.2-17.2,3.7s-4.2,7.3-4.2,14.4v7.1c0,7.3,1.4,12.3,4.2,14.8s8.6,3.8,17.2,3.8h0Z"/>
      <path class="st0" d="M1585,416.9v-59.7h9.4v11c2.3-4.2,5.7-7.2,10.3-9s11.3-2.8,19.9-2.8c12.3,0,20.9,1.6,25.7,4.8,4.9,3.2,7.3,8.8,7.3,16.8v38.8h-9.4v-36.3c0-3.6-.3-6.1-.9-7.7s-1.6-2.9-3.1-3.9c-1.6-1.2-4.4-2.1-8.2-2.7s-8.5-1-14-1c-10,0-17.1,1.2-21.3,3.7s-6.3,6.6-6.3,12.3v35.6h-9.5,0Z"/>
      <path class="st0" d="M1719,356.5c9.2,0,16,1.8,20.3,5.3,4.3,3.6,6.5,9,6.5,16.6v38.5h-9v-7.9c-1.6,3.2-3.8,5.3-7,6.7s-7.8,2-14,2h-15.8c-10.2,0-17.3-1.4-21.4-4.3-4.1-2.9-6.2-7.9-6.2-15.1s2.1-11.5,6.2-14.2,11.2-4.1,21.2-4.1h16.7c5,0,9.1.5,12.4,1.7s6,2.9,8,5.4v-8.2c0-5.1-1.4-8.6-4-10.5s-7.7-2.9-15.2-2.9h-14.2c-7.3,0-11.9.5-14,1.6s-3.1,3.2-3.1,6.4v1.8h-9.9v-1.6c0-6,2-10.4,6-13.1,4-2.7,10.5-4,19.5-4h17.1c0-.1,0-.1,0-.1h0ZM1736.1,401.1v-5.2c0-2.9-1.4-4.9-4.1-6.1s-7.9-1.8-15.5-1.8h-14.2c-8.3,0-13.7.7-16.1,2-2.4,1.4-3.6,4-3.6,7.8s1.2,7.5,3.4,8.9c2.3,1.4,7.7,2.1,16.3,2.1h14.2c7.7,0,12.9-.5,15.6-1.7s4-3.2,4-6.1h0Z"/>
      <path class="st0" d="M1774.4,332.6v84.3h-9.3v-84.3h9.3Z"/>
      <path class="st0" d="M1886.1,417.9c-8.3,0-14.4-.4-18.4-1.3-4-.9-7.2-2.4-9.7-4.6-2.7-2.3-4.7-5.5-6-9.3-1.2-3.9-1.8-9-1.8-15.5v-54.7h10.8v54.7c0,4.5.2,7.7.7,9.7s1.2,3.8,2.3,5.2c1.5,2.1,3.6,3.7,6.3,4.7s6.6,1.4,11.4,1.4h34.7c4.9,0,8.7-.5,11.4-1.4s4.9-2.5,6.4-4.7c1-1.5,1.8-3.2,2.3-5.2.4-2,.7-5.3.7-9.7v-54.7h10.8v54c0,6.4-.6,11.7-1.8,15.8s-3.2,7.3-5.9,9.7c-2.4,2.1-5.6,3.7-9.6,4.6s-10.1,1.3-18.5,1.3h-25.8Z"/>
      <path class="st0" d="M1966.8,416.9v-59.7h9.4v11c2.3-4.2,5.7-7.2,10.3-9,4.7-1.8,11.3-2.8,19.9-2.8,12.3,0,20.9,1.6,25.7,4.8,4.9,3.2,7.3,8.8,7.3,16.8v38.8h-9.4v-36.3c0-3.6-.3-6.1-.9-7.7s-1.6-2.9-3.1-3.9c-1.6-1.2-4.4-2.1-8.2-2.7s-8.5-1-14-1c-10,0-17.1,1.2-21.3,3.7s-6.3,6.6-6.3,12.3v35.6h-9.5Z"/>
      <path class="st0" d="M2099.5,417.6h-15.8c-10.3,0-17.6-2-22-6-4.4-4-6.6-10.8-6.6-20.3v-9.3c0-9.1,2.2-15.7,6.6-19.7s11.7-5.9,21.9-5.9h18.3c4.5,0,8.2.7,11.2,2,2.9,1.4,5.5,3.4,7.5,6.3v-32.2h9.2v84.3h-8.3v-9.7c-1.6,3.8-4,6.5-7.3,8.2s-8.2,2.4-14.7,2.4h0ZM2099.3,408.9c8.6,0,14.4-1.2,17.2-3.8s4.2-7.5,4.2-14.8v-7.1c0-7.1-1.4-11.8-4.2-14.4-2.9-2.5-8.6-3.7-17.2-3.7h-13.3c-8.6,0-14.3,1.2-17.2,3.7s-4.2,7.3-4.2,14.4v7.1c0,7.3,1.4,12.3,4.2,14.8s8.6,3.8,17.2,3.8h13.3Z"/>
      <path class="st0" d="M2191.2,356.5c11.2,0,19,2.1,23.4,6.2,4.4,4.2,6.6,11.4,6.6,21.8v2.8c0,.6,0,1.2,0,1.8h-65.2v3.3c0,6.3,1.5,10.7,4.6,13.2,3.1,2.5,8.4,3.8,16,3.8h15.5c6.6,0,11.5-.8,14.7-2.5,3.2-1.6,4.7-4.2,4.7-7.6v-.6h9.9v1.5c0,5.8-2.3,10.1-6.8,13.1-4.6,2.9-11.3,4.5-20.1,4.5h-17.8c-10.8,0-18.4-2-23-6-4.7-4-6.9-10.5-6.9-19.8v-9.5c0-9.4,2.3-16,6.8-20s12.3-6,23.1-6h14.9-.1ZM2155.9,380.6h55.3v-1.4c0-5.3-1.4-9-4.1-11s-8.1-3-16.2-3h-14.8c-7.5,0-12.7,1.2-15.8,3.5s-4.5,6.3-4.5,11.9Z"/>
      <path class="st0" d="M2237,416.9v-59h9.2v8.8c1.9-3.8,4.7-6.4,8.2-7.9,3.6-1.5,9.1-2.3,16.6-2.3s17.2,1.5,21.2,4.5,6.1,8.1,6.1,15.3v7.9h-8.8v-5.5c0-5.3-1.4-8.9-4.2-10.6-2.8-1.8-8.4-2.7-16.7-2.7s-13.3,1.2-16.8,3.4c-3.5,2.3-5.2,6-5.2,11.2v37h-9.7Z"/>
      <path class="st0" d="M2328.8,416.9l-26.6-59.7h11l22.4,51.3,18.2-51.3h14.4l18.2,51.3,23.4-51.3h10.5l-28.1,59.7h-13.1l-18.2-51.5-18.8,51.5h-13.1,0Z"/>
      <path class="st0" d="M2429.2,416.9v-59h9.2v8.8c1.9-3.8,4.7-6.4,8.2-7.9,3.6-1.5,9.1-2.3,16.6-2.3s17.2,1.5,21.2,4.5,6.1,8.1,6.1,15.3v7.9h-8.8v-5.5c0-5.3-1.4-8.9-4.2-10.6-2.8-1.8-8.4-2.7-16.7-2.7s-13.3,1.2-16.8,3.4c-3.5,2.3-5.2,6-5.2,11.2v37h-9.7Z"/>
      <path class="st0" d="M2504,343.8v-11.2h9.5v11.2h-9.5ZM2504,416.9v-59.7h9.5v59.7h-9.5Z"/>
      <path class="st0" d="M2546,357.2h39.2v8h-39.4v31.3c0,4.9,1,8.2,3.2,10s6.9,2.7,14.5,2.7,10.2-.8,12.3-2.3,3.1-4.8,3.1-9.8v-7.7h8.2v7.7c0,7.5-1.9,12.8-5.7,15.8-3.8,3-10.5,4.5-20.1,4.5s-9.1-.5-12.3-1.4-5.8-2.4-7.9-4.5c-1.6-1.5-2.7-3.3-3.3-5.3s-1-5.5-1-10.5v-30.7h-12.8v-8h12.8v-13.6h9.1v13.6h0Z"/>
      <path class="st0" d="M2643.3,356.5c11.2,0,19,2.1,23.4,6.2s6.6,11.4,6.6,21.8v2.8c0,.6,0,1.2,0,1.8h-65.2v3.3c0,6.3,1.5,10.7,4.6,13.2,3.1,2.5,8.4,3.8,16,3.8h15.5c6.6,0,11.5-.8,14.7-2.5,3.2-1.6,4.7-4.2,4.7-7.6v-.6h9.9v1.5c0,5.8-2.3,10.1-6.8,13.1-4.6,2.9-11.3,4.5-20.1,4.5h-17.8c-10.8,0-18.4-2-23-6-4.7-4-6.9-10.5-6.9-19.8v-9.5c0-9.4,2.3-16,6.8-20,4.6-4,12.3-6,23.1-6h14.9-.1ZM2608.1,380.6h55.3v-1.4c0-5.3-1.4-9-4.1-11s-8.1-3-16.2-3h-14.8c-7.5,0-12.7,1.2-15.8,3.5s-4.5,6.3-4.5,11.9Z"/>
      <path class="st0" d="M2689.2,416.9v-59h9.2v8.8c1.9-3.8,4.7-6.4,8.2-7.9,3.6-1.5,9.1-2.3,16.6-2.3s17.2,1.5,21.2,4.5,6.1,8.1,6.1,15.3v7.9h-8.8v-5.5c0-5.3-1.4-8.9-4.2-10.6-2.8-1.8-8.4-2.7-16.7-2.7s-13.3,1.2-16.8,3.4c-3.5,2.3-5.2,6-5.2,11.2v37h-9.7Z"/>
      <path class="st0" d="M2788.4,390.4c-10.8,0-17.8-1.1-21-3.4s-4.9-6.7-4.9-13.4,1.9-10.8,5.8-13.3c3.8-2.5,10.5-3.8,20.1-3.8h16.9c9.5,0,16.3,1.2,20.6,3.4,4.3,2.3,6.4,6,6.4,11v4h-9v-2.5c0-2.7-1.4-4.7-4.2-5.7-2.7-1-8.5-1.5-17.2-1.5h-9.3c-9.3,0-15.1.5-17.3,1.6s-3.4,3.4-3.4,6.8,1.2,5.8,3.4,7,8.1,1.7,17.3,1.7h16.2c7.3-.1,12.3.2,15.1.9s5,1.8,6.6,3.5c1.5,1.5,2.5,3.2,3.1,5.1.6,1.9.9,5.3.9,10.2s-1.9,9.8-5.8,12.1c-3.8,2.3-10.8,3.5-20.9,3.5h-24c-7.9,0-13.4-1.6-16.6-4.9s-4.9-8.8-5-16.6h8.6v1c0,4.6.9,7.6,2.7,9.2s6,2.3,12.5,2.3h26.6c5.3,0,8.6-.6,10-1.8s2.1-3.8,2.1-7.9-.9-5.7-2.6-6.8c-1.7-1.2-4.9-1.8-9.5-1.8h-24.5Z"/>
    </g>
  </g>
</svg>