<?xml version="1.0" encoding="UTF-8" standalone="no"?>
<!-- Created with Inkscape (http://www.inkscape.org/) -->

<svg
   xmlns:dc="http://purl.org/dc/elements/1.1/"
   xmlns:cc="http://creativecommons.org/ns#"
   xmlns:rdf="http://www.w3.org/1999/02/22-rdf-syntax-ns#"
   xmlns:svg="http://www.w3.org/2000/svg"
   xmlns="http://www.w3.org/2000/svg"
   xmlns:sodipodi="http://sodipodi.sourceforge.net/DTD/sodipodi-0.dtd"
   xmlns:inkscape="http://www.inkscape.org/namespaces/inkscape"
   id="svg2547"
   sodipodi:version="0.32"
   inkscape:version="0.48.3.1 r9886"
   width="1731"
   height="994.58643"
   version="1.0"
   sodipodi:docname="TipsTrade (All).svg"
   inkscape:output_extension="org.inkscape.output.svg.inkscape"
   inkscape:export-filename="/run/user/baylyj/gvfs/smb-share:server=mdrake03,share=resource/Logo Files/TipsTrade Vector/TipsTrade (All).png"
   inkscape:export-xdpi="90"
   inkscape:export-ydpi="90">
  <metadata
     id="metadata2552">
    <rdf:RDF>
      <cc:Work
         rdf:about="">
        <dc:format>image/svg+xml</dc:format>
        <dc:type
           rdf:resource="http://purl.org/dc/dcmitype/StillImage" />
        <dc:title></dc:title>
      </cc:Work>
    </rdf:RDF>
  </metadata>
  <defs
     id="defs2550">
    <inkscape:perspective
       sodipodi:type="inkscape:persp3d"
       inkscape:vp_x="0 : 497.29321 : 1"
       inkscape:vp_y="0 : 1000 : 0"
       inkscape:vp_z="1731 : 497.29321 : 1"
       inkscape:persp3d-origin="865.5 : 331.52881 : 1"
       id="perspective3270" />
  </defs>
  <sodipodi:namedview
     inkscape:window-height="1030"
     inkscape:window-width="1920"
     inkscape:pageshadow="2"
     inkscape:pageopacity="0.0"
     guidetolerance="10.0"
     gridtolerance="10.0"
     objecttolerance="10.0"
     borderopacity="1.0"
     bordercolor="#666666"
     pagecolor="#ffffff"
     id="base"
     inkscape:zoom="0.25389941"
     inkscape:cx="2551.2763"
     inkscape:cy="224.40471"
     inkscape:window-x="0"
     inkscape:window-y="25"
     inkscape:current-layer="layer2"
     showgrid="false"
     inkscape:window-maximized="1" />
  <g
     inkscape:groupmode="layer"
     id="layer1"
     inkscape:label="Text"
     style="display:inline">
    <g
       inkscape:groupmode="layer"
       id="layer7"
       inkscape:label="Below"
       style="display:none">
      <path
         inkscape:connector-curvature="0"
         d="m 148.24091,945.57616 -62.48968,0 0,-154.7404 -85.75123,0 0,-50.24933 233.99216,0 0,50.24933 -85.75125,0 0,154.7404 z m 166.9603,-162.44987 -52.16649,0 0,-42.53986 52.16649,0 0,42.53986 z m 0,162.44987 -52.16649,0 0,-144.96586 52.16649,0 0,144.96586 z m 94.0098,-26.1572 0,75.16747 -52.16649,0 0,-193.97613 52.16649,0 0,26.57018 c 1.10105,-10.27918 6.49204,-17.59859 16.17298,-21.95827 9.68074,-4.35937 25.80784,-6.53914 48.38131,-6.53928 28.07891,1.4e-4 47.83056,3.67131 59.25507,11.01354 11.42412,7.34251 17.13629,19.8245 17.13648,37.44608 l 0,47.90892 c -1.9e-4,17.62171 -5.96471,30.40202 -17.89351,38.34093 -11.92919,7.93894 -31.15324,11.9084 -57.67219,11.9084 -22.20643,0 -37.96646,-1.92737 -47.28017,-5.7821 -9.31388,-3.85474 -15.34721,-10.55465 -18.09997,-20.09974 l 0,0 z m 32.20833,-80.67425 c -12.02088,1.1e-4 -20.53177,1.83571 -25.53268,5.50677 -5.0011,3.67128 -7.50159,9.9123 -7.50151,18.72304 l 0,17.48401 c -8e-5,9.63691 2.36279,16.26799 7.08858,19.89322 4.72563,3.62534 13.37415,5.43799 25.94561,5.43793 l 23.67449,0 c 11.83711,6e-5 20.27917,-1.88143 25.3262,-5.64442 5.04675,-3.76291 7.5702,-10.04982 7.57033,-18.86072 l 0,-18.03469 c -1.3e-4,-8.90253 -2.45478,-15.21237 -7.36385,-18.92953 -4.90941,-3.71697 -13.42027,-5.5755 -25.53268,-5.57561 l -23.67449,0 z m 136.54131,60.98754 55.33226,-0.13768 0,0.55069 c -8e-5,4.49724 2.24809,7.77836 6.74448,9.84335 4.49623,2.06507 11.69951,3.09758 21.60985,3.09756 l 38.12698,0 c 7.61605,2e-5 12.98411,-0.84892 16.10415,-2.54687 3.11974,-1.69789 4.6797,-4.566 4.67984,-8.60435 -1.4e-4,-3.67115 -1.6748,-6.44746 -5.02394,-8.329 -3.34944,-1.88143 -8.78633,-3.05162 -16.31063,-3.51056 l -51.61591,-0.9637 c -26.06036,-0.0917 -44.09151,-3.44167 -54.09348,-10.04984 -10.00206,-6.60807 -15.00305,-17.80517 -15.00305,-33.59134 0,-16.70377 5.41392,-28.68101 16.24181,-35.93172 10.82783,-7.25044 28.99662,-10.87572 54.5064,-10.87586 l 59.18628,0 c 18.90273,1.4e-4 32.89637,3.48775 41.98093,10.46286 9.08421,6.97538 13.71817,17.75947 13.90188,32.35231 l -52.16649,0 c -1.28479,-2.75328 -4.08351,-4.84126 -8.39616,-6.26395 -4.31295,-1.42249 -10.13979,-2.13378 -17.48062,-2.13389 l -36.47524,0 c -6.97396,1.1e-4 -11.86024,0.7114 -14.65891,2.13389 -2.79881,1.42269 -4.19817,3.786 -4.19811,7.08996 -6e-5,3.39595 1.46813,5.8281 4.40456,7.29649 2.93632,1.46856 9.63489,2.52402 20.09581,3.16639 l 63.72846,0 c 18.62743,0.27542 32.25401,4.10722 40.8798,11.49539 8.6254,7.38834 12.93818,18.8837 12.9384,34.48617 -2.2e-4,17.80528 -4.79475,30.37906 -14.38364,37.72141 -9.58929,7.34236 -26.49635,11.01356 -50.72125,11.01356 l -52.99235,0 c -29.91434,0 -50.14778,-3.48763 -60.70031,-10.46288 -10.55261,-6.97524 -15.96655,-19.41135 -16.2418,-37.30839 l 0,0 z"
         id="Text_Tips"
         inkscape:label="Tips"
         style="fill:#000000;fill-opacity:1;display:inline" />
      <g
         style="display:inline"
         transform="translate(0,-4.2187498e-6)"
         id="Text_Trade"
         inkscape:label="Trade">
        <path
           inkscape:connector-curvature="0"
           inkscape:label="T of Trade"
           id="Text_T"
           d="m 895.71248,946.58643 -25.42496,0 0,-180.44909 -101.28752,0 0,-22.6414 228,0 0,22.6414 -101.28752,0 0,180.44909 z"
           style="fill:#008bd6;fill-opacity:1" />
        <g
           inkscape:label="rade of Trade"
           transform="matrix(1.1487854,0,0,1,-133.70949,2.6628213e-6)"
           id="Text_rade">
          <path
             inkscape:connector-curvature="0"
             d="m 939,944.67692 0,-142.12244 19.24983,0 0,21.14107 c 4.04004,-9.00188 9.78329,-15.34417 17.22977,-19.02695 7.44639,-3.68248 19.05172,-5.52382 34.8161,-5.52395 21.1509,1.3e-4 36.0042,3.61457 44.5598,10.84332 8.5553,7.229 12.8331,19.52716 12.8332,36.89454 l 0,18.95875 -18.4181,0 0,-13.3666 c -10e-5,-12.82093 -2.9113,-21.36825 -8.7337,-25.64205 -5.8226,-4.27355 -17.5269,-6.41038 -35.1131,-6.41052 -16.16043,1.4e-4 -27.90439,2.77347 -35.23195,8.32003 -7.32765,5.5468 -10.99146,14.50331 -10.99141,26.8696 l 0,89.0652 -20.20044,0 z"
             id="Text_r"
             inkscape:label="r of Trade"
             style="fill:#008bd6;fill-opacity:1" />
          <path
             inkscape:connector-curvature="0"
             id="Text_a"
             d="m 1221.6874,906.62304 0,-12.54826 c -2e-4,-7.00148 -2.8521,-11.91165 -8.5555,-14.73052 -5.7038,-2.81874 -16.5567,-4.22815 -32.5584,-4.22823 l -29.9441,0 c -17.428,8e-5 -28.6768,1.61407 -33.7467,4.84199 -5.07,3.22806 -7.6049,9.52489 -7.6049,18.89055 0,10.91156 2.3765,18.07221 7.1296,21.48205 4.753,3.40986 16.1603,5.1148 34.222,5.11477 l 29.9441,0 c 16.2395,3e-5 27.1517,-1.38667 32.7366,-4.16003 5.5846,-2.77331 8.3771,-7.66076 8.3773,-14.66232 l 0,0 z m -36.0043,-107.47839 c 19.3289,1.3e-4 33.5286,4.25108 42.5991,12.75283 9.0702,8.502 13.6054,21.84586 13.6055,40.0316 l 0,92.74784 -19.012,0 0,-18.95875 c -3.2482,7.54715 -8.12,12.91195 -14.6157,16.09447 -6.4959,3.18254 -16.319,4.77379 -29.4688,4.77379 l -33.2715,0 c -21.3887,0 -36.4004,-3.4553 -45.035,-10.36594 -8.6347,-6.9106 -12.9521,-19.00419 -12.9521,-36.28078 0,-16.27625 4.2976,-27.73334 12.8927,-34.37123 8.595,-6.63776 23.4681,-9.95668 44.6191,-9.95676 l 35.0538,0 c 10.4566,8e-5 19.1308,1.36403 26.0229,4.0918 6.8918,2.72798 12.4766,7.0471 16.7546,12.95744 l 0,-19.64074 c -2e-4,-12.1844 -2.8322,-20.61809 -8.4961,-25.30104 -5.6643,-4.68274 -16.2992,-7.02418 -31.9048,-7.02431 l -29.7067,0 c -15.2889,1.3e-4 -25.0723,1.3186 -29.35,3.95542 -4.2777,2.63707 -6.4166,7.82004 -6.4166,15.54892 l 0,4.2282 -20.9134,0 0,-3.95542 c 0,-14.54855 4.1985,-25.07362 12.5956,-31.57519 8.397,-6.5013 22.062,-9.75202 40.9951,-9.75215 l 36.0043,0 z"
             inkscape:label="a of Trade"
             style="fill:#008bd6;fill-opacity:1" />
          <path
             inkscape:connector-curvature="0"
             id="Text_d"
             d="m 1367.1306,925.44539 c 18.1406,3e-5 30.1817,-3.04611 36.1231,-9.1384 5.9412,-6.09222 8.9118,-17.95847 8.912,-35.59881 l 0,-17.04924 c -2e-4,-17.09459 -2.9906,-28.61985 -8.9714,-34.57584 -5.9811,-5.95574 -18.0023,-8.93368 -36.0637,-8.93379 l -27.9242,0 c -18.0616,1.1e-4 -30.0828,2.97805 -36.0637,8.93379 -5.9809,5.95599 -8.9714,17.48125 -8.9714,34.57584 l 0,17.04924 c 0,17.64034 2.9706,29.50659 8.912,35.59881 5.9412,6.09229 17.9823,9.13843 36.1231,9.1384 l 27.9242,0 z m 0.4753,21.14104 -33.2714,0 c -21.5471,0 -36.9153,-4.84196 -46.1045,-14.52594 -9.1892,-9.68396 -13.7839,-25.98301 -13.7839,-48.89721 l 0,-22.50499 c 0,-22.00479 4.6541,-37.75825 13.9622,-47.26048 9.308,-9.50196 24.6167,-14.25303 45.9262,-14.25316 l 38.3809,0 c 9.3475,1.3e-4 17.1504,1.61415 23.4088,4.84199 6.258,3.22811 11.5259,8.29742 15.8038,15.2079 l 0,-77.60811 19.2499,0 0,203.09049 -17.3487,0 0,-23.45973 c -3.4065,9.18385 -8.4962,15.70803 -15.2691,19.57251 -6.7732,3.86448 -17.0913,5.79673 -30.9542,5.79673 l 0,0 z"
             inkscape:label="d of Trade"
             style="fill:#008bd6;fill-opacity:1" />
          <path
             inkscape:connector-curvature="0"
             id="Text_e"
             d="m 1560.2231,799.14465 c 23.5274,1.3e-4 39.9056,5.00124 49.1346,15.00333 9.2287,10.00232 13.843,27.55166 13.8432,52.64805 -2e-4,3.00073 -0.02,5.27397 -0.059,6.81967 -0.04,1.54587 -0.099,2.95528 -0.1782,4.22823 l -136.7689,0.13638 0,7.77444 c 0,15.18525 3.2083,25.77848 9.6249,31.77979 6.4166,6.00134 17.5862,9.00202 33.509,9.00199 l 32.5583,0 c 13.863,3e-5 24.1018,-1.97768 30.7166,-5.93313 6.6145,-3.9554 9.9218,-10.07037 9.922,-18.34497 l 0,-1.50035 20.6757,0 0,3.68264 c -2e-4,13.82127 -4.8126,24.30087 -14.4373,31.43879 -9.6251,7.13796 -23.706,10.70692 -42.2427,10.70692 l -37.4303,0 c -22.4978,0 -38.5987,-4.77379 -48.3028,-14.32134 -9.7041,-9.54755 -14.5562,-25.4147 -14.5562,-47.60148 l 0,-22.91418 c 0,-22.55034 4.8125,-38.62207 14.4374,-48.21522 9.6249,-9.5929 25.7654,-14.38943 48.4216,-14.38956 l 31.1325,0 z m -74.0287,58.1038 116.0931,0 0,-3.40986 c -10e-5,-12.82091 -2.8519,-21.64104 -8.5554,-26.46042 -5.7039,-4.81911 -17.0319,-7.22875 -33.9843,-7.22886 l -31.0136,0 c -15.7644,1.1e-4 -26.7954,2.79619 -33.0931,8.38823 -6.2978,5.59224 -9.4467,15.16256 -9.4467,28.71091 l 0,0 z"
             inkscape:label="e of Trade"
             style="fill:#008bd6;fill-opacity:1" />
        </g>
      </g>
    </g>
    <g
       inkscape:groupmode="layer"
       id="layer8"
       inkscape:label="Right"
       style="display:inline">
      <g
         id="g3101"
         transform="matrix(1.9062579,0,0,1.9062579,-411.95885,-241.08316)"
         inkscape:export-filename="/run/user/baylyj/gvfs/smb-share:server=mdrake03,share=resource/Logo Files/TipsTrade Vector/TipsTrade Wide.png"
         inkscape:export-xdpi="6.5521822"
         inkscape:export-ydpi="6.5521822">
        <path
           inkscape:connector-curvature="0"
           d="m 1110.2361,397.11181 -62.4897,0 0,-154.7404 -85.75125,0 0,-50.24933 233.99215,0 0,50.24933 -85.7512,0 0,154.7404 z m 166.9603,-162.44987 -52.1665,0 0,-42.53986 52.1665,0 0,42.53986 z m 0,162.44987 -52.1665,0 0,-144.96586 52.1665,0 0,144.96586 z m 94.0098,-26.1572 0,75.16747 -52.1665,0 0,-193.97613 52.1665,0 0,26.57018 c 1.101,-10.27918 6.492,-17.59859 16.1729,-21.95827 9.6808,-4.35937 25.8079,-6.53914 48.3814,-6.53928 28.0789,1.4e-4 47.8305,3.67131 59.255,11.01354 11.4241,7.34251 17.1363,19.8245 17.1365,37.44608 l 0,47.90892 c -2e-4,17.62171 -5.9647,30.40202 -17.8935,38.34093 -11.9292,7.93894 -31.1532,11.9084 -57.6722,11.9084 -22.2064,0 -37.9665,-1.92737 -47.2802,-5.7821 -9.3138,-3.85474 -15.3472,-10.55465 -18.0999,-20.09974 l 0,0 z m 32.2083,-80.67425 c -12.0209,1.1e-4 -20.5318,1.83571 -25.5327,5.50677 -5.0011,3.67128 -7.5016,9.9123 -7.5015,18.72304 l 0,17.48401 c -10e-5,9.63691 2.3628,16.26799 7.0886,19.89322 4.7256,3.62534 13.3741,5.43799 25.9456,5.43793 l 23.6745,0 c 11.8371,6e-5 20.2792,-1.88143 25.3262,-5.64442 5.0467,-3.76291 7.5702,-10.04982 7.5703,-18.86072 l 0,-18.03469 c -10e-5,-8.90253 -2.4548,-15.21237 -7.3638,-18.92953 -4.9094,-3.71697 -13.4203,-5.5755 -25.5327,-5.57561 l -23.6745,0 z m 136.5413,60.98754 55.3323,-0.13768 0,0.55069 c -10e-5,4.49724 2.2481,7.77836 6.7444,9.84335 4.4963,2.06507 11.6996,3.09758 21.6099,3.09756 l 38.127,0 c 7.616,2e-5 12.9841,-0.84892 16.1041,-2.54687 3.1198,-1.69789 4.6797,-4.566 4.6799,-8.60435 -2e-4,-3.67115 -1.6748,-6.44746 -5.024,-8.329 -3.3494,-1.88143 -8.7863,-3.05162 -16.3106,-3.51056 l -51.6159,-0.9637 c -26.0604,-0.0917 -44.0915,-3.44167 -54.0935,-10.04984 -10.0021,-6.60807 -15.003,-17.80517 -15.003,-33.59134 0,-16.70377 5.4139,-28.68101 16.2418,-35.93172 10.8278,-7.25044 28.9966,-10.87572 54.5064,-10.87586 l 59.1862,0 c 18.9028,1.4e-4 32.8964,3.48775 41.981,10.46286 9.0842,6.97538 13.7181,17.75947 13.9019,32.35231 l -52.1665,0 c -1.2848,-2.75328 -4.0835,-4.84126 -8.3962,-6.26395 -4.3129,-1.42249 -10.1398,-2.13378 -17.4806,-2.13389 l -36.4753,0 c -6.9739,1.1e-4 -11.8602,0.7114 -14.6589,2.13389 -2.7988,1.42269 -4.1981,3.786 -4.1981,7.08996 0,3.39595 1.4682,5.8281 4.4046,7.29649 2.9363,1.46856 9.6349,2.52402 20.0958,3.16639 l 63.7285,0 c 18.6274,0.27542 32.254,4.10722 40.8798,11.49539 8.6254,7.38834 12.9381,18.8837 12.9384,34.48617 -3e-4,17.80528 -4.7948,30.37906 -14.3837,37.72141 -9.5893,7.34236 -26.4963,11.01356 -50.7212,11.01356 l -52.9924,0 c -29.9143,0 -50.1478,-3.48763 -60.7003,-10.46288 -10.5526,-6.97524 -15.9665,-19.41135 -16.2418,-37.30839 l 0,0 z"
           id="path3046"
           inkscape:label="Tips"
           style="fill:#000000;fill-opacity:1;display:inline" />
        <g
           style="display:inline"
           transform="translate(961.99515,-548.46435)"
           id="g3048"
           inkscape:label="Trade">
          <path
             inkscape:connector-curvature="0"
             inkscape:label="T of Trade"
             id="path3050"
             d="m 895.71248,946.58643 -25.42496,0 0,-180.44909 -101.28752,0 0,-22.6414 228,0 0,22.6414 -101.28752,0 0,180.44909 z"
             style="fill:#008bd6;fill-opacity:1" />
          <g
             inkscape:label="rade of Trade"
             transform="matrix(1.1487854,0,0,1,-133.70949,2.6628213e-6)"
             id="g3052">
            <path
               inkscape:connector-curvature="0"
               d="m 939,944.67692 0,-142.12244 19.24983,0 0,21.14107 c 4.04004,-9.00188 9.78329,-15.34417 17.22977,-19.02695 7.44639,-3.68248 19.05172,-5.52382 34.8161,-5.52395 21.1509,1.3e-4 36.0042,3.61457 44.5598,10.84332 8.5553,7.229 12.8331,19.52716 12.8332,36.89454 l 0,18.95875 -18.4181,0 0,-13.3666 c -10e-5,-12.82093 -2.9113,-21.36825 -8.7337,-25.64205 -5.8226,-4.27355 -17.5269,-6.41038 -35.1131,-6.41052 -16.16043,1.4e-4 -27.90439,2.77347 -35.23195,8.32003 -7.32765,5.5468 -10.99146,14.50331 -10.99141,26.8696 l 0,89.0652 -20.20044,0 z"
               id="path3054"
               inkscape:label="r of Trade"
               style="fill:#008bd6;fill-opacity:1" />
            <path
               inkscape:connector-curvature="0"
               id="path3056"
               d="m 1221.6874,906.62304 0,-12.54826 c -2e-4,-7.00148 -2.8521,-11.91165 -8.5555,-14.73052 -5.7038,-2.81874 -16.5567,-4.22815 -32.5584,-4.22823 l -29.9441,0 c -17.428,8e-5 -28.6768,1.61407 -33.7467,4.84199 -5.07,3.22806 -7.6049,9.52489 -7.6049,18.89055 0,10.91156 2.3765,18.07221 7.1296,21.48205 4.753,3.40986 16.1603,5.1148 34.222,5.11477 l 29.9441,0 c 16.2395,3e-5 27.1517,-1.38667 32.7366,-4.16003 5.5846,-2.77331 8.3771,-7.66076 8.3773,-14.66232 l 0,0 z m -36.0043,-107.47839 c 19.3289,1.3e-4 33.5286,4.25108 42.5991,12.75283 9.0702,8.502 13.6054,21.84586 13.6055,40.0316 l 0,92.74784 -19.012,0 0,-18.95875 c -3.2482,7.54715 -8.12,12.91195 -14.6157,16.09447 -6.4959,3.18254 -16.319,4.77379 -29.4688,4.77379 l -33.2715,0 c -21.3887,0 -36.4004,-3.4553 -45.035,-10.36594 -8.6347,-6.9106 -12.9521,-19.00419 -12.9521,-36.28078 0,-16.27625 4.2976,-27.73334 12.8927,-34.37123 8.595,-6.63776 23.4681,-9.95668 44.6191,-9.95676 l 35.0538,0 c 10.4566,8e-5 19.1308,1.36403 26.0229,4.0918 6.8918,2.72798 12.4766,7.0471 16.7546,12.95744 l 0,-19.64074 c -2e-4,-12.1844 -2.8322,-20.61809 -8.4961,-25.30104 -5.6643,-4.68274 -16.2992,-7.02418 -31.9048,-7.02431 l -29.7067,0 c -15.2889,1.3e-4 -25.0723,1.3186 -29.35,3.95542 -4.2777,2.63707 -6.4166,7.82004 -6.4166,15.54892 l 0,4.2282 -20.9134,0 0,-3.95542 c 0,-14.54855 4.1985,-25.07362 12.5956,-31.57519 8.397,-6.5013 22.062,-9.75202 40.9951,-9.75215 l 36.0043,0 z"
               inkscape:label="a of Trade"
               style="fill:#008bd6;fill-opacity:1" />
            <path
               inkscape:connector-curvature="0"
               id="path3058"
               d="m 1367.1306,925.44539 c 18.1406,3e-5 30.1817,-3.04611 36.1231,-9.1384 5.9412,-6.09222 8.9118,-17.95847 8.912,-35.59881 l 0,-17.04924 c -2e-4,-17.09459 -2.9906,-28.61985 -8.9714,-34.57584 -5.9811,-5.95574 -18.0023,-8.93368 -36.0637,-8.93379 l -27.9242,0 c -18.0616,1.1e-4 -30.0828,2.97805 -36.0637,8.93379 -5.9809,5.95599 -8.9714,17.48125 -8.9714,34.57584 l 0,17.04924 c 0,17.64034 2.9706,29.50659 8.912,35.59881 5.9412,6.09229 17.9823,9.13843 36.1231,9.1384 l 27.9242,0 z m 0.4753,21.14104 -33.2714,0 c -21.5471,0 -36.9153,-4.84196 -46.1045,-14.52594 -9.1892,-9.68396 -13.7839,-25.98301 -13.7839,-48.89721 l 0,-22.50499 c 0,-22.00479 4.6541,-37.75825 13.9622,-47.26048 9.308,-9.50196 24.6167,-14.25303 45.9262,-14.25316 l 38.3809,0 c 9.3475,1.3e-4 17.1504,1.61415 23.4088,4.84199 6.258,3.22811 11.5259,8.29742 15.8038,15.2079 l 0,-77.60811 19.2499,0 0,203.09049 -17.3487,0 0,-23.45973 c -3.4065,9.18385 -8.4962,15.70803 -15.2691,19.57251 -6.7732,3.86448 -17.0913,5.79673 -30.9542,5.79673 l 0,0 z"
               inkscape:label="d of Trade"
               style="fill:#008bd6;fill-opacity:1" />
            <path
               inkscape:connector-curvature="0"
               id="path3060"
               d="m 1560.2231,799.14465 c 23.5274,1.3e-4 39.9056,5.00124 49.1346,15.00333 9.2287,10.00232 13.843,27.55166 13.8432,52.64805 -2e-4,3.00073 -0.02,5.27397 -0.059,6.81967 -0.04,1.54587 -0.099,2.95528 -0.1782,4.22823 l -136.7689,0.13638 0,7.77444 c 0,15.18525 3.2083,25.77848 9.6249,31.77979 6.4166,6.00134 17.5862,9.00202 33.509,9.00199 l 32.5583,0 c 13.863,3e-5 24.1018,-1.97768 30.7166,-5.93313 6.6145,-3.9554 9.9218,-10.07037 9.922,-18.34497 l 0,-1.50035 20.6757,0 0,3.68264 c -2e-4,13.82127 -4.8126,24.30087 -14.4373,31.43879 -9.6251,7.13796 -23.706,10.70692 -42.2427,10.70692 l -37.4303,0 c -22.4978,0 -38.5987,-4.77379 -48.3028,-14.32134 -9.7041,-9.54755 -14.5562,-25.4147 -14.5562,-47.60148 l 0,-22.91418 c 0,-22.55034 4.8125,-38.62207 14.4374,-48.21522 9.6249,-9.5929 25.7654,-14.38943 48.4216,-14.38956 l 31.1325,0 z m -74.0287,58.1038 116.0931,0 0,-3.40986 c -10e-5,-12.82091 -2.8519,-21.64104 -8.5554,-26.46042 -5.7039,-4.81911 -17.0319,-7.22875 -33.9843,-7.22886 l -31.0136,0 c -15.7644,1.1e-4 -26.7954,2.79619 -33.0931,8.38823 -6.2978,5.59224 -9.4467,15.16256 -9.4467,28.71091 l 0,0 z"
               inkscape:label="e of Trade"
               style="fill:#008bd6;fill-opacity:1" />
          </g>
        </g>
      </g>
    </g>
  </g>
  <g
     inkscape:groupmode="layer"
     id="layer3"
     inkscape:label="LogoMask"
     style="display:none">
    <path
       inkscape:connector-curvature="0"
       id="Logo_BG"
       style="fill:#ff00ff;fill-opacity:1;stroke:none"
       d="m 874.875,127.2188 c -34.91758,1.8e-4 -69.48405,0.42409 -83.1875,1.25 -84.67198,5.1032 -144.4841,12.96589 -203.5,26.75 -93.34708,21.80275 -156.5338,53.25416 -180.5625,89.875 -4.03711,6.15267 -6.7778,13.03473 -5.625,14.1875 0.35071,0.35074 5.1117,-3.64318 10.5625,-8.875 60.9707,-58.52112 221.6196,-94.79505 419.625,-94.75 93.70052,0.0213 186.116,7.40332 289.5,23.09375 39.527,5.99896 96.1726,16.11382 101.3125,18.09375 0.01,0.002 0.025,-0.002 0.031,0 0.3078,0.0893 0.8166,0.25787 1.1876,0.375 -19.9983,-17.59795 -41.9545,-34.60429 -65.6563,-50.75 -0.2929,-0.021 -1.4886,-0.0939 -2.5313,-0.15625 -0.1546,-0.009 -0.2401,-0.024 -0.375,-0.0313 -2.1866,-0.12576 -9.4724,-0.96308 -18.0312,-2.09375 -52.6535,-6.95578 -109.918,-12.02882 -177.4375,-15.71875 -15.12624,-0.82664 -50.39492,-1.25018 -85.3125,-1.25 z m -73.53125,61.875 c -46.60966,0.21392 -97.17908,2.10597 -122.65625,5 -2.47498,0.28114 -11.475,1.22515 -20,2.09375 -65.95578,6.72013 -127.5608,19.7595 -172.75,36.5625 -44.1176,16.40452 -73.29655,35.43422 -87.09375,56.78125 -4.83999,7.48839 -7.08415,13.86293 -8.03125,22.875 l -0.71875,6.6875 c 5e-5,9e-5 0,0.0313 0,0.0313 -0.0371,0.45497 -0.051,0.76553 -0.0625,1.125 1.90623,3.37566 3.73657,6.62654 6.46875,11.4375 0.33883,-1.82432 2.78092,-3.29836 9,-6.90625 28.9423,-16.79054 88.8771,-28.44703 170.6875,-33.15625 23.25032,-1.33836 100.9487,-1.29951 128,0.0625 28.42402,1.4311 58.21315,3.66149 59.46875,4.4375 0.6968,0.43062 1.03125,49.26486 1.03125,151.5625 l 0,150.9375 -2.25,-0.0625 c -0.47738,-0.0123 -2.29318,-0.5237 -4.59375,-1.25 2.58767,0.90159 5.17614,1.80572 7.78125,2.6875 72.0942,24.40254 143.54817,38.71185 210.5625,43.65625 -2.30028,-0.20266 -3.92978,-0.38568 -4.25,-0.5 -1.92608,-0.68761 -1.83275,-316.35446 0.0937,-317.09375 1.56143,-0.59917 12.27365,1.48548 47.1563,9.21875 73.2527,16.23972 154.4869,39.31215 229,65.03125 42.5854,14.69889 104.6262,38.09925 107.7186,40.625 0.6284,0.51321 0.962,1.15571 1,2.8125 3.8046,-62.43054 -25.1925,-129.54166 -79.9061,-192.34375 0.6111,-0.0786 0.053,-0.18273 -0.875,-0.34375 -0.015,-0.003 -0.016,0.003 -0.031,0 -0.069,-0.009 -0.1981,-0.0501 -0.2814,-0.0625 -2.2288,-0.33223 -9.5427,-1.93996 -18.125,-4 -73.3775,-17.61304 -143.0182,-31.03052 -204,-39.3125 -12.375,-1.68066 -25.65,-3.48688 -29.5,-4.03125 -38.29433,-5.41458 -114.5552,-11.79791 -164.4687,-13.75 -16.82409,-0.65798 -37.18879,-0.90974 -58.375,-0.8125 z" />
  </g>
  <g
     inkscape:groupmode="layer"
     id="layer6"
     inkscape:label="Button"
     style="display:none">
    <rect
       style="fill:#ffffff;fill-opacity:1;fill-rule:nonzero;stroke:#000000;stroke-width:10.62992096;stroke-miterlimit:4;stroke-dasharray:none"
       id="rect3003"
       width="1062.9921"
       height="1062.9921"
       x="327.952"
       y="-208.70284"
       rx="106.29921"
       inkscape:export-filename="/home/baylyj/.gvfs/resource on mdrake03/Logo Files/TipsTrade Vector/TipsTrade (Button).png"
       inkscape:export-xdpi="83.830002"
       inkscape:export-ydpi="83.830002" />
  </g>
  <g
     inkscape:groupmode="layer"
     id="layer2"
     inkscape:label="Logo"
     style="display:inline;opacity:0.95">
    <g
       id="g3005"
       inkscape:export-filename="/run/user/baylyj/gvfs/smb-share:server=mdrake03,share=resource/Logo Files/TipsTrade Vector/TipsTrade Wide.png"
       inkscape:export-xdpi="6.5521822"
       inkscape:export-ydpi="6.5521822">
      <path
         inkscape:export-ydpi="90.459999"
         inkscape:export-xdpi="90.459999"
         inkscape:export-filename="/home/baylyj/.gvfs/resource on mdrake03/Logo Files/TipsTrade Vector/TipsTrade (Logo Only).png"
         inkscape:label="Bottom Right segment of Logo"
         id="Logo_BR"
         d="m 986.1885,644.36275 c -7.15,-0.4248 -13.5625,-0.97318 -14.25,-1.21862 -1.9261,-0.68764 -1.8264,-316.35061 0.1001,-317.0899 1.5614,-0.59917 12.2673,1.49657 47.1499,9.22984 73.2527,16.23971 154.4869,39.30657 229,65.02567 42.5855,14.6989 104.6168,38.09007 107.7095,40.61582 1.2924,1.05554 1.3127,2.64922 0.1593,12.51695 -3.284,28.09552 -13.9525,55.43165 -30.9605,79.33103 -13.2374,18.60091 -38.9013,41.96244 -61.9083,56.35422 -66.9315,41.86836 -166.7985,61.78227 -277,55.23499 z"
         style="fill:#000000;fill-opacity:1"
         inkscape:connector-curvature="0" />
      <path
         inkscape:export-ydpi="90.459999"
         inkscape:export-xdpi="90.459999"
         inkscape:export-filename="/home/baylyj/.gvfs/resource on mdrake03/Logo Files/TipsTrade Vector/TipsTrade (Logo Only).png"
         inkscape:label="Bottom Left segment of Logo"
         id="Logo_BL"
         d="m 743.1885,592.22215 c -69.7252,-25.82758 -134.1668,-58.86267 -189,-96.88833 -44.3915,-30.78461 -83.4692,-65.25424 -113.6096,-100.21276 -15.8862,-18.42575 -36.5466,-47.03487 -42.7339,-59.17521 -2.5708,-5.04411 -2.3454,-5.37303 7.6593,-11.17708 28.9423,-16.79054 88.8738,-28.42467 170.6842,-33.13389 23.2503,-1.33835 100.9487,-1.3018 128,0.0602 28.424,1.43111 58.2163,3.64663 59.4719,4.42264 0.6968,0.43063 1.0281,49.27875 1.0281,151.57639 l 0,150.94098 -2.25,-0.0579 c -1.2375,-0.0318 -9.9,-2.89162 -19.25,-6.35504 z"
         style="fill:#000000;fill-opacity:1;stroke:none"
         inkscape:connector-curvature="0" />
      <path
         inkscape:export-ydpi="90.459999"
         inkscape:export-xdpi="90.459999"
         inkscape:export-filename="/home/baylyj/.gvfs/resource on mdrake03/Logo Files/TipsTrade Vector/TipsTrade (Logo Only).png"
         inkscape:label="Top segment of Logo"
         id="Logo_Top"
         d="m 386.5238,312.13509 c -9.499,-18.5686 -18.2108,-45.27437 -21.6934,-66.5 -7.7585,-47.28596 0.4733,-90.29345 24.2025,-126.44697 65.358,-99.578762 234.5062,-141.685302 431.6556,-107.453272 51.086,8.8703 109.6405,24.73504 157.5,42.67295 58.334,21.8638 109.4093,47.090752 160,79.026702 14.7523,9.31258 18.8354,12.19849 18.1826,12.85134 -0.1813,0.18132 -8.6216,-0.76573 -18.7561,-2.10456 -52.6535,-6.95579 -109.907,-12.02769 -177.4265,-15.71762 -30.2525,-1.65329 -141.0931,-1.65613 -168.5,-0.004 -84.672,5.1032 -144.4841,12.96531 -203.5,26.74942 -93.3471,21.80275 -156.5497,53.26171 -180.5784,89.88255 -4.0371,6.15267 -6.757,13.04164 -5.6042,14.19441 0.3507,0.35075 5.0975,-3.64284 10.5483,-8.87466 60.9707,-58.52112 221.6289,-94.79731 419.6343,-94.75226 93.7005,0.0213 186.116,7.38876 289.5,23.07919 39.5732,6.00597 96.327,16.14709 101.3525,18.11031 1.5689,0.61288 13.092,11.27813 25.607,23.70056 20.9035,20.74883 28.9411,29.53229 27.93,30.52178 -0.2142,0.20962 -8.7145,-1.61715 -18.8895,-4.05949 -73.3775,-17.61305 -143.0182,-31.03489 -204,-39.31687 -12.375,-1.68066 -25.65,-3.50113 -29.5,-4.0455 -38.2944,-5.41458 -114.5637,-11.7842 -164.4772,-13.73629 -53.8371,-2.10554 -143.9651,-0.0193 -181.0228,4.19017 -2.475,0.28115 -11.475,1.22184 -20,2.09044 -65.9558,6.72014 -127.5553,19.75729 -172.7445,36.56029 -44.1176,16.40452 -73.3176,35.43845 -87.1148,56.78548 -4.84,7.48839 -7.069,13.84376 -8.0161,22.85583 l -0.7084,6.74038 -3.5809,-7 z"
         style="fill:#008bd6;fill-opacity:1"
         inkscape:connector-curvature="0" />
    </g>
  </g>
  <g
     inkscape:groupmode="layer"
     id="layer5"
     inkscape:label="TrademarkMask"
     style="display:none">
    <g
       transform="translate(0,-4.2187501e-6)"
       id="Logo">
      <path
         inkscape:connector-curvature="0"
         style="fill:#ff00ff;fill-opacity:1"
         d="m 1332.2197,595.18037 c 4.2311,5e-5 8.362,1.08567 12.3928,3.25685 4.0306,2.17128 7.1705,5.27781 9.4197,9.31961 2.2492,4.04187 3.3737,8.25629 3.3738,12.64327 -10e-5,4.34249 -1.1079,8.51794 -3.3236,12.52636 -2.2159,4.00844 -5.3224,7.12054 -9.3197,9.33631 -3.9973,2.21577 -8.1783,3.32366 -12.543,3.32366 -4.3648,0 -8.5458,-1.10789 -12.543,-3.32366 -3.9974,-2.21577 -7.1095,-5.32787 -9.3364,-9.33631 -2.2269,-4.00842 -3.3403,-8.18387 -3.3403,-12.52636 0,-4.38698 1.1301,-8.6014 3.3904,-12.64327 2.2603,-4.0418 5.4058,-7.14833 9.4365,-9.31961 4.0307,-2.17118 8.1616,-3.2568 12.3928,-3.25685 l 0,0 z"
         id="TM_BG" />
    </g>
  </g>
  <g
     inkscape:groupmode="layer"
     id="layer4"
     inkscape:label="Trademark"
     style="display:inline">
    <path
       inkscape:connector-curvature="0"
       style="fill:#000000;fill-opacity:1"
       inkscape:label="Trade Mark symbol"
       id="TM"
       d="m 1332.2197,595.18037 c 4.2311,5e-5 8.362,1.08567 12.3928,3.25685 4.0306,2.17128 7.1705,5.27781 9.4197,9.31961 2.2492,4.04187 3.3737,8.25629 3.3738,12.64327 -10e-5,4.34249 -1.1079,8.51794 -3.3236,12.52636 -2.2159,4.00844 -5.3224,7.12054 -9.3197,9.33631 -3.9973,2.21577 -8.1783,3.32366 -12.543,3.32366 -4.3648,0 -8.5458,-1.10789 -12.543,-3.32366 -3.9974,-2.21577 -7.1095,-5.32787 -9.3364,-9.33631 -2.2269,-4.00842 -3.3403,-8.18387 -3.3403,-12.52636 0,-4.38698 1.1301,-8.6014 3.3904,-12.64327 2.2603,-4.0418 5.4058,-7.14833 9.4365,-9.31961 4.0307,-2.17118 8.1616,-3.2568 12.3928,-3.25685 l 0,0 z m 0,4.17545 c -3.5408,5e-5 -6.9869,0.90751 -10.3384,2.7224 -3.3515,1.81497 -5.9737,4.40931 -7.8666,7.78304 -1.8929,3.37379 -2.8393,6.88674 -2.8393,10.53884 0,3.62988 0.9298,7.10942 2.7892,10.43863 1.8595,3.32924 4.4594,5.92359 7.7998,7.78305 3.3403,1.85947 6.8254,2.7892 10.4553,2.7892 3.6298,0 7.1149,-0.92973 10.4553,-2.7892 3.3404,-1.85946 5.9347,-4.45381 7.7831,-7.78305 1.8482,-3.32921 2.7724,-6.80875 2.7724,-10.43863 0,-3.6521 -0.9409,-7.16505 -2.8225,-10.53884 -1.8818,-3.37373 -4.504,-5.96807 -7.8666,-7.78304 -3.3627,-1.81489 -6.8033,-2.72235 -10.3217,-2.7224 l 0,0 z m -11.0566,34.97359 0,-27.12374 9.3196,0 c 3.1844,4e-5 5.4893,0.25057 6.9145,0.75158 1.4252,0.5011 2.561,1.37515 3.4072,2.62219 0.8462,1.2471 1.2693,2.57211 1.2694,3.97503 -10e-5,1.98197 -0.7072,3.70783 -2.1212,5.17756 -1.4141,1.46978 -3.2902,2.29374 -5.6285,2.47187 0.9576,0.40086 1.7258,0.87965 2.3048,1.43635 1.0912,1.06894 2.4274,2.8616 4.0085,5.37798 l 3.3069,5.31118 -5.3445,0 -2.4051,-4.27567 c -1.8929,-3.36261 -3.4183,-5.46703 -4.5763,-6.31328 -0.8017,-0.62351 -1.9708,-0.93527 -3.5074,-0.9353 l -2.572,0 0,11.52425 -4.3759,0 z m 4.3759,-15.26545 5.3112,0 c 2.5386,2e-5 4.27,-0.37855 5.1942,-1.13573 0.9241,-0.75712 1.3862,-1.75922 1.3862,-3.00632 0,-0.80166 -0.2227,-1.51983 -0.668,-2.15454 -0.4455,-0.63463 -1.0634,-1.10785 -1.8539,-1.41965 -0.7906,-0.31173 -2.2548,-0.46762 -4.3926,-0.46765 l -4.9771,0 0,8.18389 z"
       inkscape:export-filename="/run/user/baylyj/gvfs/smb-share:server=mdrake03,share=resource/Logo Files/TipsTrade Vector/TipsTrade Wide.png"
       inkscape:export-xdpi="6.5521822"
       inkscape:export-ydpi="6.5521822" />
  </g>
</svg>
