<?xml version="1.0" encoding="UTF-8"?>
<svg id="Logo" xmlns="http://www.w3.org/2000/svg" width="496.35" height="64.23" viewBox="0 0 496.35 64.23">
  <path d="M217.95,31.28c-2.47-1.86-6.38-2.85-11.7-2.91h-18.3c-2.99-.15-4.92-.44-5.76-.81s-1.27-.99-1.27-1.84.39-1.45,1.2-1.79,2.2-.54,4.2-.54h10.47c2.11,0,3.78.2,5.02.54s2.04.91,2.4,1.6h14.97c-.05-3.7-1.38-6.42-3.98-8.18-2.6-1.78-6.61-2.65-12.03-2.65h-16.96c-7.32,0-12.52.92-15.62,2.76s-4.66,4.85-4.66,9.08c0,3.98,1.45,6.83,4.31,8.49,2.86,1.68,8.03,2.52,15.52,2.53l14.79.25c2.14.12,3.72.41,4.66.91s1.45,1.18,1.45,2.11c0,1.02-.44,1.74-1.33,2.17s-2.44.66-4.62.66h-10.93c-2.85,0-4.9-.26-6.19-.79s-1.93-1.35-1.93-2.5v-.13l-15.86.05h0c.08,4.53,1.61,7.65,4.66,9.43,3.03,1.78,8.82,2.65,17.41,2.65h15.2c6.94,0,11.8-.92,14.53-2.78,2.76-1.86,4.11-5.04,4.11-9.54,0-3.97-1.22-6.85-3.72-8.74h-.05v-.02h0Z" fill="#fff"/>
  <path d="M152.86,17.47c-3.27-1.86-8.95-2.78-17-2.78-6.48,0-11.09.54-13.87,1.66-2.78,1.09-4.33,2.96-4.64,5.56v-6.71h-14.97v49.03h14.97v-18.99c.79,2.4,2.52,4.11,5.18,5.08,2.67.99,7.17,1.45,13.56,1.45,7.62,0,13.13-1,16.54-3.03,3.41-2.02,5.12-5.23,5.12-9.69v-12.09c0-4.46-1.65-7.62-4.9-9.48h0l.02-.02h0ZM142.82,35.57c0,2.24-.72,3.8-2.17,4.77s-3.87,1.42-7.26,1.42h-6.78c-3.6,0-6.09-.46-7.44-1.38-1.35-.92-2.04-2.6-2.04-5.04v-4.43c0-2.24.72-3.8,2.14-4.76s3.87-1.38,7.32-1.38h6.78c3.47,0,5.91.46,7.32,1.4,1.4.94,2.11,2.53,2.11,4.79v4.57h0l.02.03h0Z" fill="#fff"/>
  <rect x="75.42" y="15.15" width="14.97" height="36.64" fill="#fff"/>
  <polygon points="0 12.7 24.59 12.7 24.59 51.83 42.51 51.83 42.51 12.7 67.1 12.7 67.1 0 0 0 0 12.7" fill="#fff"/>
  <rect x="75.42" width="14.97" height="10.76" fill="#fff"/>
  <polygon points="285.9 6.45 285.9 .74 220.5 .74 220.5 6.45 249.56 6.45 249.56 52.09 256.85 52.09 256.85 6.45 285.9 6.45" fill="#fff"/>
  <path d="M309.15,17.54c-2.83-1.84-7.72-2.73-14.68-2.73-5.2,0-9.02.46-11.47,1.4-2.45.92-4.36,2.53-5.69,4.82v-5.36h-6.35v35.92h6.65v-22.51c0-3.13,1.2-5.38,3.64-6.78,2.4-1.4,6.29-2.11,11.62-2.11,5.79,0,9.64.54,11.55,1.61,1.91,1.07,2.86,3.26,2.86,6.48v3.39h6.06v-4.79c0-4.39-1.4-7.5-4.23-9.31h.02l.03-.03h0Z" fill="#fff"/>
  <path d="M366.29,18.01c-2.99-2.14-7.65-3.24-14.05-3.24h-11.86c-6.24,0-10.74.84-13.49,2.47-2.78,1.65-4.16,4.31-4.16,7.98v.99h6.89v-1.07c0-1.94.71-3.26,2.12-3.93s4.64-.99,9.68-.99h9.77c5.13,0,8.64.59,10.53,1.78,1.86,1.18,2.8,3.32,2.8,6.38v4.97c-1.4-1.48-3.26-2.58-5.51-3.27-2.27-.67-5.12-1.02-8.57-1.02h-11.55c-6.96,0-11.86.84-14.68,2.52-2.85,1.68-4.25,4.57-4.25,8.69,0,4.36,1.42,7.42,4.26,9.17,2.85,1.74,7.78,2.63,14.84,2.63h10.96c4.33,0,7.57-.41,9.71-1.2,2.14-.81,3.74-2.14,4.82-4.06v4.79h6.25v-23.48c0-4.59-1.48-7.96-4.49-10.14v.05h-.02v-.02ZM361.37,45.69c-1.84.71-5.45,1.05-10.79,1.05h-9.87c-5.96,0-9.71-.44-11.27-1.28-1.58-.86-2.34-2.67-2.34-5.45,0-2.37.84-3.97,2.5-4.77,1.68-.84,5.36-1.22,11.12-1.22h9.87c5.27,0,8.84.35,10.73,1.07s2.83,1.94,2.83,3.72v3.18h0c0,1.78-.92,3.03-2.76,3.72h0s-.02-.02-.02-.02Z" fill="#fff"/>
  <path d="M426.78,19.86c-1.4-1.74-3.14-3.03-5.2-3.85-2.07-.84-4.64-1.22-7.72-1.22h-12.65c-7.01,0-12.06,1.2-15.14,3.6-3.06,2.39-4.59,6.38-4.59,11.95v5.69c0,5.79,1.53,9.91,4.56,12.36s8.1,3.67,15.19,3.67h10.96c4.57,0,7.96-.51,10.2-1.46s3.9-2.63,5.04-4.95v5.92h5.71V.26h-6.35v19.6h.02-.03ZM426.86,35.41c0,4.46-.99,7.45-2.93,9-1.94,1.53-5.91,2.32-11.9,2.32h-9.21c-5.97,0-9.94-.77-11.9-2.32-1.94-1.53-2.93-4.53-2.93-9v-4.31c0-4.33.99-7.24,2.96-8.74,1.97-1.51,5.92-2.25,11.88-2.25h9.21c5.96,0,9.91.74,11.88,2.25s2.96,4.43,2.96,8.74v4.31h-.03,0Z" fill="#fff"/>
  <path d="M489.57,40.49v.38c0,2.07-1.09,3.64-3.26,4.64-2.17.99-5.56,1.51-10.14,1.51h-10.73c-5.25,0-8.93-.74-11.02-2.27-2.12-1.53-3.18-4.18-3.18-8.03v-1.97l45.05-.05c.05-.33.05-.67.05-1.07v-1.73c0-6.35-1.53-10.76-4.57-13.3-3.04-2.53-8.42-3.8-16.17-3.8h-10.27c-7.45,0-12.79,1.2-15.94,3.64s-4.76,6.48-4.76,12.19v5.79c0,5.59,1.6,9.63,4.79,12.03s8.49,3.64,15.91,3.64h12.34c6.1,0,10.74-.91,13.92-2.7,3.18-1.81,4.76-4.44,4.76-7.95v-.92h-6.78v-.03h0ZM454.36,22.18c2.07-1.42,5.71-2.12,10.89-2.12h10.22c5.59,0,9.31.61,11.21,1.84,1.88,1.2,2.83,3.46,2.83,6.7v.86h-38.24c0-3.41,1.05-5.84,3.11-7.24h0l-.02-.03h0Z" fill="#fff"/>
</svg>