<?xml version="1.0" encoding="UTF-8"?>
<svg id="Layer_1" xmlns="http://www.w3.org/2000/svg" width="1000mm" height="129.3mm" version="1.1" viewBox="0 0 2834.6 366.4">
  <!-- Generator: Adobe Illustrator 29.3.1, SVG Export Plug-In . SVG Version: 2.1.0 Build 151)  -->
  <defs>
    <style>
      .st0 {
        fill: #fff;
      }
    </style>
  </defs>
  <path id="b" class="st0" d="M13.8,177.3c-5.5-10.5-10.1-25.6-12.2-37.8-4.2-26.9,0-51.3,13.9-71.9C52.4,11.2,148.3-12.7,260.1,6.6c29,5,62.2,13.9,89.1,24,33.2,12.2,62.2,26.9,90.8,44.6,8.4,5.5,10.5,7.1,10.1,7.1,0,0-5-.4-10.5-1.3-29.9-3.8-62.2-6.7-100.5-8.8-17.2-.8-79.9-.8-95.4,0-47.9,2.9-82,7.1-115.2,15.1-53,12.2-88.7,30.3-102.2,50.9-2.5,3.4-3.8,7.1-3.4,8,0,0,2.9-2.1,5.9-5,34.5-33.2,125.7-53.8,238-53.8s164,13,164,13c0,0,54.7,9.3,57.6,10.1.8,0,7.6,6.3,14.3,13.5,11.8,11.8,16.4,16.8,16,17.2,0,0-5-.8-10.5-2.5-41.6-10.1-81.1-17.7-115.6-22.3-7.1-.8-14.7-2.1-16.8-2.5-21.9-2.9-64.8-6.7-93.3-8-30.7-1.3-81.6,0-102.6,2.5-1.3,0-6.3.8-11.4,1.3-37.4,3.8-72.3,11.4-98,20.6-24.8,9.3-41.6,20.2-49.6,32.4-2.9,4.2-4.2,8-4.6,13v3.8l-2.5-3.8h0v1.7Z"/>
  <g>
    <g>
      <path class="st0" d="M563.3,250.5c-1.7-1.3-37-14.7-61-23.1-42.5-14.7-88.3-27.8-129.9-37-19.8-4.2-26.1-5.5-26.9-5.5-1.3,0-1.3,179.5,0,180,0,0,4.2.4,8,.8,62.6,3.8,119-7.6,157.3-31.1,13-8.4,27.8-21.4,34.9-32,9.7-13.5,15.6-29,17.7-45,.8-5.5.4-6.3,0-7.1h0Z"/>
      <path class="st0" d="M193.7,166c-15.1-.8-59.3-.8-72.7,0-46.3,2.5-80.3,9.3-96.7,18.9q-5.9,3.4-4.2,6.3c3.4,6.7,15.1,23.1,24,33.6,17.2,19.8,39.1,39.5,64.3,56.8,31.1,21.4,67.7,40.4,107.2,55.1,5.5,2.1,10.1,3.8,10.9,3.8h1.3v-85.4c0-58,0-85.8-.4-85.8-.8-.4-17.7-1.7-33.6-2.5h0v-.8Z"/>
    </g>
    <g id="c">
      <g id="d">
        <path class="st0" d="M559.5,321.5c3.4,0,6.7.8,10.1,2.5s5.9,4.2,7.6,7.6c1.7,3.4,2.5,6.7,2.5,10.1s-.8,7.1-2.5,10.1-4.2,5.9-7.6,7.6-6.7,2.5-10.1,2.5-7.1-.8-10.1-2.5c-3.4-1.7-5.9-4.2-7.6-7.6-1.7-3.4-2.5-6.7-2.5-10.1s.8-7.1,2.5-10.1,4.2-5.9,7.6-7.6,6.7-2.5,10.1-2.5h0ZM559.5,324.9c-2.9,0-5.9.8-8.4,2.1s-5,3.8-6.3,6.3-2.5,5.5-2.5,8.8.8,5.9,2.1,8.4,3.8,5,6.3,6.3,5.5,2.1,8.4,2.1,5.9-.8,8.4-2.1,5-3.8,6.3-6.3,2.1-5.5,2.1-8.4-.8-5.9-2.5-8.8-3.8-5-6.3-6.3-5.5-2.1-8.4-2.1h.8ZM550.3,353.5v-22.3h7.6c2.5,0,4.6,0,5.5.4,1.3,0,2.1,1.3,2.5,2.1s1.3,2.1,1.3,3.4-.4,2.9-1.7,4.2-2.5,1.7-4.6,2.1c.8,0,1.3.8,1.7,1.3.8.8,2.1,2.5,3.4,4.2l2.5,4.2h-4.2l-2.1-3.4c-1.3-2.5-2.5-4.2-3.8-5-.4-.4-1.7-.8-2.9-.8h-2.1v9.3h-3.4l.4.4ZM554,341.3h4.2c2.1,0,3.4,0,4.2-.8.8-.4,1.3-1.3,1.3-2.5s0-1.3-.4-1.7-.8-.8-1.3-1.3h-8v6.7h0v-.4Z"/>
      </g>
    </g>
  </g>
  <g>
    <path class="st0" d="M1604.4,196.7c-10.9-8.4-28.2-12.6-51.7-13h-80.7c-13.5-.8-21.9-2.1-25.2-3.8s-5.5-4.2-5.5-8,1.7-6.3,5.5-8,9.7-2.5,18.5-2.5h46.3c9.3,0,16.8.8,22.3,2.5s8.8,3.8,10.5,7.1h66c0-16.4-5.9-28.2-17.7-36.2-11.4-8-29-11.8-53-11.8h-74.8c-32.4,0-55.5,4.2-69,12.2-13.5,8-20.6,21.4-20.6,39.9s6.3,30.3,18.9,37.4c12.6,7.6,35.3,10.9,68.5,11.4l65.2,1.3c9.7.4,16.4,1.7,20.6,3.8s6.3,5,6.3,9.3-2.1,7.6-5.9,9.7-10.9,2.9-20.6,2.9h-48.4c-12.6,0-21.9-1.3-27.3-3.4s-8.4-5.9-8.4-10.9h0c0-.4-70.2,0-70.2,0h0c0,20.2,7.1,33.6,20.6,41.6,13.5,8,39.1,11.8,76.9,11.8h67.3c30.7,0,52.1-4.2,64.3-12.2,12.2-8.4,18.1-22.3,18.1-42s-5.5-30.3-16.4-38.7h0l-.4-.4Z"/>
    <path class="st0" d="M1316.8,135.7c-14.3-8.4-39.5-12.2-75.3-12.2s-49.2,2.5-61.4,7.1c-12.2,4.6-19.3,13-20.6,24.4v-29.9h-66v216.5h66v-84.1c3.4,10.5,10.9,18.1,22.7,22.3s31.5,6.3,60.1,6.3,58-4.6,73.2-13.5,22.7-23.1,22.7-42.9v-53.4c0-19.8-7.1-33.6-21.9-42h0l.4,1.3ZM1272.6,215.6c0,9.7-3.4,16.8-9.7,21-6.3,4.2-17.2,6.3-32,6.3h-29.9c-16,0-26.9-2.1-32.8-5.9s-8.8-11.4-8.8-22.3v-19.3c0-9.7,3.4-16.8,9.7-21s17.2-5.9,32.4-5.9h29.9c15.6,0,26.1,2.1,32.4,6.3s9.3,11.4,9.3,21v20.2h0l-.4-.4Z"/>
    <rect class="st0" x="974.5" y="125.2" width="66" height="161.9"/>
    <polygon class="st0" points="641.5 114.2 750 114.2 750 287.5 829.5 287.5 829.5 114.2 937.9 114.2 937.9 58.3 641.5 58.3 641.5 114.2"/>
    <rect class="st0" x="974.5" y="58.3" width="66" height="47.5"/>
  </g>
  <g>
    <polygon class="st0" points="1904.6 86.9 1904.6 61.7 1615.7 61.7 1615.7 86.9 1744.4 86.9 1744.4 288.3 1776.3 288.3 1776.3 86.9 1904.6 86.9"/>
    <path class="st0" d="M2007.6,135.7c-12.6-8-34.1-12.2-64.8-12.2s-39.9,2.1-50.5,6.3c-10.9,4.2-19.3,11.4-25.2,21.4v-23.5h-28.2v158.9h29.4v-99.7c0-13.9,5.5-24,16-29.9,10.5-6.3,27.8-9.3,51.3-9.3s42.5,2.5,50.9,7.1,12.6,14.3,12.6,28.6v15.1h26.9v-21c0-19.3-6.3-33.2-18.5-41.2h0v-.8Z"/>
    <path class="st0" d="M2259.9,137.8c-13.5-9.7-33.6-14.3-62.2-14.3h-52.6c-27.8,0-47.5,3.8-59.7,10.9-12.2,7.1-18.5,18.9-18.5,35.3v4.2h30.3v-4.6c0-8.4,2.9-14.3,9.3-17.2,6.3-2.9,20.6-4.2,42.9-4.2h43.3c22.7,0,38.3,2.5,46.7,8,8.4,5,12.2,14.7,12.2,28.2v21.9c-6.3-6.7-14.3-11.4-24.4-14.3-10.1-2.9-22.7-4.6-37.8-4.6h-50.9c-30.7,0-52.6,3.8-64.8,10.9-12.6,7.6-18.9,20.2-18.9,38.3s6.3,32.8,18.9,40.4c12.6,7.6,34.5,11.8,65.6,11.8h48.4c19.3,0,33.6-1.7,42.9-5.5,9.7-3.8,16.4-9.7,21.4-18.1v21h27.8v-103.9c0-20.2-6.7-35.3-19.8-44.6h0v.4ZM2238.4,260.1c-8,2.9-24,4.6-47.5,4.6h-43.7c-26.5,0-42.9-2.1-49.6-5.9-7.1-3.8-10.5-11.8-10.5-24s3.8-17.7,10.9-21c7.6-3.8,23.5-5.5,49.2-5.5h43.7c23.1,0,39.1,1.7,47.5,4.6s12.6,8.4,12.6,16.4v13.9h0c0,8-4.2,13.5-12.2,16.4h0l-.4.4Z"/>
    <path class="st0" d="M2527.3,146.2c-6.3-7.6-13.9-13.5-23.1-16.8-9.3-3.8-20.6-5.5-34.1-5.5h-55.9c-31.1,0-53.4,5.5-66.9,16-13.5,10.5-20.2,28.2-20.2,53v25.2c0,25.6,6.7,43.7,20.2,54.7s35.7,16.4,67.3,16.4h48.4c20.2,0,35.3-2.1,45-6.3s17.2-11.8,22.3-21.9v26.1h25.2V59.6h-28.2v86.6h0ZM2527.7,214.7c0,19.8-4.2,32.8-13,39.9-8.4,6.7-26.1,10.1-52.6,10.1h-40.8c-26.5,0-43.7-3.4-52.6-10.1-8.4-6.7-13-20.2-13-39.9v-18.9c0-19.3,4.2-32,13-38.7,8.8-6.7,26.1-10.1,52.6-10.1h40.8c26.5,0,43.7,3.4,52.6,10.1s13,19.3,13,38.7v18.9h0Z"/>
    <path class="st0" d="M2804.8,237v1.7c0,9.3-4.6,16-14.3,20.6-9.7,4.2-24.4,6.7-44.6,6.7h-47.5c-23.1,0-39.5-3.4-48.8-10.1-9.3-6.7-13.9-18.5-13.9-35.3v-8.8h198.9v-12.6c0-28.2-6.7-47.5-20.2-58.9-13.5-11.4-37.4-16.8-71.5-16.8h-45.4c-32.8,0-56.3,5.5-70.6,16-13.9,10.9-21,28.6-21,53.8v25.6c0,24.8,7.1,42.5,21,53,13.9,10.5,37.4,16,70.2,16h54.7c26.9,0,47.5-3.8,61.4-11.8,13.9-8,21-19.8,21-34.9v-4.2h-29.9.4ZM2649.2,156.3c9.3-6.3,25.2-9.3,48.4-9.3h45c24.8,0,41.2,2.5,49.6,8,8.4,5.5,12.6,15.1,12.6,29.4v3.8h-169c0-15.1,4.6-25.6,13.9-32h-.4Z"/>
  </g>
</svg>