<?xml version="1.0" encoding="utf-8"?>
<!-- Generator: Adobe Illustrator 19.0.0, SVG Export Plug-In . SVG Version: 6.00 Build 0)  -->
<svg version="1.1" id="Re-edit_1_" xmlns="http://www.w3.org/2000/svg" xmlns:xlink="http://www.w3.org/1999/xlink" x="0px" y="0px"
	 viewBox="10 332.9 631.9 129.1" style="enable-background:new 10 332.9 631.9 129.1;" xml:space="preserve">
<style type="text/css">
	.st0{fill:url(#SVGID_1_);}
	.st1{fill:url(#SVGID_2_);}
	.st2{fill:url(#SVGID_3_);}
	.st3{fill:url(#SVGID_4_);}
	.st4{fill:url(#SVGID_5_);}
	.st5{fill:url(#SVGID_6_);}
	.st6{fill:url(#SVGID_7_);}
	.st7{fill:url(#SVGID_8_);}
	.st8{fill:url(#SVGID_9_);}
	.st9{fill:url(#SVGID_10_);}
	.st10{fill:url(#SVGID_11_);}
	.st11{fill:url(#SVGID_12_);}
	.st12{fill:url(#SVGID_13_);}
</style>
<g>
	
		<linearGradient id="SVGID_1_" gradientUnits="userSpaceOnUse" x1="438.3263" y1="499.639" x2="632.3263" y2="360.639" gradientTransform="matrix(1 0 0 -1 0 797.8)">
		<stop  offset="0" style="stop-color:#1593FF"/>
		<stop  offset="1" style="stop-color:#0051BF"/>
	</linearGradient>
	<path class="st0" d="M577.1,412.8c0.4,3.7,2.2,5.8,6,6.4c4.8,0.7,9.6,0.7,14.4-0.1c3.7-0.6,4.7-1.9,5.1-5.7c0-0.1,0.1-0.2,0.1-0.4
		c1.7,0,3.5,0,5.2,0c0.1,0.5,0.2,1,0.2,1.5c0,2.7-1.4,5.1-4,6.6c-2.4,1.4-5,2-7.7,2.1c-4.4,0.2-8.9,0.1-13.3,0c-1.5,0-3.1-0.5-4.6-1
		c-3.5-1.2-5.7-3.8-6.3-7.3c-0.9-5.1-0.9-10.4-0.1-15.5c0.8-5.2,4.3-8,9.3-9c4.4-0.9,8.9-0.5,13.3-0.4c2.2,0.1,4.4,0.6,6.5,1.3
		c4.6,1.6,6.9,5.2,7,10c0,2,0,4.1,0,6.3c-0.6,0-1.1,0-1.6,0c-9.3,0-18.6,0-28,0c-1.5,0-1.5,0-1.5,1.5
		C577.1,410.4,577,411.6,577.1,412.8z M602.5,403.7c0-1.1,0.1-2.2,0-3.2c-0.4-3.8-1.7-5.5-5.3-6.1c-4.7-0.8-9.6-0.7-14.3,0
		c-2.7,0.3-4.6,1.9-5.2,4.6c-0.3,1.1-0.3,2.4-0.5,3.5c-0.2,1,0.2,1.3,1.2,1.3c7.7,0,15.4,0,23,0C601.7,403.8,602,403.8,602.5,403.7z
		"/>
	
		<linearGradient id="SVGID_2_" gradientUnits="userSpaceOnUse" x1="427.6494" y1="484.7375" x2="621.6495" y2="345.7375" gradientTransform="matrix(1 0 0 -1 0 797.8)">
		<stop  offset="0" style="stop-color:#1593FF"/>
		<stop  offset="1" style="stop-color:#0051BF"/>
	</linearGradient>
	<path class="st1" d="M535.1,390.6c5.8-1,11.7-0.9,17.5-0.1c2.3,0.3,4.3,1.4,5.7,3.3c0.1,0,0.2-0.1,0.3-0.1c0-5.7,0-11.4,0-17.2
		c2,0,3.9,0,5.9,0c0,0.4,0.1,0.8,0.1,1.2c0,14.8,0,29.6,0,44.5c0,1-0.3,1.3-1.3,1.3c-1.3-0.1-2.5,0-3.8,0c-0.7,0-0.9-0.2-0.9-0.9
		c0-0.8,0-1.6,0-2.5c-0.2,0-0.3,0-0.3,0c-2.6,2.5-5.8,3.2-9.2,3.4c-4.7,0.2-9.4,0.4-14-0.5c-6.4-1.2-10.4-5.9-10.5-12.5
		c-0.1-3-0.2-6,0.2-8.9C525.5,394.3,530.1,391.4,535.1,390.6z M536.8,418.8c5,1.2,10.1,1.2,15.1,0c4.1-0.9,6.3-3.8,6.6-7.9
		c0.2-2.9,0.2-5.9,0-8.8c-0.2-4.1-2.4-6.7-6.5-7.5c-2.4-0.5-4.9-0.6-6.8-0.8c-2.6,0.2-4.7,0.3-6.8,0.5c-4.8,0.6-7.6,3.4-7.9,8.1
		c-0.2,2.9-0.2,5.8,0,8.7C530.7,415.3,532.8,417.9,536.8,418.8z"/>
	
		<linearGradient id="SVGID_3_" gradientUnits="userSpaceOnUse" x1="407.4504" y1="456.546" x2="601.4504" y2="317.546" gradientTransform="matrix(1 0 0 -1 0 797.8)">
		<stop  offset="0" style="stop-color:#1593FF"/>
		<stop  offset="1" style="stop-color:#0051BF"/>
	</linearGradient>
	<path class="st2" d="M489.1,403.4c5.6-0.6,11.3-0.7,16.9,0.2c1.4,0.2,2.8,1.1,4.2,1.7c0.2,0.1,0.4,0.2,1,0.6
		c-0.1-3-0.1-5.8-0.5-8.5c-0.3-1.9-2-2.9-3.8-3.1c-5.4-0.8-10.7-0.7-16.1,0c-1.9,0.3-3.2,1.3-3.4,3.4c0,0.2-0.4,0.7-0.6,0.7
		c-1.7,0.1-3.5,0-5.3,0c-0.2-2.4,0.6-4.3,2.3-5.8c1.8-1.7,4.1-2.4,6.5-2.4c5.6-0.1,11.1-0.2,16.7,0c1.8,0.1,3.7,0.7,5.4,1.5
		c2.9,1.4,4.5,3.8,4.5,7.2c0,7.8,0,15.5,0,23.3c0,0.8-0.2,1.2-1.1,1.1c-1.5-0.1-3.1,0-4.8,0c0-0.9,0-1.7,0-2.6
		c-3.1,2.5-6.6,2.5-10.1,2.6c-3,0-6,0.1-9-0.1c-2-0.1-4-0.5-5.8-1.2c-3.3-1.1-5.3-3.5-5.6-7.1c-0.2-3-0.2-5.8,1.9-8.2
		C484.2,404.8,486.5,403.7,489.1,403.4z M498.1,419.7c2.9-0.2,5.3-0.3,7.8-0.6c2.2-0.3,4-1.4,4.6-3.6c1-3.8,0-7.4-4.8-8
		c-4-0.4-8.1-0.3-12.1-0.4c-1.1,0-2.2,0.2-3.3,0.5c-2.9,0.7-4.1,2.5-4.1,5.6c0,3.2,1.2,5.1,4.1,5.7
		C493,419.4,495.7,419.5,498.1,419.7z"/>
	
		<linearGradient id="SVGID_4_" gradientUnits="userSpaceOnUse" x1="391.6359" y1="434.474" x2="585.6358" y2="295.474" gradientTransform="matrix(1 0 0 -1 0 797.8)">
		<stop  offset="0" style="stop-color:#1593FF"/>
		<stop  offset="1" style="stop-color:#0051BF"/>
	</linearGradient>
	<path class="st3" d="M438.3,390.1c1.1,0.1,2.2,0.1,3.3,0c1-0.1,1.5,0.2,1.4,1.3c-0.1,0.8,0,1.6,0,2.5c0.3-0.1,0.4-0.1,0.5-0.1
		c2.5-2.5,5.7-3.4,9-3.5c4.4-0.1,8.7,0.1,13.1,0.4c1.5,0.1,3.1,0.8,4.5,1.4c3.9,1.8,5.6,5,5.8,9.1c0.1,2.4,0.1,2.4-2.3,2.4
		c-1.1,0-2.2,0-3.4,0c-0.1-1-0.2-1.8-0.3-2.7c-0.4-3.5-2.1-5.7-5.5-6.4c-4.8-1.1-9.7-1.1-14.5,0.2c-4.5,1.2-6.8,4.4-6.8,9
		c0,6.2,0,12.4,0,18.6c0,1-0.2,1.4-1.3,1.3c-1.5-0.1-3,0-4.7,0c0-0.5,0-0.8,0-1.1c0-10.3,0-20.7,0-31
		C437.1,390.4,437.3,390.1,438.3,390.1z"/>
	
		<linearGradient id="SVGID_5_" gradientUnits="userSpaceOnUse" x1="386.1864" y1="426.8681" x2="580.1864" y2="287.8681" gradientTransform="matrix(1 0 0 -1 0 797.8)">
		<stop  offset="0" style="stop-color:#1593FF"/>
		<stop  offset="1" style="stop-color:#0051BF"/>
	</linearGradient>
	<path class="st4" d="M393.3,376.5c15.2,0,30.4,0,45.6,0c1.4,0,1.4,0,1.4,1.4c0,1,0,2,0,3.2c-0.5,0-0.9,0-1.3,0
		c-6.1,0-12.3,0-18.5,0c-1.1,0-1.4,0.2-1.4,1.4c0,13.1,0,26.3,0,39.4c0,0.5,0,0.9,0,1.6c-1.8,0-3.6,0-5.4,0c-0.2,0-0.4-0.3-0.5-0.6
		c-0.1-0.3,0-0.7,0-1.1c0-13,0-26,0-39c0-0.5,0-1.1-0.1-1.7c-7.1,0-14.1,0-21.2,0c0-1.5,0-2.8,0-4.2c0-0.2,0.3-0.4,0.5-0.4
		C392.7,376.5,393,376.5,393.3,376.5z"/>
	
		<linearGradient id="SVGID_6_" gradientUnits="userSpaceOnUse" x1="359.1526" y1="470.6075" x2="374.1526" y2="384.1075" gradientTransform="matrix(1 0 0 -1 0 797.8)">
		<stop  offset="0" style="stop-color:#3F3F3F"/>
		<stop  offset="1" style="stop-color:#0A0A0A"/>
	</linearGradient>
	<path class="st5" d="M368.9,401.8c4,0.2,7.9,0.2,11.9,0.5c2.5,0.2,5.1,0.7,7.4,1.5c3.6,1.2,5.1,3.6,5,7.4c0,1.3,0,2.7-0.2,4
		c-0.4,2.8-1.9,4.7-4.4,5.9c-2.4,1.1-5,1.7-7.6,1.7c-5.3,0.1-10.7,0.1-16,0c-2.9-0.1-5.7-0.7-8.3-2.2c-3.2-1.8-4.8-4.8-4.3-8.3
		c3.9,0,7.8,0,11.7,0c0.4,2.2,1.2,3,4,3.1c3.2,0.1,6.3,0.1,9.5,0c0.5,0,0.9-0.2,1.4-0.3c1.1-0.3,1.5-1.2,1.6-2.2s-0.3-1.9-1.3-2.3
		c-0.9-0.3-1.8-0.6-2.7-0.6c-4-0.2-8.1-0.3-12.1-0.5c-2.6-0.1-5.1-0.6-7.5-1.7c-2.9-1.2-4.3-3.5-4.4-6.5c0-1.3-0.1-2.7,0.1-4
		c0.4-3.2,2.3-5.3,5.2-6.5c2.6-1.1,5.3-1.6,8.1-1.7c5.3-0.1,10.6-0.1,15.9,0.2c2.2,0.1,4.5,0.8,6.6,1.6c3.7,1.5,5.1,4.4,4.6,8.5
		c-4.2,0-8.3,0-12.5,0c0.1-2.2-1.5-2.7-3.1-2.7c-3.5-0.1-7.1-0.1-10.6,0c-1.2,0-2.3,0.4-2.6,1.8c-0.3,1.3,0.2,2.3,1.4,2.6
		C366.7,401.5,367.8,401.7,368.9,401.8z"/>
	
		<linearGradient id="SVGID_7_" gradientUnits="userSpaceOnUse" x1="306.2768" y1="461.4382" x2="321.2768" y2="374.9382" gradientTransform="matrix(1 0 0 -1 0 797.8)">
		<stop  offset="0" style="stop-color:#3F3F3F"/>
		<stop  offset="1" style="stop-color:#0A0A0A"/>
	</linearGradient>
	<path class="st6" d="M320.8,414.9c1.3,0,2.5,0.1,3.8,0c4-0.2,6-1.9,6.3-5.6c0.2-2.1,0.2-4.3,0-6.4c-0.3-3.4-2.1-5.2-5.5-5.5
		c-2.9-0.3-5.8-0.4-8.7-0.2c-3.6,0.3-6.6,2.9-6.3,7.1c0.1,1.3,0,2.5,0,3.8c0,3.4,1.9,5.9,5.2,6.5c1.7,0.3,3.4,0.3,5.1,0.4
		C320.8,415,320.8,415,320.8,414.9z M321.3,389.3c4.5,0,9-0.3,13.5,0.7c0.6,0.1,1.3,0.3,1.9,0.5c4.7,1.5,7.8,4.5,8.2,9.5
		c0.3,4.4,0.3,8.8-0.1,13.2c-0.4,4.2-3,7-7,8.3c-2.4,0.7-5,1.3-7.5,1.4c-4.1,0.2-8.2,0.1-12.3-0.2c-3.1-0.2-5.8-1.7-7.7-4.2
		c-0.1-0.1-0.2-0.1-0.4-0.2c0,6.1,0,12.1,0,18.2c-4.7,0-9.3,0-13.9,0c0-15.6,0-31.2,0-46.8c4.6,0,9.2,0,13.9,0c0,1.3,0,2.6,0,4.1
		c0.5-0.3,0.8-0.5,1.1-0.7C313.9,390.5,317.4,389.3,321.3,389.3z"/>
	
		<linearGradient id="SVGID_8_" gradientUnits="userSpaceOnUse" x1="274.341" y1="455.9003" x2="289.341" y2="369.4003" gradientTransform="matrix(1 0 0 -1 0 797.8)">
		<stop  offset="0" style="stop-color:#3F3F3F"/>
		<stop  offset="1" style="stop-color:#0A0A0A"/>
	</linearGradient>
	<path class="st7" d="M287.9,375.9c0,3,0,5.8,0,8.8c-4.6,0-9.2,0-13.8,0c0-2.9,0-5.8,0-8.8C278.7,375.9,283.3,375.9,287.9,375.9z"/>
	
		<linearGradient id="SVGID_9_" gradientUnits="userSpaceOnUse" x1="269.9808" y1="455.1442" x2="284.9808" y2="368.6442" gradientTransform="matrix(1 0 0 -1 0 797.8)">
		<stop  offset="0" style="stop-color:#3F3F3F"/>
		<stop  offset="1" style="stop-color:#0A0A0A"/>
	</linearGradient>
	<path class="st8" d="M287.9,389.5c0,11.1,0,22.2,0,33.4c-4.6,0-9.2,0-13.8,0c0-11.1,0-22.2,0-33.4
		C278.7,389.5,283.2,389.5,287.9,389.5z"/>
	
		<linearGradient id="SVGID_10_" gradientUnits="userSpaceOnUse" x1="235.3696" y1="449.1422" x2="250.3696" y2="362.6422" gradientTransform="matrix(1 0 0 -1 0 797.8)">
		<stop  offset="0" style="stop-color:#3F3F3F"/>
		<stop  offset="1" style="stop-color:#0A0A0A"/>
	</linearGradient>
	<path class="st9" d="M266,375.9c0,3,0,6.1,0,9.2c-6,0-11.9,0-18,0c0,12.6,0,25.2,0,37.8c-4.7,0-9.3,0-14,0c0-12.5,0-25.1,0-37.7
		c-6.2,0-12.1,0-18.2,0c0-3.2,0-6.2,0-9.3C232.5,375.9,249.2,375.9,266,375.9z"/>
	
		<linearGradient id="SVGID_11_" gradientUnits="userSpaceOnUse" x1="30.1864" y1="388.2424" x2="287.1864" y2="349.2424" gradientTransform="matrix(1 0 0 -1 0 797.8)">
		<stop  offset="0" style="stop-color:#3F3F3F"/>
		<stop  offset="1" style="stop-color:#0A0A0A"/>
	</linearGradient>
	<path class="st10" d="M214.8,420.7c-1.2,8.6-5.4,15.5-12,21c-6.6,5.6-14.3,8.9-22.6,11.1c-11.4,3-23,3.7-34.7,3
		c-1.3-0.1-1.4-0.2-1.4-1.6c0-9.1,0-18.2,0-27.3c0,0,0,0-0.1,0c0-9.1,0-18.1,0-27.2c0-1.5,0.1-1.6,1.6-1.4
		c18.5,3.1,36.4,8.6,53.9,15.1c4.7,1.7,9.4,3.7,14.1,5.5C214.7,419.3,214.9,419.8,214.8,420.7z"/>
	
		<linearGradient id="SVGID_12_" gradientUnits="userSpaceOnUse" x1="33.2" y1="429.45" x2="201.6" y2="429.45" gradientTransform="matrix(1 0 0 -1 0 797.8)">
		<stop  offset="0" style="stop-color:#1593FF"/>
		<stop  offset="1" style="stop-color:#0051BF"/>
	</linearGradient>
	<path class="st11" d="M105,339.4c22.5,1.8,43.6,8.3,63.3,19.1c3.7,2,7.2,4.3,10.7,6.5c0.2,0.1,0.4,0.3,0.7,0.5c0,0.1,0,0.2-0.1,0.3
		c-2-0.3-4.1-0.5-6.1-0.8c-18.5-2.3-37.1-3.4-55.7-2.9c-7.8,0.2-15.7,0.6-23.4,1.4c-12.8,1.3-25.3,3.8-37.1,9.1
		c-4.7,2.1-9,4.7-12.6,8.4c-0.9,0.9-1.6,1.9-2.3,3.1c0.1,0,0.2,0,0.3-0.1c5-4.3,11-6.8,17.1-9c8-2.8,16.3-4.6,24.7-5.7
		c16.8-2.2,33.7-2.2,50.6-1.2c17,1,33.9,2.9,50.8,5.6c1.8,0.3,3.6,0.7,5.4,1.2c0.4,0.1,0.7,0.3,1,0.6c2.9,2.9,5.8,5.9,8.6,8.8
		c0.2,0.2,0.3,0.5,0.7,1c-0.7-0.2-1.1-0.2-1.5-0.4c-10.6-2.9-21.2-5.5-32-7.3c-8.6-1.4-17.2-2.5-25.9-3.5c-13.6-1.5-27.2-2-40.8-1.5
		c-15,0.6-29.7,2.5-43.9,7.6c-4.4,1.6-8.5,3.6-12.2,6.4c-2.3,1.8-4.4,3.8-5.6,6.5c-0.7,1.5-1,3.1-1.5,4.7c0,0-0.1,0-0.1-0.1
		c-3-6-4.9-12.2-4.9-18.8c0-0.7,0-1.4,0.1-2.1c0.6-10,5.2-17.9,12.9-24.1c6.4-5.1,13.7-8.3,21.5-10.4c8.8-2.4,17.6-3.4,26.6-3.4
		C97.8,338.9,101.4,339.1,105,339.4z"/>
	
		<linearGradient id="SVGID_13_" gradientUnits="userSpaceOnUse" x1="30.3257" y1="389.1603" x2="287.3257" y2="350.1603" gradientTransform="matrix(1 0 0 -1 0 797.8)">
		<stop  offset="0" style="stop-color:#3F3F3F"/>
		<stop  offset="1" style="stop-color:#0A0A0A"/>
	</linearGradient>
	<path class="st12" d="M105,392.4c1,0,1.4,0.5,1.4,1.5c0,8.8,0,17.6,0,26.4l0,0c0,8.7,0,17.5,0,26.2c0,1.3-0.1,1.4-1.3,1
		c-18.1-6.2-34.8-15-49.2-27.9c-6.1-5.5-11.5-11.6-15.8-18.7c-0.9-1.4-0.9-1.9,0.6-2.6c2.7-1.2,5.5-2.4,8.4-3.2
		c6.2-1.8,12.6-2.4,19.1-2.9c10.8-0.8,21.7-0.7,32.5-0.2C102.2,392.3,103.6,392.4,105,392.4z"/>
</g>
</svg>
