<?xml version="1.0" encoding="utf-8"?>
<!-- Generator: Adobe Illustrator 25.2.3, SVG Export Plug-In . SVG Version: 6.00 Build 0)  -->
<svg version="1.1" id="Re-edit_1_" xmlns="http://www.w3.org/2000/svg" xmlns:xlink="http://www.w3.org/1999/xlink" x="0px" y="0px"
	 viewBox="0 0 431.8 283" style="enable-background:new 0 0 431.8 283;" xml:space="preserve">
<style type="text/css">
	.st0{fill:url(#SVGID_1_);}
	.st1{fill:url(#SVGID_2_);}
	.st2{fill:url(#SVGID_3_);}
	.st3{fill:url(#SVGID_4_);}
	.st4{fill:url(#SVGID_5_);}
	.st5{fill:url(#SVGID_6_);}
	.st6{fill:url(#SVGID_7_);}
	.st7{fill:url(#SVGID_8_);}
	.st8{fill:url(#SVGID_9_);}
	.st9{fill:url(#SVGID_10_);}
	.st10{fill:url(#SVGID_11_);}
	.st11{fill:url(#SVGID_12_);}
	.st12{fill:url(#SVGID_13_);}
	.st13{fill:url(#SVGID_14_);}
</style>
<g>
	
		<linearGradient id="SVGID_1_" gradientUnits="userSpaceOnUse" x1="364.3897" y1="147.68" x2="414.0564" y2="34.0134" gradientTransform="matrix(1 0 0 -1 0 284)">
		<stop  offset="0" style="stop-color:#1579FF"/>
		<stop  offset="1" style="stop-color:#0051BF"/>
	</linearGradient>
	<path class="st0" d="M425.1,240.5c0-1.2,0.1-2.3,0-3.4c-0.4-4.2-1.9-6.2-5.9-6.8c-5.2-0.8-10.5-0.7-15.7,0c-2.9,0.4-5,2.1-5.7,5
		c-0.3,1.3-0.4,2.6-0.6,3.9c-0.2,1.1,0.3,1.4,1.4,1.4c8.4,0,16.9,0,25.3,0C424.3,240.6,424.7,240.5,425.1,240.5z M401.9,225.9
		c4.7-0.9,9.5-0.6,14.2-0.4c2.6,0.1,5.3,0.6,7.7,1.5c4.9,1.7,7.5,5.7,7.5,10.9c0,2.3,0,4.5,0,7c-0.6,0-1.2,0-1.7,0
		c-10.3,0-20.6,0-30.8,0c-1.6,0-1.6,0-1.6,1.6c0,1.4-0.1,2.7,0.1,4.1c0.4,4.1,2.4,6.5,6.7,7.1c5.4,0.7,10.9,0.7,16.2-0.2
		c2.3-0.4,4.1-1.5,4.8-3.9c0.1-0.2,0.1-0.5,0.2-0.7c0.2-2,0.2-2,2.3-2c1.2,0,2.4,0,3.7,0c0.1,0.5,0.1,1,0.1,1.5
		c0,2.1-0.6,4.1-2.2,5.7c-2.4,2.5-5.5,3.4-8.8,3.9c-5.5,0.8-11.1,0.7-16.6,0.2c-1.6-0.1-3.2-0.5-4.7-1c-4-1.4-6.4-4.3-7.2-8.4
		c-1-5.4-0.9-10.9-0.2-16.4C392.5,230.5,396.1,227.1,401.9,225.9z"/>
	
		<linearGradient id="SVGID_2_" gradientUnits="userSpaceOnUse" x1="327.1135" y1="131.3921" x2="376.7802" y2="17.7255" gradientTransform="matrix(1 0 0 -1 0 284)">
		<stop  offset="0" style="stop-color:#1579FF"/>
		<stop  offset="1" style="stop-color:#0051BF"/>
	</linearGradient>
	<path class="st1" d="M350.6,226.2c6.5-1.3,13-1.1,19.5-0.2c2.4,0.3,4.5,1.3,6.1,3.3c0.1,0.1,0.2,0.2,0.4,0.3c0,0,0.1,0,0.2,0
		c0-6.2,0-12.5,0-18.8c2.2,0,4.3,0,6.5,0c0,0.4,0.1,0.9,0.1,1.3c0,16.2,0,32.5,0,48.7c0,1.2-0.3,1.6-1.5,1.5c-1.4-0.1-2.8,0-4.2,0
		c-0.6,0-0.9-0.2-0.9-0.9c0-0.9,0-1.8,0-2.9c-0.4,0.2-0.6,0.3-0.8,0.5c-2.3,2.2-5.2,3.1-8.2,3.2c-4.7,0.2-9.4,0.2-14,0
		c-2.3-0.1-4.6-0.8-6.8-1.7c-3.9-1.6-6.3-4.8-7.1-8.9c-1-4.8-1-9.7-0.1-14.5C340.9,230.9,344.8,227.3,350.6,226.2z M346.1,248.5
		c0.3,5.1,2.9,7.9,7.8,8.9c4.7,0.9,9.5,0.9,14.2,0.1c5.5-0.9,8.3-3.8,8.8-9.4c0.3-3.1,0.2-6.2,0-9.3c-0.3-4.6-2.7-7.4-7.2-8.3
		c-2.6-0.5-5.3-0.6-7.4-0.8c-2.8,0.2-5.2,0.3-7.5,0.6c-5.3,0.7-8.3,3.7-8.7,9C345.9,242.2,345.9,245.4,346.1,248.5z"/>
	
		<linearGradient id="SVGID_3_" gradientUnits="userSpaceOnUse" x1="285.056" y1="236.4633" x2="310.056" y2="82.7967" gradientTransform="matrix(1 0 0 -1 0 284)">
		<stop  offset="0" style="stop-color:#3F3F3F"/>
		<stop  offset="1" style="stop-color:#0A0A0A"/>
	</linearGradient>
	<path class="st2" d="M250.6,98.4c28.9,4.7,56.7,13.4,84.1,23.5c7.2,2.7,14.2,5.6,21.3,8.4c1.8,0.7,1.8,0.8,1.5,2.7
		c-1.8,13.6-8.6,24.4-19.1,33c-8.2,6.8-17.6,11.3-27.6,14.6c-11,3.6-22.4,5.6-34,6.4c-4.7,0.3-9.3,0.5-13.4,0.6
		c-4.7-0.2-8.7-0.3-12.8-0.5c-1.8-0.1-2.1-0.4-2.1-2.2c0-28.3,0-56.5,0-84.8C248.5,98.3,248.8,98.1,250.6,98.4z"/>
	
		<linearGradient id="SVGID_4_" gradientUnits="userSpaceOnUse" x1="280.2539" y1="110.9169" x2="329.9205" y2="-2.7498" gradientTransform="matrix(1 0 0 -1 0 284)">
		<stop  offset="0" style="stop-color:#1579FF"/>
		<stop  offset="1" style="stop-color:#0051BF"/>
	</linearGradient>
	<path class="st3" d="M315.5,239.9c3.1,0.1,6,0.6,8.5,2.6c0.1,0.1,0.3,0.1,0.8,0.3c-0.2-3.3-0.1-6.3-0.6-9.3
		c-0.3-2.1-2.2-3.1-4.1-3.3c-5.9-0.8-11.8-0.8-17.7,0c-2.1,0.3-3.5,1.5-3.7,3.8c0,0.3-0.4,0.8-0.7,0.8c-1.9,0.1-3.8,0-5.7,0
		c-0.5-2.9,1.1-6,4-7.4c1.7-0.8,3.6-1.5,5.5-1.6c6.2-0.2,12.4-0.2,18.6,0c2,0.1,4,0.8,5.8,1.7c3.2,1.5,4.9,4.2,4.9,7.9
		c0,8.5,0,17,0,25.5c0,0.9-0.3,1.3-1.2,1.3c-1.7-0.1-3.4,0-5.1,0c-0.1-1-0.1-1.8-0.2-2.8c-3.2,2.7-7,2.7-10.8,2.8
		c-3.4,0-6.7,0.1-10.1-0.1c-2.2-0.1-4.4-0.6-6.4-1.3c-4-1.4-6.1-4.4-6.2-8.6c-0.1-2.2-0.1-4.4,1-6.4c1.6-3.1,4.4-4.6,7.6-5.3
		c1.6-0.3,3.2-0.5,4.9-0.5C308.2,239.8,311.8,239.8,315.5,239.9z M301.9,257.1c2.9,0.6,6,0.7,8.6,0.9c3.2-0.3,5.9-0.3,8.7-0.7
		c2.4-0.3,4.4-1.6,5-4c1.1-4.3-0.1-8.1-5.3-8.7c-4.4-0.5-8.9-0.4-13.4-0.4c-1.2,0-2.5,0.2-3.7,0.6c-3.1,0.8-4.5,2.8-4.5,6.2
		C297.4,254.4,298.7,256.5,301.9,257.1z"/>
	
		<linearGradient id="SVGID_5_" gradientUnits="userSpaceOnUse" x1="239.6206" y1="93.1621" x2="289.2873" y2="-20.5045" gradientTransform="matrix(1 0 0 -1 0 284)">
		<stop  offset="0" style="stop-color:#1579FF"/>
		<stop  offset="1" style="stop-color:#0051BF"/>
	</linearGradient>
	<path class="st4" d="M286.1,237.7c0.2,2.7,0.2,2.7-2.5,2.7c-1.2,0-2.4,0-3.7,0c-0.1-1.1-0.2-2-0.3-2.9c-0.4-3.9-2.3-6.3-6.1-7.2
		c-5.3-1.2-10.6-1.2-15.9,0.2c-4.8,1.3-7.4,4.8-7.4,9.8c-0.1,6.8,0,13.5,0,20.3c0,0.5,0,0.9,0,1.5c-2.3,0-4.3,0-6.5,0
		c0-0.5,0-0.9,0-1.4c0-11.2,0-22.5,0-33.7c0-1.2,0.2-1.7,1.5-1.6c1.3,0.1,2.6,0.1,3.8,0c0.9,0,1.1,0.3,1.1,1.1c-0.1,1,0,2,0,3
		c0.3,0,0.4,0,0.5,0c2.8-2.8,6.3-3.8,10-3.9c4.8-0.1,9.6,0.1,14.3,0.4c1.7,0.1,3.4,0.9,5,1.6C283.9,229.7,285.8,233.2,286.1,237.7z"
		/>
	
		<linearGradient id="SVGID_6_" gradientUnits="userSpaceOnUse" x1="215.2428" y1="82.5102" x2="264.9095" y2="-31.1564" gradientTransform="matrix(1 0 0 -1 0 284)">
		<stop  offset="0" style="stop-color:#1579FF"/>
		<stop  offset="1" style="stop-color:#0051BF"/>
	</linearGradient>
	<path class="st5" d="M194.5,210.6c0.2-0.1,0.6,0,0.8,0c16.7,0,33.4,0,50.1,0c0.4,0,0.9,0,1.4,0c0,1.7,0,3.3,0,5.1c-0.5,0-1,0-1.4,0
		c-6.8,0-13.5,0-20.3,0c-1.1,0-1.5,0.3-1.5,1.5c0,14.5,0,28.9,0,43.4c0,0.5,0,1,0,1.6c-2.1,0-4.2,0-6.4,0c0-0.6,0-1.2,0-1.7
		c0-14.4,0-28.7,0-43.1c0-1.7,0-1.7-1.7-1.7c-6.8,0-13.5,0-20.3,0c-0.4,0-0.9,0-1.4,0c0-1.5,0-3,0-4.4
		C193.9,211.1,194.2,210.8,194.5,210.6z"/>
	
		<linearGradient id="SVGID_7_" gradientUnits="userSpaceOnUse" x1="225.1682" y1="188.7815" x2="133.1682" y2="-71.2185" gradientTransform="matrix(1 0 0 -1 0 284)">
		<stop  offset="0" style="stop-color:#0C0C0C"/>
		<stop  offset="1" style="stop-color:#0A0A0A"/>
	</linearGradient>
	<path class="st6" d="M164.8,237.7c1.3,0.3,2.6,0.5,3.9,0.6c4.3,0.2,8.7,0.2,13,0.6c2.7,0.2,5.4,0.7,7.9,1.6c4.1,1.4,5.7,4,5.7,8.3
		c0,1.5-0.1,3.1-0.3,4.5c-0.4,2.8-1.9,4.9-4.5,6.1c-2.7,1.4-5.7,2-8.7,2.1c-5.9,0.1-11.8,0.2-17.7,0c-3.2-0.1-6.3-0.8-9.1-2.4
		c-3.5-2-5.3-5.6-4.6-9.2c4.3,0,8.5,0,12.7,0c0.6,2.5,1.5,3.3,4.5,3.5c3.4,0.1,6.9,0.1,10.3,0c0.9,0,1.9-0.4,2.5-0.9
		c1.4-1.1,1-3.6-0.6-4.4c-0.9-0.4-2-0.6-3-0.7c-4.4-0.2-8.9-0.3-13.3-0.5c-2.9-0.2-5.7-0.7-8.4-1.9c-3.1-1.4-4.7-3.8-4.8-7.1
		c0-1.6-0.1-3.2,0.2-4.8c0.4-3.1,2.3-5.2,5-6.6c3-1.5,6.3-2.1,9.5-2.1c5.8-0.1,11.6,0,17.4,0.2c2.2,0.1,4.4,0.7,6.5,1.4
		c4.5,1.6,6.4,4.7,5.9,9.7c-4.5,0-9.1,0-13.6,0c-0.8-2.4-1.5-3-4.1-3c-3.5-0.1-7-0.1-10.6,0c-0.7,0-1.4,0.2-2.1,0.5
		c-1,0.4-1.4,1.3-1.4,2.3C163.3,236.6,163.8,237.5,164.8,237.7z"/>
	
		<linearGradient id="SVGID_8_" gradientUnits="userSpaceOnUse" x1="134.9442" y1="212.0417" x2="159.9442" y2="58.3751" gradientTransform="matrix(1 0 0 -1 0 284)">
		<stop  offset="0" style="stop-color:#3F3F3F"/>
		<stop  offset="1" style="stop-color:#0A0A0A"/>
	</linearGradient>
	<path class="st7" d="M188.3,174.5c-22.4-7.6-43.3-18-62.4-32c-9.4-6.9-18.1-14.6-25.8-23.4c-4.6-5.2-8.6-10.8-12.2-16.8
		c-1.1-1.8-1.1-2.4,0.7-3.4c2.6-1.4,5.3-2.7,8.2-3.7c7.4-2.6,15.1-3.9,22.8-4.8c16.7-2.1,33.4-2.3,50.2-1.9
		c6.2,0.1,12.5,0.6,18.7,0.9c1.5,0.1,1.9,0.5,1.9,2c0,13.6,0,27.3,0,40.9l0,0c0,13.6,0,27.2,0,40.8
		C190.4,174.9,190.1,175.1,188.3,174.5z"/>
	
		<linearGradient id="SVGID_9_" gradientUnits="userSpaceOnUse" x1="172.68" y1="207.3542" x2="80.68" y2="-52.6458" gradientTransform="matrix(1 0 0 -1 0 284)">
		<stop  offset="0" style="stop-color:#0C0C0C"/>
		<stop  offset="1" style="stop-color:#0A0A0A"/>
	</linearGradient>
	<path class="st8" d="M115.8,224.7c5.2-0.1,10.3-0.4,15.4,0.7c0.7,0.2,1.4,0.3,2.1,0.5c5.1,1.6,8.5,5,9,10.4
		c0.4,4.8,0.3,9.7-0.1,14.5c-0.4,4.6-3.2,7.7-7.6,9.1c-2.6,0.8-5.4,1.4-8.2,1.5c-4.5,0.2-9,0.1-13.5-0.3c-3.4-0.3-6.3-1.8-8.5-4.6
		c-0.1-0.1-0.2-0.1-0.5-0.3c0,6.7,0,13.3,0,20c-5.2,0-10.2,0-15.3,0c0-17.1,0-34.2,0-51.4c5.1,0,10.1,0,15.3,0c0,1.4,0,2.9,0,4.6
		c0.7-0.5,1.1-0.7,1.5-1C108.3,226,111.8,224.7,115.8,224.7z M110.2,252.5c1.8,0.4,3.7,0.3,5.6,0.5c0-0.1,0-0.1,0-0.2
		c1.4,0,2.8,0.1,4.2,0c4.4-0.3,6.6-2.1,6.9-6.1c0.2-2.3,0.2-4.7,0-7.1c-0.4-3.7-2.3-5.7-6-6c-3.2-0.3-6.4-0.4-9.6-0.2
		c-4,0.3-7.3,3.2-6.9,7.8c0.1,1.4,0,2.8,0,4.2C104.4,249.1,106.5,251.8,110.2,252.5z"/>
	
		<linearGradient id="SVGID_10_" gradientUnits="userSpaceOnUse" x1="189.5642" y1="282.8024" x2="203.5642" y2="224.1357" gradientTransform="matrix(1 0 0 -1 0 284)">
		<stop  offset="0" style="stop-color:#1593FF"/>
		<stop  offset="1" style="stop-color:#0051BF"/>
	</linearGradient>
	<path class="st9" d="M85.2,97.4c-5.5-11-8.7-22.6-7.3-35.1c1.6-13.7,8.2-24.7,18.6-33.5c8.3-7,17.9-11.7,28.2-15.1
		c12.3-4.1,25-6.1,37.9-6.7c21.2-1.1,42,1.4,62.6,6.4c18.5,4.5,36.2,11,53.2,19.5c8.4,4.2,16.5,8.9,24.2,14.1c0.4,0.2,0.7,0.5,1,1
		c-0.5,0-1,0-1.4,0c-9.7-1.1-19.4-2.4-29.2-3.3c-10.2-0.9-20.4-1.7-30.6-2c-12.2-0.4-24.4-0.2-36.6-0.2c-5.3,0-10.6,0.3-15.8,0.5
		c-21,1-41.7,3.8-61.8,10.3c-9.5,3.1-18.7,7-26.9,13c-3.4,2.5-6.5,5.3-9,8.7c-0.3,0.4-0.6,0.9-0.8,1.3c0.1,0.1,0.1,0.1,0.2,0.2
		c0.9-0.7,1.7-1.4,2.6-2.1c6.6-5.2,14.2-8.5,22-11.4c13.3-4.9,27-7.8,41.1-9.7c14.5-1.9,29.1-2.8,43.8-2.7
		c11.2,0.1,22.4,0.3,33.6,0.9c11.2,0.6,22.4,1.6,33.6,2.8c12.4,1.3,24.8,3,37.2,4.6c4.4,0.6,8.9,1.3,13.3,2c1.8,0.3,3.5,1,4.8,2.3
		c4.2,4.4,8.5,8.7,12.7,13.1c0.3,0.3,0.5,0.6,0.7,0.9c0.1,0.1,0,0.2,0.1,0.5c-0.5,0-0.9,0-1.4-0.1C321,73.5,306,69.9,290.9,67
		c-8.8-1.7-17.6-3-26.5-4.2c-8.4-1.1-16.9-2-25.4-2.8c-17.9-1.6-35.8-2.3-53.8-1.6c-8.3,0.3-16.6,0.9-24.9,1.8
		c-17.6,1.9-35,5.5-51.4,12.4c-6.6,2.8-12.7,6.6-17.6,12c-3.2,3.5-5.3,7.5-5.5,12.3c0,0.2-0.1,0.4-0.2,0.7
		C85.5,97.6,85.3,97.5,85.2,97.4z"/>
	
		<linearGradient id="SVGID_11_" gradientUnits="userSpaceOnUse" x1="135.7377" y1="220.4261" x2="43.7376" y2="-39.5739" gradientTransform="matrix(1 0 0 -1 0 284)">
		<stop  offset="0" style="stop-color:#0C0C0C"/>
		<stop  offset="1" style="stop-color:#0A0A0A"/>
	</linearGradient>
	<path class="st10" d="M79.7,224.9c0,12.2,0,24.4,0,36.7c-5,0-10,0-15.2,0c0-12.2,0-24.4,0-36.7C69.5,224.9,74.6,224.9,79.7,224.9z"
		/>
	
		<linearGradient id="SVGID_12_" gradientUnits="userSpaceOnUse" x1="126.7752" y1="223.5975" x2="34.7752" y2="-36.4025" gradientTransform="matrix(1 0 0 -1 0 284)">
		<stop  offset="0" style="stop-color:#0C0C0C"/>
		<stop  offset="1" style="stop-color:#0A0A0A"/>
	</linearGradient>
	<path class="st11" d="M79.7,209.9c0,3.2,0,6.4,0,9.7c-5.1,0-10.1,0-15.2,0c0-3.2,0-6.4,0-9.7C69.6,209.9,74.6,209.9,79.7,209.9z"/>
	
		<linearGradient id="SVGID_13_" gradientUnits="userSpaceOnUse" x1="87.7054" y1="237.4222" x2="-4.2946" y2="-22.5778" gradientTransform="matrix(1 0 0 -1 0 284)">
		<stop  offset="0" style="stop-color:#0C0C0C"/>
		<stop  offset="1" style="stop-color:#0A0A0A"/>
	</linearGradient>
	<path class="st12" d="M55.7,209.9c0,3.4,0,6.7,0,10.2c-6.6,0-13.1,0-19.8,0c0,13.9,0,27.6,0,41.4c-5.2,0-10.2,0-15.5,0
		c0-13.7,0-27.5,0-41.4c-6.8,0-13.3,0-20,0c0-3.5,0-6.8,0-10.2C18.9,209.9,37.2,209.9,55.7,209.9z"/>
	<g>
		<linearGradient id="SVGID_14_" gradientUnits="userSpaceOnUse" x1="327.5298" y1="181.7343" x2="339.3257" y2="181.7343">
			<stop  offset="0" style="stop-color:#0C0C0C"/>
			<stop  offset="1" style="stop-color:#0A0A0A"/>
		</linearGradient>
		<path class="st13" d="M339.3,181.7c0,3.3-2.6,5.8-5.9,5.8c-3.3,0-5.9-2.6-5.9-5.8c0-3.2,2.6-5.7,5.9-5.7
			C336.8,176,339.3,178.5,339.3,181.7z M329,181.7c0,2.6,1.9,4.6,4.5,4.6c2.5,0,4.4-2,4.4-4.6c0-2.6-1.9-4.6-4.4-4.6
			C330.9,177.1,329,179.2,329,181.7z M332.5,184.7h-1.3V179c0.5-0.1,1.3-0.2,2.2-0.2c1.1,0,1.6,0.2,2,0.4c0.3,0.2,0.6,0.7,0.6,1.3
			c0,0.6-0.5,1.1-1.2,1.3v0.1c0.6,0.2,0.9,0.6,1.1,1.4c0.2,0.9,0.3,1.2,0.4,1.4h-1.4c-0.2-0.2-0.3-0.7-0.5-1.4
			c-0.1-0.6-0.5-0.9-1.2-0.9h-0.6V184.7z M332.6,181.5h0.6c0.7,0,1.3-0.2,1.3-0.8c0-0.5-0.4-0.9-1.2-0.9c-0.4,0-0.6,0-0.7,0.1V181.5
			z"/>
	</g>
</g>
</svg>
