<?xml version="1.0" encoding="UTF-8"?>
<svg id="Layer_1" data-name="Layer 1" xmlns="http://www.w3.org/2000/svg" width="674.26" height="87.03" viewBox="0 0 674.26 87.03">
  <g>
    <g>
      <path d="m134.03,59.44c-.42-.33-8.77-3.48-14.51-5.47-10.06-3.46-21-6.58-30.87-8.77-4.72-1.05-6.15-1.33-6.35-1.25-.26.09-.28,42.66,0,42.75.09,0,.96.11,1.92.17,14.86.88,28.33-1.81,37.35-7.44,3.09-1.95,6.56-5.08,8.34-7.59,2.3-3.22,3.72-6.91,4.18-10.7.17-1.33.15-1.55-.02-1.69h-.04Z" fill="#4e4d4d"/>
      <path d="m46.15,39.35c-3.65-.18-14.13-.18-17.26,0-11.03.63-19.12,2.19-23.01,4.48-1.36.77-1.38.83-1.03,1.51.83,1.64,3.63,5.51,5.75,7.98,4.07,4.72,9.34,9.36,15.32,13.5,7.39,5.12,16.08,9.58,25.47,13.06,1.25.46,2.43.87,2.6.87h.31v-20.33c0-13.8-.04-20.37-.13-20.43-.17-.11-4.18-.41-8.03-.59h0v-.04Z" fill="#4e4d4d"/>
    </g>
    <path id="b" d="m3.31,42.09c-1.27-2.5-2.45-6.1-2.93-8.97-1.05-6.37.07-12.17,3.26-17.06C12.48,2.64,35.27-3.04,61.86,1.59c6.89,1.2,14.79,3.33,21.24,5.75,7.86,2.95,14.75,6.35,21.57,10.65,1.99,1.25,2.54,1.66,2.45,1.73,0,.02-1.16-.11-2.52-.28-7.09-.94-14.83-1.62-23.93-2.12-4.07-.22-19.03-.22-22.71,0-11.42.68-19.49,1.75-27.44,3.61-12.58,2.95-21.11,7.18-24.35,12.12-.55.83-.92,1.75-.76,1.92.06.06.68-.5,1.42-1.2,8.21-7.88,29.88-12.78,56.58-12.76,12.64,0,39.03,3.11,39.03,3.11,0,0,12.99,2.17,13.67,2.45.22.07,1.77,1.51,3.44,3.19,2.82,2.8,3.9,3.98,3.78,4.13-.02.02-1.18-.22-2.54-.55-9.89-2.38-19.28-4.18-27.5-5.3-1.66-.22-3.46-.46-3.98-.55-5.16-.72-15.44-1.58-22.18-1.86-7.26-.28-19.41,0-24.4.57-.33.04-1.55.17-2.69.28-8.9.92-17.2,2.67-23.28,4.92-5.95,2.21-9.89,4.77-11.75,7.66-.66,1.01-.96,1.86-1.09,3.09l-.09.92-.48-.94h-.04v-.02Z" fill="#3875bb"/>
    <g id="c">
      <g id="d">
        <path d="m133.09,76.39c.81,0,1.62.2,2.39.63s1.38,1.03,1.82,1.81c.42.77.64,1.58.64,2.45s-.2,1.66-.64,2.43-1.03,1.38-1.81,1.81-1.58.64-2.43.64-1.66-.2-2.43-.64c-.77-.42-1.38-1.05-1.81-1.81-.42-.77-.64-1.58-.64-2.43s.2-1.66.64-2.45,1.05-1.38,1.82-1.81,1.57-.63,2.39-.63h.04Zm0,.81c-.7,0-1.36.17-1.99.52s-1.16.87-1.53,1.51-.55,1.33-.55,2.06.18,1.38.52,2.01c.35.64.87,1.16,1.51,1.51s1.33.52,2.01.52,1.38-.18,2.01-.52c.64-.35,1.16-.87,1.51-1.51s.52-1.33.52-2.01-.18-1.38-.55-2.06-.88-1.16-1.53-1.51-1.33-.52-1.99-.52h.07Zm-2.14,6.78v-5.27h1.81c.61,0,1.07.04,1.34.15.28.09.48.26.64.5s.26.5.26.76c0,.37-.15.72-.42,1.01s-.64.44-1.09.48c.18.09.33.17.44.28.2.2.48.55.77,1.05l.64,1.03h-1.05l-.46-.81c-.35-.64-.64-1.05-.88-1.22-.15-.13-.37-.18-.66-.18h-.5v2.23s-.85,0-.85,0Zm.85-2.91h1.03c.48,0,.81-.09,1.01-.2.18-.15.28-.33.28-.59,0-.15-.04-.29-.13-.42s-.18-.2-.35-.28c-.15-.06-.44-.09-.87-.09h-.96v1.58h-.02Z" fill="#4e4d4d"/>
      </g>
    </g>
  </g>
  <g>
    <path d="m381.66,46.64c-2.6-1.95-6.71-2.99-12.3-3.06h-19.22c-3.15-.16-5.17-.46-6.05-.85s-1.33-1.03-1.33-1.93.41-1.52,1.26-1.89,2.32-.57,4.42-.57h10.99c2.21,0,3.98.21,5.27.57s2.14.94,2.53,1.68h15.73c-.05-3.89-1.45-6.74-4.19-8.6-2.74-1.86-6.94-2.78-12.65-2.78h-17.82c-7.7,0-13.15.97-16.42,2.9s-4.9,5.11-4.9,9.54c0,4.19,1.52,7.17,4.53,8.92,3.01,1.77,8.44,2.64,16.3,2.67l15.54.25c2.25.11,3.91.44,4.9.94s1.52,1.24,1.52,2.21c0,1.08-.46,1.84-1.4,2.28s-2.55.69-4.85.69h-11.47c-2.99,0-5.15-.28-6.51-.83s-2.02-1.43-2.02-2.62v-.14l-16.67.05h0c.09,4.76,1.7,8.05,4.9,9.91,3.17,1.86,9.27,2.78,18.3,2.78h15.98c7.29,0,12.39-.97,15.27-2.92,2.9-1.95,4.32-5.29,4.32-10.03,0-4.16-1.29-7.2-3.91-9.18h-.05,0Z" fill="#4e4d4d"/>
    <path d="m313.25,32.13c-3.45-1.95-9.41-2.92-17.87-2.92-6.81,0-11.66.57-14.58,1.75-2.92,1.15-4.55,3.1-4.88,5.84v-7.06h-15.73v51.53h15.73v-19.96c.83,2.53,2.64,4.32,5.45,5.33,2.81,1.03,7.54,1.52,14.26,1.52,8,0,13.8-1.06,17.38-3.17s5.38-5.5,5.38-10.19v-12.72c0-4.69-1.72-8-5.15-9.96h0Zm-10.55,19.02c0,2.35-.76,4-2.28,5.01s-4.07,1.49-7.63,1.49h-7.13c-3.79,0-6.39-.48-7.82-1.45s-2.14-2.74-2.14-5.29v-4.65c0-2.35.76-4,2.25-4.99s4.07-1.45,7.7-1.45h7.13c3.66,0,6.21.48,7.7,1.47,1.47.99,2.21,2.67,2.21,5.04v4.81h0Z" fill="#4e4d4d"/>
    <rect x="231.87" y="29.69" width="15.73" height="38.52" fill="#4e4d4d"/>
    <polygon points="152.61 27.12 178.45 27.12 178.45 68.23 197.29 68.23 197.29 27.12 223.13 27.12 223.13 13.76 152.61 13.76 152.61 27.12" fill="#4e4d4d"/>
    <rect x="231.87" y="13.76" width="15.73" height="11.31" fill="#4e4d4d"/>
    <polygon points="453.07 20.54 453.07 14.54 384.36 14.54 384.36 20.54 414.89 20.54 414.89 68.51 422.55 68.51 422.55 20.54 453.07 20.54" fill="#3875bb"/>
    <path d="m477.51,32.2c-2.97-1.93-8.12-2.87-15.43-2.87-5.47,0-9.47.48-12.05,1.47-2.58.97-4.58,2.67-5.98,5.06v-5.63h-6.67v37.76h6.99v-23.66c0-3.29,1.26-5.66,3.82-7.13,2.53-1.47,6.6-2.21,12.21-2.21,6.09,0,10.14.57,12.14,1.7s3.01,3.43,3.01,6.81v3.56h6.37v-5.04c0-4.62-1.47-7.89-4.44-9.8h.02v-.02Z" fill="#3875bb"/>
    <path d="m537.57,32.71c-3.15-2.25-8.05-3.4-14.76-3.4h-12.46c-6.55,0-11.29.87-14.19,2.6-2.92,1.72-4.37,4.53-4.37,8.39v1.03h7.24v-1.13c0-2.05.74-3.43,2.23-4.14s4.88-1.03,10.16-1.03h10.28c5.4,0,9.08.62,11.06,1.86,1.95,1.24,2.94,3.5,2.94,6.71v5.22c-1.47-1.56-3.43-2.71-5.79-3.45-2.39-.71-5.38-1.08-9.01-1.08h-12.14c-7.31,0-12.46.87-15.43,2.64-2.99,1.77-4.46,4.81-4.46,9.13,0,4.58,1.49,7.8,4.48,9.64,2.99,1.84,8.19,2.76,15.59,2.76h11.52c4.55,0,7.96-.44,10.21-1.26,2.25-.85,3.93-2.25,5.06-4.28v5.04h6.58v-24.67c0-4.83-1.56-8.37-4.71-10.65v.05h0l-.02.02Zm-5.17,29.09c-1.93.74-5.73,1.1-11.34,1.1h-10.37c-6.25,0-10.21-.46-11.84-1.36-1.66-.9-2.46-2.81-2.46-5.73,0-2.48.87-4.16,2.62-5.01,1.77-.87,5.63-1.29,11.68-1.29h10.37c5.54,0,9.29.37,11.27,1.13s2.97,2.05,2.97,3.91v3.33h0c0,1.86-.97,3.17-2.9,3.91h0Z" fill="#3875bb"/>
    <path d="m601.13,34.64c-1.47-1.84-3.31-3.17-5.47-4.05-2.18-.87-4.88-1.29-8.12-1.29h-13.29c-7.36,0-12.67,1.26-15.91,3.79-3.22,2.51-4.83,6.71-4.83,12.56v5.98c0,6.09,1.61,10.42,4.78,12.99,3.17,2.58,8.51,3.86,15.96,3.86h11.52c4.81,0,8.37-.53,10.72-1.54,2.35-1.01,4.09-2.76,5.29-5.2v6.23h6V14.03h-6.67v20.6h.02Zm.09,16.35c0,4.69-1.03,7.84-3.08,9.45-2.05,1.61-6.21,2.44-12.51,2.44h-9.68c-6.28,0-10.44-.8-12.51-2.44-2.05-1.61-3.08-4.76-3.08-9.45v-4.53c0-4.55,1.03-7.61,3.1-9.18,2.07-1.59,6.23-2.37,12.49-2.37h9.68c6.25,0,10.42.78,12.49,2.37s3.1,4.65,3.1,9.18v4.53h0Z" fill="#3875bb"/>
    <path d="m667.13,56.32v.39c0,2.18-1.15,3.82-3.43,4.88-2.28,1.03-5.84,1.59-10.65,1.59h-11.27c-5.52,0-9.38-.78-11.59-2.39-2.23-1.61-3.33-4.39-3.33-8.44v-2.07l47.35-.05c.05-.34.05-.71.05-1.13v-1.82c0-6.67-1.61-11.31-4.81-13.98-3.2-2.67-8.85-4-16.99-4h-10.78c-7.84,0-13.43,1.26-16.76,3.82-3.33,2.55-4.99,6.81-4.99,12.81v6.09c0,5.89,1.68,10.12,5.04,12.65s8.92,3.82,16.72,3.82h12.97c6.42,0,11.29-.94,14.63-2.83,3.33-1.91,4.99-4.67,4.99-8.35v-.97h-7.13v-.02Zm-37-19.25c2.18-1.49,6-2.23,11.45-2.23h10.74c5.89,0,9.8.64,11.77,1.93,1.98,1.26,2.97,3.63,2.97,7.04v.9h-40.2c0-3.59,1.1-6.14,3.27-7.61h0v-.02Z" fill="#3875bb"/>
  </g>
</svg>