<?xml version="1.0" encoding="UTF-8"?>
<svg id="Logo" xmlns="http://www.w3.org/2000/svg" width="1000mm" height="129.4mm" version="1.1" viewBox="0 0 2834.6 366.8">
  <!-- Generator: Adobe Illustrator 29.3.1, SVG Export Plug-In . SVG Version: 2.1.0 Build 151)  -->
  <defs>
    <style>
      .st0 {
        fill: #fff;
      }
    </style>
  </defs>
  <path class="st0" d="M1244.7,178.6c-14.1-10.6-36.4-16.3-66.8-16.6h-104.5c-17.1-.9-28.1-2.5-32.9-4.6s-7.3-5.7-7.3-10.5,2.2-8.3,6.9-10.2,12.6-3.1,24-3.1h59.8c12.1,0,21.6,1.1,28.7,3.1s11.7,5.2,13.7,9.1h85.5c-.3-21.1-7.9-36.7-22.7-46.7-14.8-10.2-37.7-15.1-68.7-15.1h-96.9c-41.8,0-71.5,5.3-89.2,15.8s-26.6,27.7-26.6,51.9,8.3,39,24.6,48.5c16.3,9.6,45.9,14.4,88.6,14.4l84.5,1.4c12.2.7,21.2,2.3,26.6,5.2s8.3,6.7,8.3,12.1-2.5,9.9-7.6,12.4-13.9,3.8-26.4,3.8h-62.4c-16.3,0-28-1.5-35.4-4.5s-11-7.7-11-14.3v-.7l-90.6.3h0c.5,25.9,9.2,43.7,26.6,53.9,17.3,10.2,50.4,15.1,99.4,15.1h86.8c39.6,0,67.4-5.3,83-15.9,15.8-10.6,23.5-28.8,23.5-54.5s-7-39.1-21.2-49.9h-.3c0-.1,0-.2,0-.2Z"/>
  <path class="st0" d="M873,99.8c-18.7-10.6-51.1-15.9-97.1-15.9s-63.3,3.1-79.2,9.5c-15.9,6.2-24.7,16.9-26.5,31.8v-38.3h-85.5v280h85.5v-108.5c4.5,13.7,14.4,23.5,29.6,29,15.2,5.7,40.9,8.3,77.4,8.3s75-5.7,94.5-17.3c19.5-11.5,29.2-29.9,29.2-55.3v-69c0-25.5-9.4-43.5-28-54.1h.1c0-.1,0,0,0,0ZM815.6,203.1c0,12.8-4.1,21.7-12.4,27.2s-22.1,8.1-41.5,8.1h-38.7c-20.6,0-34.8-2.6-42.5-7.9-7.7-5.3-11.7-14.8-11.7-28.8v-25.3c0-12.8,4.1-21.7,12.2-27.2s22.1-7.9,41.8-7.9h38.7c19.8,0,33.8,2.6,41.8,8,8,5.4,12.1,14.4,12.1,27.4v26.1h0v.2h.1,0Z"/>
  <rect class="st0" x="430.7" y="86.5" width="85.5" height="209.3"/>
  <polygon class="st0" points="0 72.5 140.4 72.5 140.4 296 242.8 296 242.8 72.5 383.2 72.5 383.2 0 0 0 0 72.5"/>
  <rect class="st0" x="430.7" width="85.5" height="61.5"/>
  <polygon class="st0" points="1632.8 36.8 1632.8 4.2 1259.3 4.2 1259.3 36.8 1425.2 36.8 1425.2 297.5 1466.9 297.5 1466.9 36.8 1632.8 36.8"/>
  <path class="st0" d="M1765.5,100.2c-16.2-10.5-44.1-15.6-83.8-15.6s-51.5,2.6-65.5,8c-14,5.3-24.9,14.4-32.5,27.5v-30.6h-36.3v205.1h38v-128.6c0-17.9,6.9-30.7,20.8-38.7,13.7-8,35.9-12.1,66.4-12.1s55.1,3.1,66,9.2c10.9,6.1,16.3,18.6,16.3,37v19.4h34.6v-27.4c0-25.1-8-42.8-24.2-53.2h.1l.2-.2h0Z"/>
  <path class="st0" d="M2091.9,102.9c-17.1-12.2-43.7-18.5-80.2-18.5h-67.7c-35.6,0-61.3,4.8-77,14.1-15.9,9.4-23.8,24.6-23.8,45.6v5.7h39.3v-6.1c0-11.1,4.1-18.6,12.1-22.4s26.5-5.7,55.3-5.7h55.8c29.3,0,49.3,3.4,60.1,10.2,10.6,6.7,16,19,16,36.4v28.4c-8-8.5-18.6-14.7-31.5-18.7-13-3.8-29.2-5.8-48.9-5.8h-66c-39.7,0-67.7,4.8-83.8,14.4-16.3,9.6-24.3,26.1-24.3,49.6s8.1,42.4,24.3,52.4c16.3,9.9,44.4,15,84.8,15h62.6c24.7,0,43.2-2.3,55.5-6.9,12.2-4.6,21.4-12.2,27.5-23.2v27.4h35.7v-134.1c0-26.2-8.5-45.5-25.6-57.9v.3h-.1c0-.1,0-.1,0-.1ZM2063.8,260.9c-10.5,4.1-31.1,6-61.6,6h-56.4c-34,0-55.5-2.5-64.4-7.3-9-4.9-13.4-15.2-13.4-31.1s4.8-22.7,14.3-27.2c9.6-4.8,30.6-7,63.5-7h56.4c30.1,0,50.5,2,61.3,6.1,10.8,4.1,16.2,11.1,16.2,21.2v18.2h0c0,10.2-5.3,17.3-15.8,21.2h-.1Z"/>
  <path class="st0" d="M2437.3,113.4c-8-9.9-17.9-17.3-29.7-22-11.8-4.8-26.5-7-44.1-7h-72.2c-40,0-68.9,6.9-86.5,20.6-17.5,13.6-26.2,36.4-26.2,68.2v32.5c0,33.1,8.7,56.6,26,70.6,17.3,14,46.3,21,86.7,21h62.6c26.1,0,45.5-2.9,58.3-8.3s22.3-15,28.8-28.3v33.8h32.6V1.5h-36.3v111.9h.1-.2,0ZM2437.8,202.2c0,25.5-5.7,42.5-16.7,51.4-11.1,8.7-33.8,13.2-68,13.2h-52.6c-34.1,0-56.8-4.4-68-13.2-11.1-8.7-16.7-25.9-16.7-51.4v-24.6c0-24.7,5.7-41.3,16.9-49.9,11.3-8.6,33.8-12.8,67.8-12.8h52.6c34,0,56.6,4.2,67.8,12.8,11.3,8.6,16.9,25.3,16.9,49.9v24.6h-.2,0Z"/>
  <path class="st0" d="M2795.9,231.2v2.2c0,11.8-6.2,20.8-18.6,26.5-12.4,5.7-31.8,8.6-57.9,8.6h-61.3c-30,0-51-4.2-62.9-13-12.1-8.7-18.2-23.9-18.2-45.9v-11.3l257.3-.3c.3-1.9.3-3.8.3-6.1v-9.9c0-36.3-8.7-61.5-26.1-76-17.4-14.4-48.1-21.7-92.3-21.7h-58.7c-42.5,0-73,6.9-91,20.8-18,13.9-27.2,37-27.2,69.6v33.1c0,31.9,9.1,55,27.4,68.7,18.2,13.7,48.5,20.8,90.9,20.8h70.5c34.8,0,61.3-5.2,79.5-15.4,18.2-10.3,27.2-25.4,27.2-45.4v-5.3h-38.7v-.2h0ZM2594.8,126.7c11.8-8.1,32.6-12.1,62.2-12.1h58.4c31.9,0,53.2,3.5,64,10.5,10.7,6.9,16.2,19.8,16.2,38.3v4.9h-218.4c0-19.5,6-33.4,17.8-41.3h0v-.2h-.1Z"/>
</svg>