<?xml version="1.0" encoding="UTF-8"?>
<svg id="Layer_1" data-name="Layer 1" xmlns="http://www.w3.org/2000/svg" width="370.98" height="240.59" viewBox="0 0 370.98 240.59">
  <g>
    <path d="m370.51,164.32c-1.17-.92-24.24-9.62-40.12-15.12-27.8-9.57-58.05-18.18-85.34-24.24-13.03-2.9-17.01-3.67-17.57-3.46-.71.25-.76,117.92,0,118.18.25,0,2.65.31,5.3.46,41.09,2.44,78.31-4.99,103.26-20.57,8.55-5.4,18.13-14.05,23.07-20.98,6.36-8.91,10.29-19.09,11.56-29.58.46-3.67.41-4.28-.05-4.68h-.1Z" fill="#4d4d4d"/>
    <path d="m127.58,108.77c-10.08-.51-39.05-.51-47.71,0-30.5,1.73-52.85,6.06-63.59,12.37-3.77,2.14-3.82,2.29-2.85,4.18,2.29,4.53,10.03,15.22,15.89,22.05,11.25,13.03,25.81,25.87,42.36,37.32,20.42,14.15,44.45,26.48,70.42,36.1,3.46,1.27,6.72,2.39,7.18,2.39h.87v-56.21c0-38.14-.1-56.31-.36-56.47-.46-.31-11.56-1.12-22.2-1.63h0v-.1Z" fill="#4d4d4d"/>
  </g>
  <path id="b" d="m9.15,116.35c-3.51-6.92-6.77-16.85-8.1-24.8-2.9-17.62.2-33.66,9.01-47.15C34.51,7.29,97.49-8.39,171.02,4.39c19.04,3.31,40.89,9.22,58.71,15.89,21.74,8.15,40.78,17.57,59.62,29.43,5.5,3.46,7.03,4.58,6.77,4.79,0,.05-3.21-.31-6.98-.76-19.6-2.6-40.99-4.48-66.14-5.86-11.25-.61-52.6-.61-62.78,0-31.57,1.88-53.87,4.84-75.87,9.98-34.78,8.15-58.35,19.86-67.31,33.5-1.53,2.29-2.55,4.84-2.09,5.3.15.15,1.88-1.37,3.92-3.31,22.71-21.79,82.59-35.34,156.42-35.29,34.93,0,107.89,8.6,107.89,8.6,0,0,35.9,6.01,37.78,6.77.61.2,4.89,4.18,9.52,8.81,7.79,7.74,10.79,11,10.44,11.41-.05.05-3.26-.61-7.03-1.53-27.34-6.57-53.31-11.56-76.02-14.66-4.58-.61-9.57-1.27-11-1.53-14.26-1.99-42.67-4.38-61.3-5.14-20.06-.76-53.67,0-67.46,1.58-.92.1-4.28.46-7.43.76-24.59,2.55-47.56,7.38-64.36,13.59-16.45,6.11-27.34,13.19-32.48,21.18-1.83,2.8-2.65,5.14-3,8.55l-.25,2.55-1.32-2.6h-.1v-.05Z" fill="#0f7feb"/>
</svg>