<?xml version="1.0" encoding="UTF-8"?>
<svg id="Layer_1" xmlns="http://www.w3.org/2000/svg" width="176.4mm" height="176.4mm" version="1.1" viewBox="0 0 500 500">
  <!-- Generator: Adobe Illustrator 29.2.1, SVG Export Plug-In . SVG Version: 2.1.0 Build 116)  -->
  <defs>
    <style>
      .st0 {
        fill: #4d4d4d;
      }

      .st1 {
        fill: #0f7feb;
      }
    </style>
  </defs>
  <g>
    <path class="st0" d="M448,297.1c-1.3-1-25.9-10.3-42.9-16.2-29.8-10.2-62.1-19.5-91.3-25.9-13.9-3.1-18.2-3.9-18.8-3.7-.8.3-.8,126.2,0,126.5.3,0,2.8.3,5.7.5,44,2.6,83.8-5.3,110.5-22,9.1-5.8,19.4-15,24.7-22.5,6.8-9.5,11-20.4,12.4-31.7.5-3.9.4-4.6,0-5h-.1Z"/>
    <path class="st0" d="M188,237.7c-10.8-.5-41.8-.5-51.1,0-32.6,1.9-56.6,6.5-68.1,13.2-4,2.3-4.1,2.5-3,4.5,2.5,4.8,10.7,16.3,17,23.6,12,13.9,27.6,27.7,45.3,39.9,21.9,15.1,47.6,28.3,75.4,38.6,3.7,1.4,7.2,2.6,7.7,2.6h.9v-60.2c0-40.8-.1-60.3-.4-60.4-.5-.3-12.4-1.2-23.8-1.7h0c0-.1,0-.1,0-.1Z"/>
  </g>
  <path id="b" class="st1" d="M61.3,245.8c-3.8-7.4-7.2-18-8.7-26.5-3.1-18.9.2-36,9.6-50.5,26.2-39.7,93.6-56.5,172.3-42.8,20.4,3.5,43.8,9.9,62.8,17,23.3,8.7,43.6,18.8,63.8,31.5,5.9,3.7,7.5,4.9,7.2,5.1,0,0-3.4-.3-7.5-.8-21-2.8-43.9-4.8-70.8-6.3-12-.7-56.3-.7-67.2,0-33.8,2-57.6,5.2-81.2,10.7-37.2,8.7-62.4,21.3-72,35.8-1.6,2.5-2.7,5.2-2.2,5.7.2.2,2-1.5,4.2-3.5,24.3-23.3,88.4-37.8,167.4-37.8,37.4,0,115.5,9.2,115.5,9.2,0,0,38.4,6.4,40.4,7.2.7.2,5.2,4.5,10.2,9.4,8.3,8.3,11.5,11.8,11.2,12.2,0,0-3.5-.7-7.5-1.6-29.3-7-57-12.4-81.4-15.7-4.9-.7-10.2-1.4-11.8-1.6-15.3-2.1-45.7-4.7-65.6-5.5-21.5-.8-57.4,0-72.2,1.7-1,.1-4.6.5-8,.8-26.3,2.7-50.9,7.9-68.9,14.5-17.6,6.5-29.3,14.1-34.8,22.7-2,3-2.8,5.5-3.2,9.1l-.3,2.7-1.4-2.8h-.1c0,0,0,0,0,0Z"/>
</svg>