<?xml version="1.0" encoding="utf-8"?>
<!-- Generator: Adobe Illustrator 16.0.0, SVG Export Plug-In . SVG Version: 6.00 Build 0)  -->
<!DOCTYPE svg PUBLIC "-//W3C//DTD SVG 1.1//EN" "http://www.w3.org/Graphics/SVG/1.1/DTD/svg11.dtd">
<svg version="1.1" id="TipsTrade" xmlns="http://www.w3.org/2000/svg" xmlns:xlink="http://www.w3.org/1999/xlink" x="0px" y="0px"
	 width="1000px" height="1000px" viewBox="0 0 1000 1000" enable-background="new 0 0 1000 1000" xml:space="preserve">
<g>
	<path fill-rule="evenodd" clip-rule="evenodd" d="M561.516,518.473l17.926-0.044v0.177c0,1.458,0.728,2.523,2.186,3.189
		c1.458,0.671,3.788,1.002,7,1.002h12.354c2.467,0,4.207-0.274,5.218-0.823c1.01-0.55,1.515-1.48,1.515-2.788
		c0-1.189-0.542-2.09-1.628-2.696c-1.085-0.61-2.846-0.99-5.285-1.141l-16.72-0.309c-8.442-0.03-14.283-1.118-17.526-3.258
		c-3.238-2.14-4.858-5.768-4.858-10.881c0-5.413,1.752-9.295,5.26-11.644c3.508-2.347,9.394-3.524,17.659-3.524h19.175
		c6.126,0,10.657,1.134,13.602,3.392c2.943,2.26,4.445,5.752,4.503,10.478h-16.9c-0.417-0.889-1.321-1.565-2.72-2.025
		c-1.399-0.463-3.284-0.691-5.663-0.691h-11.817c-2.259,0-3.843,0.228-4.75,0.691c-0.906,0.46-1.36,1.227-1.36,2.298
		c0,1.097,0.476,1.889,1.429,2.363c0.951,0.475,3.124,0.814,6.51,1.025h20.646c6.036,0.088,10.45,1.331,13.245,3.723
		c2.793,2.395,4.191,6.117,4.191,11.174c0,5.768-1.553,9.843-4.661,12.217c-3.104,2.382-8.584,3.569-16.433,3.569h-17.167
		c-9.691,0-16.248-1.125-19.667-3.385C563.359,528.299,561.605,524.271,561.516,518.473L561.516,518.473z M517.28,498.714
		c-3.895,0-6.654,0.595-8.273,1.785c-1.619,1.189-2.431,3.208-2.431,6.066v5.666c0,3.118,0.766,5.27,2.299,6.443
		c1.528,1.174,4.332,1.762,8.405,1.762h7.668c3.836,0,6.574-0.61,8.206-1.83c1.635-1.218,2.453-3.257,2.453-6.108v-5.844
		c0-2.883-0.797-4.929-2.387-6.134c-1.588-1.205-4.346-1.806-8.272-1.806H517.28L517.28,498.714z M506.846,524.849v24.354h-16.9
		V486.36h16.9v8.605c0.355-3.328,2.103-5.702,5.239-7.112c3.135-1.412,8.36-2.12,15.674-2.12c9.098,0,15.495,1.19,19.198,3.568
		c3.7,2.379,5.551,6.426,5.551,12.134v15.52c0,5.709-1.933,9.848-5.798,12.424c-3.862,2.57-10.092,3.856-18.683,3.856
		c-7.193,0-12.301-0.622-15.318-1.875C509.691,530.113,507.736,527.943,506.846,524.849L506.846,524.849z M476.389,533.323h-16.902
		V486.36h16.902V533.323L476.389,533.323z M476.389,480.694h-16.902v-13.78h16.902V480.694L476.389,480.694z M422.297,533.323
		h-20.244v-50.132h-27.783v-16.277h75.807v16.277h-27.781V533.323z"/>
	<polygon fill-rule="evenodd" clip-rule="evenodd" fill="#0E4A81" points="664.457,533.65 656.222,533.65 656.222,475.192 
		623.406,475.192 623.406,467.854 697.275,467.854 697.275,475.192 664.457,475.192 	"/>
	<path fill-rule="evenodd" clip-rule="evenodd" fill="#0E4A81" d="M680.426,533.035v-46.047h7.165v6.851
		c1.505-2.917,3.641-4.971,6.414-6.168c2.769-1.188,7.092-1.787,12.959-1.787c7.872,0,13.397,1.17,16.581,3.512
		c3.186,2.341,4.775,6.328,4.775,11.953v6.143h-6.854v-4.332c0-4.154-1.079-6.922-3.251-8.308
		c-2.165-1.385-6.522-2.076-13.067-2.076c-6.013,0-10.385,0.9-13.114,2.697c-2.725,1.795-4.09,4.698-4.09,8.707v28.855h-7.515
		H680.426z"/>
	<path fill-rule="evenodd" clip-rule="evenodd" fill="#0E4A81" d="M772.236,485.884c7.195,0,12.479,1.378,15.854,4.132
		c3.375,2.752,5.067,7.077,5.067,12.968v30.051h-7.079v-6.144c-1.212,2.443-3.023,4.183-5.438,5.212
		c-2.418,1.03-6.075,1.547-10.972,1.547h-12.377c-7.964,0-13.551-1.121-16.763-3.357c-3.214-2.237-4.823-6.157-4.823-11.752
		c0-5.274,1.602-8.986,4.802-11.136c3.196-2.149,8.735-3.226,16.605-3.226h13.049c3.89,0,7.117,0.439,9.681,1.325
		c2.567,0.884,4.644,2.281,6.236,4.197v-6.362c0-3.95-1.052-6.682-3.161-8.198c-2.109-1.516-6.066-2.275-11.878-2.275h-11.052
		c-5.694,0-9.331,0.425-10.922,1.281c-1.593,0.857-2.391,2.533-2.391,5.037v1.37h-7.781v-1.28c0-4.715,1.562-8.122,4.684-10.23
		c3.125-2.108,8.213-3.16,15.262-3.16H772.236L772.236,485.884z M785.638,520.705v-4.063c0-2.27-1.063-3.858-3.188-4.773
		c-2.118-0.913-6.158-1.37-12.112-1.37h-11.147c-6.485,0-10.672,0.523-12.559,1.568c-1.886,1.044-2.83,3.084-2.83,6.12
		c0,3.534,0.887,5.854,2.651,6.96c1.77,1.104,6.02,1.656,12.737,1.656h11.147c6.04,0,10.103-0.45,12.186-1.351
		C784.597,524.557,785.638,522.973,785.638,520.705z"/>
	<path fill-rule="evenodd" clip-rule="evenodd" fill="#0E4A81" d="M839.945,533.65h-12.382c-8.019,0-13.74-1.566-17.163-4.705
		c-3.416-3.135-5.129-8.416-5.129-15.842v-7.291c0-7.127,1.734-12.23,5.199-15.309c3.462-3.079,9.162-4.619,17.093-4.619h14.285
		c3.478,0,6.381,0.523,8.709,1.567c2.33,1.049,4.294,2.691,5.881,4.928v-25.143h7.167v65.798h-6.457v-7.603
		c-1.27,2.976-3.163,5.092-5.685,6.342C848.946,533.025,845.103,533.65,839.945,533.65L839.945,533.65z M839.765,526.803
		c6.753,0,11.235-0.988,13.45-2.963c2.21-1.97,3.315-5.817,3.315-11.531v-5.524c0-5.537-1.112-9.269-3.342-11.201
		c-2.223-1.928-6.7-2.896-13.424-2.896h-10.389c-6.722,0-11.197,0.968-13.424,2.896c-2.225,1.932-3.335,5.664-3.335,11.201v5.524
		c0,5.714,1.099,9.562,3.315,11.531c2.209,1.975,6.689,2.963,13.443,2.963H839.765z"/>
	<path fill-rule="evenodd" clip-rule="evenodd" fill="#0E4A81" d="M884.079,504.708h43.207v-1.104c0-4.154-1.058-7.011-3.183-8.572
		c-2.12-1.565-6.339-2.345-12.652-2.345h-11.539c-5.866,0-9.97,0.907-12.316,2.719C885.255,497.219,884.079,500.317,884.079,504.708
		L884.079,504.708z M911.632,485.884c8.758,0,14.852,1.621,18.289,4.859c3.431,3.241,5.15,8.928,5.15,17.059
		c0,0.971-0.003,1.708-0.022,2.209c-0.013,0.501-0.035,0.959-0.064,1.367l-50.905,0.044v2.521c0,4.917,1.193,8.351,3.586,10.296
		c2.387,1.945,6.546,2.916,12.472,2.916h12.115c5.162,0,8.97-0.64,11.427-1.921c2.467-1.281,3.698-3.263,3.698-5.945v-0.485h7.694
		v1.195c0,4.477-1.792,7.871-5.371,10.186c-3.583,2.313-8.827,3.466-15.72,3.466h-13.938c-8.368,0-14.361-1.547-17.973-4.638
		c-3.612-3.097-5.418-8.234-5.418-15.422v-7.422c0-7.308,1.791-12.514,5.376-15.62c3.581-3.11,9.585-4.665,18.015-4.665H911.632z"/>
</g>
<g>
	<path fill-rule="evenodd" clip-rule="evenodd" d="M234.189,585.613c-3.225,0-6.496-0.099-9.806-0.293
		c-1.717-0.104-3.258-0.235-3.426-0.297c-0.462-0.163-0.439-76.005,0.025-76.182c0.04-0.016,0.104-0.023,0.196-0.023
		c0.787,0,3.635,0.578,11.134,2.24c17.6,3.902,37.115,9.443,55.019,15.623c10.232,3.532,25.136,9.152,25.879,9.758
		c0.31,0.255,0.316,0.637,0.036,3.008c-0.789,6.751-3.351,13.316-7.437,19.061c-3.181,4.469-9.346,10.084-14.875,13.54
		C276.865,580.851,256.738,585.613,234.189,585.613z"/>
	<path fill-rule="evenodd" clip-rule="evenodd" d="M171.165,574.331l-0.542-0.013c-0.297-0.007-2.378-0.694-4.624-1.526
		c-16.753-6.208-32.237-14.143-45.41-23.28c-10.667-7.395-20.055-15.678-27.296-24.077c-3.818-4.427-8.782-11.301-10.268-14.217
		c-0.619-1.211-0.563-1.291,1.84-2.686c6.954-4.033,21.354-6.829,41.008-7.961c2.744-0.159,8.64-0.236,14.701-0.236
		c6.282,0,12.746,0.084,16.053,0.25c6.83,0.343,13.987,0.877,14.289,1.063c0.167,0.104,0.248,11.839,0.248,36.418V574.331z"/>
	<linearGradient id="SVGID_1_" gradientUnits="userSpaceOnUse" x1="135.8438" y1="424.8984" x2="215.3713" y2="538.4756">
		<stop  offset="0" style="stop-color:#0E4A81"/>
		<stop  offset="0.1156" style="stop-color:#005A8F"/>
		<stop  offset="0.345" style="stop-color:#0075AA"/>
		<stop  offset="0.5563" style="stop-color:#008CC4"/>
		<stop  offset="0.7426" style="stop-color:#009DD8"/>
		<stop  offset="0.8969" style="stop-color:#00A8E7"/>
		<stop  offset="1" style="stop-color:#00AEEF"/>
	</linearGradient>
	<path fill-rule="evenodd" clip-rule="evenodd" fill="url(#SVGID_1_)" d="M81.165,507.178l-0.861-1.681
		c-2.281-4.462-4.375-10.879-5.21-15.978c-1.865-11.362,0.112-21.694,5.814-30.38c12.062-18.376,38.837-28.607,72.071-28.636h0.611
		c9.854,0.029,20.266,0.95,31.03,2.819c12.272,2.13,26.34,5.943,37.841,10.252c14.015,5.252,26.285,11.315,38.443,18.986
		c3.541,2.238,4.524,2.932,4.369,3.09c-0.004,0.002-0.021,0.004-0.05,0.004c-0.332,0-2.223-0.216-4.46-0.511
		c-12.648-1.671-26.405-2.89-42.626-3.776c-3.637-0.198-12.124-0.298-20.518-0.298c-8.384,0-16.676,0.1-19.967,0.298
		c-20.344,1.227-34.714,3.115-48.893,6.427c-22.429,5.239-37.613,12.797-43.386,21.595c-0.971,1.479-1.624,3.135-1.347,3.412
		c0.002,0.003,0.007,0.004,0.014,0.004c0.164,0,1.264-0.933,2.52-2.137c14.64-14.053,53.205-22.765,100.738-22.765
		c0.03,0,0.057,0,0.085,0c22.515,0.003,44.716,1.773,69.556,5.544c9.508,1.442,23.145,3.879,24.354,4.35
		c0.375,0.147,3.147,2.71,6.15,5.694c5.023,4.985,6.957,7.096,6.713,7.335c-0.003,0.002-0.01,0.003-0.023,0.003
		c-0.237,0-2.197-0.423-4.515-0.979c-17.632-4.232-34.363-7.456-49.015-9.446c-2.973-0.404-6.166-0.842-7.09-0.973
		c-9.199-1.301-27.524-2.831-39.517-3.301c-3.48-0.136-7.591-0.199-11.916-0.199c-11.748,0-25.068,0.468-31.577,1.206
		c-0.595,0.068-2.756,0.293-4.806,0.503c-15.847,1.614-30.647,4.746-41.504,8.785c-10.599,3.94-17.615,8.513-20.931,13.641
		c-1.163,1.8-1.699,3.327-1.926,5.492L81.165,507.178z"/>
	<path fill-rule="evenodd" clip-rule="evenodd" d="M305.916,579.24h1.278c0.606,0,1.024-0.093,1.247-0.274
		c0.223-0.18,0.333-0.421,0.333-0.718l-0.16-0.521l-0.448-0.34c-0.188-0.075-0.54-0.112-1.055-0.112h-1.196V579.24L305.916,579.24z
		 M304.865,582.909v-6.52h2.242c0.763,0,1.315,0.062,1.66,0.184c0.342,0.121,0.614,0.33,0.817,0.629
		c0.206,0.299,0.305,0.616,0.305,0.955c0,0.477-0.169,0.892-0.511,1.243c-0.336,0.355-0.788,0.55-1.35,0.595
		c0.229,0.096,0.414,0.211,0.553,0.344c0.263,0.256,0.583,0.688,0.963,1.293l0.796,1.277h-1.284l-0.579-1.026
		c-0.456-0.812-0.821-1.315-1.102-1.518c-0.19-0.152-0.47-0.225-0.838-0.225h-0.621v2.769H304.865L304.865,582.909z
		 M307.522,574.506c0.843,0,1.673,0.218,2.48,0.652c0.81,0.438,1.438,1.06,1.89,1.871c0.45,0.811,0.68,1.654,0.679,2.532
		c0,0.869-0.224,1.708-0.667,2.509c-0.445,0.798-1.07,1.423-1.87,1.869c-0.801,0.445-1.64,0.671-2.512,0.671
		c-0.872,0-1.708-0.226-2.512-0.671c-0.802-0.446-1.43-1.071-1.875-1.869c-0.446-0.801-0.668-1.64-0.668-2.509
		c0-0.878,0.225-1.722,0.681-2.532c0.454-0.812,1.085-1.434,1.891-1.871C305.844,574.724,306.67,574.506,307.522,574.506
		L307.522,574.506z M307.522,573.5c1.018,0,2.012,0.264,2.977,0.785c0.971,0.52,1.723,1.267,2.263,2.236
		c0.543,0.972,0.813,1.986,0.813,3.04c0,1.041-0.266,2.048-0.799,3.009c-0.535,0.962-1.278,1.713-2.241,2.246
		c-0.961,0.53-1.964,0.797-3.013,0.797s-2.055-0.267-3.014-0.797c-0.958-0.533-1.708-1.284-2.241-2.246
		c-0.537-0.961-0.803-1.968-0.803-3.009c0-1.054,0.269-2.068,0.813-3.04c0.545-0.97,1.301-1.717,2.268-2.236
		C305.514,573.764,306.504,573.5,307.522,573.5z"/>
</g>
<polygon fill-rule="evenodd" clip-rule="evenodd" fill="#0E4A81" points="346.751,508.058 348.427,333.715 350.104,508.058 
	348.427,682.4 "/>
</svg>
