<?xml version="1.0" encoding="UTF-8"?>
<svg id="Logo" xmlns="http://www.w3.org/2000/svg" width="225.8mm" height="142.6mm" version="1.1" viewBox="0 0 640 404.1">
  <!-- Generator: Adobe Illustrator 29.3.1, SVG Export Plug-In . SVG Version: 2.1.0 Build 151)  -->
  <defs>
    <style>
      .st0 {
        fill: #fff;
      }
    </style>
  </defs>
  <path class="st0" d="M621.8,276c-1.9-1.6-40.6-16.1-67.3-25.4-46.7-16.1-97.4-30.5-143.2-40.6-21.9-4.9-28.5-6.1-29.5-5.8-1.2.4-1.3,197.9,0,198.4.4,0,4.5.5,8.9.8,68.9,4.1,131.4-8.3,173.3-34.5,14.4-9,30.4-23.6,38.7-35.2,10.7-14.9,17.3-32.1,19.4-49.6.8-6.1.7-7.2,0-7.8h-.2,0Z"/>
  <path class="st0" d="M214.1,182.8c-16.9-.9-65.6-.9-80,0-51.2,2.9-88.7,10.2-106.7,20.8-6.3,3.6-6.4,3.8-4.8,7,3.8,7.6,16.8,25.5,26.7,37,18.9,21.9,43.3,43.4,71.1,62.6,34.3,23.8,74.6,44.4,118.2,60.6,5.8,2.1,11.3,4,12,4h1.4v-94.3c0-64-.2-94.5-.6-94.8-.8-.5-19.4-1.9-37.3-2.8h0v-.2h0Z"/>
  <path id="b" class="st0" d="M15.4,195.5c-5.9-11.6-11.4-28.3-13.6-41.6-4.9-29.5.3-56.5,15.1-79.1C57.9,12.4,163.6-13.9,287,7.6c31.9,5.6,68.6,15.5,98.5,26.7,36.5,13.7,68.4,29.5,100.1,49.4,9.2,5.8,11.8,7.7,11.4,8,0,0-5.4-.5-11.7-1.3-32.9-4.3-68.8-7.5-111-9.8-18.9-1-88.3-1-105.4,0-53,3.1-90.4,8.1-127.3,16.7-58.3,13.7-97.9,33.3-113,56.2-2.6,3.8-4.3,8.1-3.5,8.9.3.3,3.1-2.3,6.6-5.6,38.1-36.6,138.6-59.3,262.5-59.2,58.6,0,181,14.4,181,14.4,0,0,60.2,10.1,63.4,11.4,1,.3,8.2,7,16,14.8,13,13,18.1,18.4,17.5,19.1,0,0-5.5-1-11.8-2.6-45.9-11-89.5-19.4-127.6-24.6-7.7-1-16.1-2.1-18.4-2.6-23.9-3.3-71.6-7.3-102.9-8.7-33.7-1.3-90.1,0-113.2,2.6-1.6.2-7.2.8-12.5,1.3-41.3,4.3-79.8,12.4-108,22.8-27.6,10.2-45.9,22.1-54.5,35.6-3.1,4.7-4.5,8.7-5,14.4l-.4,4.3-2.2-4.3h-.2s.1,0,.1,0Z"/>
  <path class="st0" d="M617.4,354.6c3.8,0,7.5.9,11.1,2.9s6.4,4.8,8.5,8.3c1.9,3.6,3,7.3,3,11.4s-.9,7.7-3,11.3-4.8,6.4-8.3,8.3-7.3,3-11.3,3-7.7-.9-11.3-3c-3.6-1.9-6.4-4.9-8.3-8.3-1.9-3.6-3-7.3-3-11.3s.9-7.7,3-11.4,4.9-6.4,8.5-8.3,7.3-2.9,11.1-2.9h.2,0ZM617.4,358.3c-3.3,0-6.3.8-9.2,2.4s-5.4,4-7.1,7-2.6,6.1-2.6,9.6.9,6.4,2.4,9.3c1.6,3,4,5.4,7,7s6.1,2.4,9.3,2.4,6.4-.9,9.3-2.4c3-1.6,5.4-4,7-7s2.4-6.1,2.4-9.3-.9-6.4-2.6-9.6-4.1-5.4-7.1-7-6.1-2.4-9.2-2.4h.4ZM607.5,389.8v-24.5h8.3c2.8,0,5,.2,6.2.7,1.3.4,2.2,1.2,3,2.3s1.2,2.3,1.2,3.5c0,1.7-.7,3.3-1.9,4.7s-3,2.1-5,2.2c.9.4,1.6.8,2.1,1.3.9.9,2.2,2.6,3.6,4.9l3,4.8h-4.9l-2.1-3.8c-1.6-3-3-4.9-4.1-5.6-.7-.6-1.7-.9-3.1-.9h-2.3v10.4h-4ZM611.5,376.3h4.8c2.2,0,3.8-.4,4.7-.9.9-.7,1.3-1.6,1.3-2.8s-.2-1.4-.6-1.9-.9-.9-1.6-1.3c-.7-.3-2.1-.4-4-.4h-4.5v7.3h0s0,0,0,0Z"/>
</svg>