<?xml version="1.0" encoding="UTF-8"?>
<svg id="Layer_1" data-name="Layer 1" xmlns="http://www.w3.org/2000/svg" width="490.82" height="280.77" viewBox="0 0 490.82 280.77">
  <g>
    <g>
      <path d="m392.56,134.45c-.96-.75-19.83-7.87-32.83-12.37-22.75-7.83-47.49-14.87-69.83-19.83-10.67-2.37-13.92-3-14.37-2.83-.58.21-.62,96.49,0,96.7.21,0,2.17.25,4.33.37,33.62,2,64.08-4.08,84.49-16.83,7-4.42,14.83-11.5,18.87-17.16,5.21-7.29,8.42-15.62,9.46-24.21.37-3,.33-3.5-.04-3.83h-.08Z" fill="#4e4d4d"/>
      <path d="m193.79,89c-8.25-.42-31.95-.42-39.04,0-24.96,1.42-43.25,4.96-52.04,10.12-3.08,1.75-3.12,1.87-2.33,3.42,1.87,3.71,8.21,12.46,13,18.04,9.21,10.67,21.12,21.16,34.66,30.54,16.71,11.58,36.37,21.66,57.62,29.54,2.83,1.04,5.5,1.96,5.87,1.96h.71v-45.99c0-31.2-.08-46.08-.29-46.2-.37-.25-9.46-.92-18.16-1.33h0v-.08Z" fill="#4e4d4d"/>
    </g>
    <path id="b" d="m96.88,95.2c-2.87-5.67-5.54-13.79-6.62-20.29-2.37-14.42.17-27.54,7.37-38.58C117.63,5.96,169.16-6.87,229.32,3.59c15.58,2.71,33.45,7.54,48.04,13,17.79,6.67,33.37,14.37,48.79,24.08,4.5,2.83,5.75,3.75,5.54,3.92,0,.04-2.62-.25-5.71-.62-16.04-2.12-33.54-3.67-54.12-4.79-9.21-.5-43.04-.5-51.37,0-25.83,1.54-44.08,3.96-62.08,8.17-28.46,6.67-47.74,16.25-55.08,27.41-1.25,1.87-2.08,3.96-1.71,4.33.12.12,1.54-1.12,3.21-2.71,18.58-17.83,67.58-28.91,127.99-28.87,28.58,0,88.28,7.04,88.28,7.04,0,0,29.37,4.92,30.91,5.54.5.17,4,3.42,7.79,7.21,6.37,6.33,8.83,9,8.54,9.33-.04.04-2.67-.5-5.75-1.25-22.37-5.37-43.62-9.46-62.2-12-3.75-.5-7.83-1.04-9-1.25-11.67-1.62-34.91-3.58-50.16-4.21-16.41-.62-43.91,0-55.2,1.29-.75.08-3.5.37-6.08.62-20.12,2.08-38.91,6.04-52.66,11.12-13.46,5-22.37,10.79-26.58,17.33-1.5,2.29-2.17,4.21-2.46,7l-.21,2.08-1.08-2.12h-.08v-.04Z" fill="#3875bb"/>
    <g id="c">
      <g id="d">
        <path d="m390.43,172.78c1.83,0,3.67.46,5.42,1.42s3.12,2.33,4.12,4.08c.96,1.75,1.46,3.58,1.46,5.54s-.46,3.75-1.46,5.5-2.33,3.12-4.08,4.08-3.58,1.46-5.5,1.46-3.75-.46-5.5-1.46c-1.75-.96-3.12-2.37-4.08-4.08-.96-1.75-1.46-3.58-1.46-5.5s.46-3.75,1.46-5.54,2.37-3.12,4.12-4.08c1.75-.96,3.54-1.42,5.42-1.42h.08Zm0,1.83c-1.58,0-3.08.37-4.5,1.17s-2.62,1.96-3.46,3.42-1.25,3-1.25,4.67.42,3.12,1.17,4.54c.79,1.46,1.96,2.62,3.42,3.42s3,1.17,4.54,1.17,3.12-.42,4.54-1.17c1.46-.79,2.62-1.96,3.42-3.42.79-1.46,1.17-3,1.17-4.54s-.42-3.12-1.25-4.67-2-2.62-3.46-3.42-3-1.17-4.5-1.17h.17Zm-4.83,15.33v-11.92h4.08c1.37,0,2.42.08,3.04.33.62.21,1.08.58,1.46,1.12s.58,1.12.58,1.71c0,.83-.33,1.62-.96,2.29s-1.46,1-2.46,1.08c.42.21.75.37,1,.62.46.46,1.08,1.25,1.75,2.37l1.46,2.33h-2.37l-1.04-1.83c-.79-1.46-1.46-2.37-2-2.75-.33-.29-.83-.42-1.5-.42h-1.12v5.04s-1.92,0-1.92,0Zm1.92-6.58h2.33c1.08,0,1.83-.21,2.29-.46.42-.33.62-.75.62-1.33,0-.33-.08-.67-.29-.96s-.42-.46-.79-.62c-.33-.12-1-.21-1.96-.21h-2.17v3.58h-.04Z" fill="#4e4d4d"/>
      </g>
    </g>
  </g>
  <g>
    <path d="m215.52,248.18c-2.44-1.84-6.32-2.81-11.58-2.88h-18.09c-2.96-.15-4.87-.43-5.69-.8s-1.25-.97-1.25-1.82.39-1.43,1.19-1.77,2.19-.54,4.15-.54h10.34c2.08,0,3.74.19,4.95.54s2.01.89,2.38,1.58h14.8c-.04-3.66-1.36-6.34-3.94-8.09-2.57-1.75-6.53-2.62-11.9-2.62h-16.77c-7.25,0-12.38.91-15.45,2.73s-4.61,4.8-4.61,8.98c0,3.94,1.43,6.75,4.26,8.39,2.83,1.67,7.94,2.49,15.34,2.51l14.63.24c2.12.11,3.68.41,4.61.89s1.43,1.17,1.43,2.08c0,1.02-.43,1.73-1.32,2.14s-2.4.65-4.57.65h-10.8c-2.81,0-4.85-.26-6.12-.78s-1.9-1.34-1.9-2.47v-.13l-15.69.04h0c.09,4.48,1.6,7.57,4.61,9.33,2.99,1.75,8.72,2.62,17.22,2.62h15.04c6.86,0,11.66-.91,14.37-2.75,2.73-1.84,4.07-4.98,4.07-9.43,0-3.92-1.21-6.77-3.68-8.63h-.04,0Z" fill="#4e4d4d"/>
    <path d="m151.15,234.53c-3.25-1.84-8.85-2.75-16.81-2.75-6.4,0-10.97.54-13.72,1.64-2.75,1.08-4.28,2.92-4.59,5.5v-6.64h-14.8v48.49h14.8v-18.78c.78,2.38,2.49,4.07,5.13,5.02,2.64.97,7.1,1.43,13.41,1.43,7.53,0,12.98-1,16.36-2.99s5.06-5.17,5.06-9.58v-11.96c0-4.41-1.62-7.53-4.85-9.37h0Zm-9.93,17.89c0,2.21-.71,3.76-2.14,4.72-1.43.95-3.83,1.41-7.18,1.41h-6.71c-3.57,0-6.01-.45-7.36-1.36s-2.01-2.57-2.01-4.98v-4.37c0-2.21.71-3.76,2.12-4.7s3.83-1.36,7.25-1.36h6.71c3.44,0,5.84.45,7.25,1.38,1.38.93,2.08,2.51,2.08,4.74v4.52h0Z" fill="#4e4d4d"/>
    <rect x="74.58" y="232.24" width="14.8" height="36.24" fill="#4e4d4d"/>
    <polygon points="0 229.81 24.32 229.81 24.32 268.5 42.04 268.5 42.04 229.81 66.36 229.81 66.36 217.24 0 217.24 0 229.81" fill="#4e4d4d"/>
    <rect x="74.58" y="217.24" width="14.8" height="10.65" fill="#4e4d4d"/>
    <polygon points="282.7 223.63 282.7 217.98 218.05 217.98 218.05 223.63 246.79 223.63 246.79 268.76 253.99 268.76 253.99 223.63 282.7 223.63" fill="#3875bb"/>
    <path d="m305.7,234.6c-2.79-1.82-7.64-2.7-14.52-2.7-5.15,0-8.91.45-11.34,1.38-2.42.91-4.31,2.51-5.63,4.76v-5.3h-6.27v35.53h6.58v-22.26c0-3.09,1.19-5.32,3.59-6.71,2.38-1.38,6.21-2.08,11.49-2.08,5.73,0,9.54.54,11.42,1.6s2.83,3.22,2.83,6.4v3.35h5.99v-4.74c0-4.35-1.38-7.42-4.18-9.22h.02v-.02Z" fill="#3875bb"/>
    <path d="m362.22,235.07c-2.96-2.12-7.57-3.2-13.89-3.2h-11.73c-6.17,0-10.62.82-13.35,2.44-2.75,1.62-4.11,4.26-4.11,7.9v.97h6.82v-1.06c0-1.93.69-3.22,2.1-3.89s4.59-.97,9.56-.97h9.67c5.08,0,8.55.58,10.41,1.75,1.84,1.17,2.77,3.29,2.77,6.32v4.91c-1.38-1.47-3.22-2.55-5.45-3.25-2.25-.67-5.06-1.02-8.48-1.02h-11.42c-6.88,0-11.73.82-14.52,2.49-2.81,1.67-4.2,4.52-4.2,8.59,0,4.31,1.41,7.33,4.22,9.07s7.7,2.6,14.67,2.6h10.84c4.28,0,7.49-.41,9.61-1.19,2.12-.8,3.7-2.12,4.76-4.02v4.74h6.19v-23.22c0-4.54-1.47-7.88-4.44-10.02v.04h0l-.02.02Zm-4.87,27.37c-1.82.69-5.39,1.04-10.67,1.04h-9.76c-5.89,0-9.61-.43-11.14-1.28-1.56-.84-2.32-2.64-2.32-5.39,0-2.34.82-3.92,2.47-4.72,1.67-.82,5.3-1.21,10.99-1.21h9.76c5.21,0,8.74.35,10.6,1.06s2.79,1.93,2.79,3.68v3.14h0c0,1.75-.91,2.99-2.73,3.68h0Z" fill="#3875bb"/>
    <path d="m422.02,236.89c-1.38-1.73-3.12-2.99-5.15-3.81-2.06-.82-4.59-1.21-7.64-1.21h-12.51c-6.92,0-11.92,1.19-14.97,3.57-3.03,2.36-4.54,6.32-4.54,11.81v5.63c0,5.73,1.51,9.8,4.5,12.22s8.01,3.63,15.02,3.63h10.84c4.52,0,7.88-.5,10.08-1.45s3.85-2.6,4.98-4.89v5.86h5.65v-50.76h-6.27v19.39h.02Zm.09,15.38c0,4.41-.97,7.38-2.9,8.89-1.93,1.51-5.84,2.29-11.77,2.29h-9.11c-5.91,0-9.82-.76-11.77-2.29-1.93-1.51-2.9-4.48-2.9-8.89v-4.26c0-4.28.97-7.16,2.92-8.63,1.95-1.49,5.86-2.23,11.75-2.23h9.11c5.89,0,9.8.74,11.75,2.23s2.92,4.37,2.92,8.63v4.26h0Z" fill="#3875bb"/>
    <path d="m484.12,257.29v.37c0,2.06-1.08,3.59-3.22,4.59-2.14.97-5.5,1.49-10.02,1.49h-10.6c-5.19,0-8.83-.74-10.9-2.25-2.1-1.51-3.14-4.13-3.14-7.94v-1.95l44.55-.04c.04-.32.04-.67.04-1.06v-1.71c0-6.27-1.51-10.65-4.52-13.15-3.01-2.51-8.33-3.76-15.99-3.76h-10.15c-7.38,0-12.64,1.19-15.77,3.59s-4.7,6.4-4.7,12.05v5.73c0,5.54,1.58,9.52,4.74,11.9s8.39,3.59,15.73,3.59h12.2c6.04,0,10.62-.89,13.76-2.66,3.14-1.8,4.7-4.39,4.7-7.85v-.91h-6.71v-.02Zm-34.81-18.11c2.06-1.41,5.65-2.1,10.77-2.1h10.1c5.54,0,9.22.61,11.08,1.82,1.86,1.19,2.79,3.42,2.79,6.62v.84h-37.82c0-3.38,1.04-5.78,3.07-7.16h0v-.02Z" fill="#3875bb"/>
  </g>
</svg>