<?xml version="1.0" encoding="utf-8"?>
<!-- Generator: Adobe Illustrator 25.2.3, SVG Export Plug-In . SVG Version: 6.00 Build 0)  -->
<svg version="1.1" id="Layer_1" xmlns="http://www.w3.org/2000/svg" xmlns:xlink="http://www.w3.org/1999/xlink" x="0px" y="0px"
	 viewBox="0 0 1771.65 325.98" style="enable-background:new 0 0 1771.65 325.98;" xml:space="preserve">
<style type="text/css">
	.st0{fill:#FFFFFF;}
</style>
<g>
	<g>
		<path id="path3046" class="st0" d="M568.18,239.64h-45.33V127.39h-62.2V90.94h169.74v36.45h-62.2V239.64z M689.29,121.8h-37.84
			V90.94h37.84V121.8z M689.29,239.64h-37.84V134.48h37.84V239.64z M757.49,220.67v54.53h-37.84V134.48h37.84v19.27
			c0.8-7.46,4.71-12.77,11.73-15.93c7.02-3.16,18.72-4.74,35.1-4.74c20.37,0,34.7,2.66,42.98,7.99
			c8.29,5.33,12.43,14.38,12.43,27.16v34.75c0,12.78-4.33,22.05-12.98,27.81c-8.65,5.76-22.6,8.64-41.84,8.64
			c-16.11,0-27.54-1.4-34.3-4.19C763.86,232.45,759.48,227.59,757.49,220.67L757.49,220.67L757.49,220.67z M780.85,162.15
			c-8.72,0-14.89,1.33-18.52,3.99c-3.63,2.66-5.44,7.19-5.44,13.58v12.68c0,6.99,1.71,11.8,5.14,14.43
			c3.43,2.63,9.7,3.94,18.82,3.94h17.17c8.59,0,14.71-1.36,18.37-4.09c3.66-2.73,5.49-7.29,5.49-13.68v-13.08
			c0-6.46-1.78-11.03-5.34-13.73c-3.56-2.7-9.73-4.04-18.52-4.04H780.85L780.85,162.15z M879.9,206.39l40.14-0.1v0.4
			c0,3.26,1.63,5.64,4.89,7.14c3.26,1.5,8.49,2.25,15.68,2.25h27.66c5.52,0,9.42-0.62,11.68-1.85c2.26-1.23,3.39-3.31,3.39-6.24
			c0-2.66-1.21-4.68-3.64-6.04c-2.43-1.36-6.37-2.21-11.83-2.55l-37.44-0.7c-18.9-0.07-31.98-2.5-39.24-7.29
			c-7.26-4.79-10.88-12.92-10.88-24.37c0-12.12,3.93-20.81,11.78-26.06c7.85-5.26,21.03-7.89,39.54-7.89h42.93
			c13.71,0,23.86,2.53,30.45,7.59c6.59,5.06,9.95,12.88,10.08,23.47h-37.84c-0.93-2-2.96-3.51-6.09-4.54
			c-3.13-1.03-7.36-1.55-12.68-1.55h-26.46c-5.06,0-8.6,0.52-10.63,1.55c-2.03,1.03-3.05,2.75-3.05,5.14c0,2.46,1.07,4.23,3.2,5.29
			c2.13,1.07,6.99,1.83,14.58,2.3h46.23c13.51,0.2,23.4,2.98,29.65,8.34c6.26,5.36,9.39,13.7,9.39,25.02
			c0,12.92-3.48,22.04-10.43,27.36c-6.96,5.33-19.22,7.99-36.79,7.99h-38.44c-21.7,0-36.38-2.53-44.03-7.59
			S880.1,219.37,879.9,206.39L879.9,206.39L879.9,206.39z"/>
		<g id="g3048" transform="translate(961.99515,-548.46435)">
			<path id="path3050" class="st0" d="M148.4,788.84h-18.44v-130.9H56.48v-16.42h165.39v16.42H148.4L148.4,788.84L148.4,788.84z"/>
			<g id="g3052" transform="matrix(1.1487854,0,0,1,-133.70949,2.6628213e-6)">
				<path id="path3054" class="st0" d="M276.69,787.45V684.36h13.96v15.34c2.93-6.53,7.1-11.13,12.5-13.8
					c5.4-2.67,13.82-4.01,25.26-4.01c15.34,0,26.12,2.62,32.32,7.87c6.21,5.24,9.31,14.16,9.31,26.76v13.75h-13.36v-9.7
					c0-9.3-2.11-15.5-6.34-18.6c-4.22-3.1-12.71-4.65-25.47-4.65c-11.72,0-20.24,2.01-25.56,6.04c-5.32,4.02-7.97,10.52-7.97,19.49
					v64.61H276.69L276.69,787.45z"/>
				<path id="path3056" class="st0" d="M481.75,759.85v-9.1c0-5.08-2.07-8.64-6.21-10.69c-4.14-2.04-12.01-3.07-23.62-3.07h-21.72
					c-12.64,0-20.8,1.17-24.48,3.51c-3.68,2.34-5.52,6.91-5.52,13.7c0,7.92,1.72,13.11,5.17,15.58c3.45,2.47,11.72,3.71,24.82,3.71
					h21.72c11.78,0,19.7-1.01,23.75-3.02C479.73,768.47,481.75,764.93,481.75,759.85L481.75,759.85L481.75,759.85z M455.63,681.88
					c14.02,0,24.32,3.08,30.9,9.25c6.58,6.17,9.87,15.85,9.87,29.04v67.28h-13.79V773.7c-2.36,5.47-5.89,9.37-10.6,11.67
					c-4.71,2.31-11.84,3.46-21.38,3.46H426.5c-15.52,0-26.4-2.51-32.67-7.52c-6.26-5.01-9.4-13.79-9.4-26.32
					c0-11.81,3.12-20.12,9.35-24.93c6.23-4.82,17.02-7.22,32.37-7.22h25.43c7.59,0,13.88,0.99,18.88,2.97
					c5,1.98,9.05,5.11,12.15,9.4v-14.25c0-8.84-2.05-14.96-6.16-18.35c-4.11-3.4-11.82-5.1-23.14-5.1h-21.55
					c-11.09,0-18.19,0.96-21.29,2.87c-3.1,1.91-4.65,5.67-4.65,11.28v3.07h-15.17v-2.87c0-10.55,3.05-18.19,9.14-22.9
					c6.09-4.72,16-7.07,29.74-7.07L455.63,681.88L455.63,681.88z"/>
				<path id="path3058" class="st0" d="M587.26,773.5c13.16,0,21.89-2.21,26.2-6.63c4.31-4.42,6.46-13.03,6.46-25.82v-12.37
					c0-12.4-2.17-20.76-6.51-25.08c-4.34-4.32-13.06-6.48-26.16-6.48H567c-13.1,0-21.82,2.16-26.16,6.48
					c-4.34,4.32-6.51,12.68-6.51,25.08v12.37c0,12.8,2.15,21.4,6.46,25.82c4.31,4.42,13.04,6.63,26.2,6.63H587.26L587.26,773.5z
					 M587.6,788.84h-24.13c-15.63,0-26.78-3.51-33.44-10.54c-6.67-7.02-10-18.85-10-35.47v-16.33c0-15.96,3.38-27.39,10.13-34.28
					c6.75-6.89,17.86-10.34,33.31-10.34h27.84c6.78,0,12.44,1.17,16.98,3.51c4.54,2.34,8.36,6.02,11.46,11.03v-56.3h13.96v147.32
					h-12.58v-17.02c-2.47,6.66-6.16,11.39-11.08,14.2C605.14,787.44,597.66,788.84,587.6,788.84L587.6,788.84L587.6,788.84z"/>
				<path id="path3060" class="st0" d="M727.32,681.88c17.07,0,28.95,3.63,35.64,10.88c6.69,7.26,10.04,19.99,10.04,38.19
					c0,2.18-0.01,3.83-0.04,4.95c-0.03,1.12-0.07,2.14-0.13,3.07l-99.21,0.1v5.64c0,11.02,2.33,18.7,6.98,23.05
					s12.76,6.53,24.31,6.53h23.62c10.06,0,17.48-1.43,22.28-4.3c4.8-2.87,7.2-7.3,7.2-13.31v-1.09h15v2.67
					c0,10.03-3.49,17.63-10.47,22.81c-6.98,5.18-17.2,7.77-30.64,7.77h-27.15c-16.32,0-28-3.46-35.04-10.39
					c-7.04-6.93-10.56-18.44-10.56-34.53V727.3c0-16.36,3.49-28.02,10.47-34.98c6.98-6.96,18.69-10.44,35.12-10.44L727.32,681.88
					L727.32,681.88z M673.62,724.03h84.21v-2.47c0-9.3-2.07-15.7-6.21-19.19c-4.14-3.5-12.35-5.24-24.65-5.24h-22.5
					c-11.44,0-19.44,2.03-24.01,6.08C675.91,707.26,673.62,714.2,673.62,724.03L673.62,724.03L673.62,724.03z"/>
			</g>
		</g>
	</g>
	<g>
		<g>
			<path class="st0" d="M435.55,211.1c-1.18-0.96-24.78-9.86-40.99-15.46c-28.35-9.79-59.27-18.56-87.14-24.74
				c-13.27-2.94-17.35-3.74-17.94-3.51c-0.73,0.28-0.77,120.4-0.04,120.66c0.26,0.09,2.7,0.3,5.42,0.46
				c41.94,2.49,79.94-5.09,105.41-21.02c8.76-5.48,18.52-14.37,23.56-21.44c6.47-9.09,10.53-19.5,11.78-30.19
				C436.05,212.11,436.04,211.51,435.55,211.1z"/>
			<path class="st0" d="M187.55,154.32c-10.29-0.52-39.86-0.53-48.71-0.02c-31.13,1.79-53.94,6.22-64.95,12.61
				c-3.81,2.21-3.89,2.33-2.91,4.25c2.35,4.62,10.22,15.51,16.26,22.52c11.47,13.3,26.34,26.42,43.23,38.13
				c20.87,14.47,45.39,27.04,71.92,36.87c3.56,1.32,6.85,2.41,7.33,2.42l0.86,0.02v-57.44c0-38.93-0.13-57.52-0.39-57.68
				C209.7,155.71,198.37,154.86,187.55,154.32z"/>
		</g>
		<path id="Logo_Top" class="st0" d="M66.67,162.1c-3.61-7.07-6.93-17.23-8.26-25.31c-2.95-17.99,0.18-34.36,9.21-48.12
			c24.87-37.89,89.24-53.92,164.26-40.89c19.44,3.38,41.72,9.41,59.93,16.24c22.2,8.32,41.63,17.92,60.89,30.07
			c5.61,3.54,7.17,4.64,6.92,4.89c-0.07,0.07-3.28-0.29-7.14-0.8c-20.04-2.65-41.82-4.58-67.52-5.98c-11.51-0.63-53.69-0.63-64.12,0
			c-32.22,1.94-54.98,4.93-77.44,10.18c-35.52,8.3-59.57,20.27-68.72,34.2c-1.54,2.34-2.57,4.96-2.13,5.4
			c0.13,0.13,1.94-1.39,4.01-3.38c23.2-22.27,84.34-36.07,159.69-36.06c35.66,0.01,70.82,2.81,110.16,8.78
			c15.06,2.29,36.66,6.14,38.57,6.89c0.6,0.23,4.98,4.29,9.74,9.02c7.95,7.9,11.01,11.24,10.63,11.61
			c-0.08,0.08-3.32-0.62-7.19-1.54c-27.92-6.7-54.42-11.81-77.63-14.96c-4.71-0.64-9.76-1.33-11.23-1.54
			c-14.57-2.06-43.6-4.48-62.59-5.23c-20.49-0.8-54.78-0.01-68.89,1.59c-0.94,0.11-4.37,0.46-7.61,0.8
			c-25.1,2.56-48.54,7.52-65.74,13.91c-16.79,6.24-27.9,13.49-33.15,21.61c-1.84,2.85-2.69,5.27-3.05,8.7l-0.27,2.56L66.67,162.1
			L66.67,162.1z"/>
		<g id="layer4">
			<path id="TM" class="st0" d="M423.54,264.8c1.61,0,3.18,0.41,4.72,1.24c1.53,0.83,2.73,2.01,3.58,3.55
				c0.86,1.54,1.28,3.14,1.28,4.81c0,1.65-0.42,3.24-1.26,4.77c-0.84,1.53-2.03,2.71-3.55,3.55s-3.11,1.26-4.77,1.26
				c-1.66,0-3.25-0.42-4.77-1.26c-1.52-0.84-2.71-2.03-3.55-3.55c-0.85-1.53-1.27-3.11-1.27-4.77c0-1.67,0.43-3.27,1.29-4.81
				c0.86-1.54,2.06-2.72,3.59-3.55C420.36,265.22,421.93,264.8,423.54,264.8L423.54,264.8z M423.54,266.39
				c-1.35,0-2.66,0.35-3.93,1.04c-1.28,0.69-2.27,1.68-2.99,2.96c-0.72,1.28-1.08,2.62-1.08,4.01c0,1.38,0.35,2.71,1.06,3.97
				c0.71,1.27,1.7,2.25,2.97,2.96c1.27,0.71,2.6,1.06,3.98,1.06c1.38,0,2.71-0.35,3.98-1.06c1.27-0.71,2.26-1.69,2.96-2.96
				c0.7-1.27,1.05-2.59,1.05-3.97c0-1.39-0.36-2.73-1.07-4.01c-0.72-1.28-1.71-2.27-2.99-2.96
				C426.19,266.74,424.88,266.39,423.54,266.39L423.54,266.39z M419.33,279.7v-10.32h3.55c1.21,0,2.09,0.1,2.63,0.29
				c0.54,0.19,0.97,0.52,1.3,1c0.32,0.47,0.48,0.98,0.48,1.51c0,0.75-0.27,1.41-0.81,1.97c-0.54,0.56-1.25,0.87-2.14,0.94
				c0.36,0.15,0.66,0.33,0.88,0.55c0.42,0.41,0.92,1.09,1.53,2.05l1.26,2.02h-2.03l-0.92-1.63c-0.72-1.28-1.3-2.08-1.74-2.4
				c-0.31-0.24-0.75-0.36-1.33-0.36H421v4.39L419.33,279.7L419.33,279.7z M421,273.89h2.02c0.97,0,1.62-0.14,1.98-0.43
				c0.35-0.29,0.53-0.67,0.53-1.14c0-0.31-0.08-0.58-0.25-0.82c-0.17-0.24-0.4-0.42-0.71-0.54c-0.3-0.12-0.86-0.18-1.67-0.18H421
				L421,273.89L421,273.89z"/>
		</g>
	</g>
</g>
</svg>
