<?xml version="1.0" encoding="utf-8"?>
<!-- Generator: Adobe Illustrator 25.2.3, SVG Export Plug-In . SVG Version: 6.00 Build 0)  -->
<svg version="1.1" id="Layer_1" xmlns="http://www.w3.org/2000/svg" xmlns:xlink="http://www.w3.org/1999/xlink" x="0px" y="0px"
	 viewBox="0 0 286.3 178.58" style="enable-background:new 0 0 286.3 178.58;" xml:space="preserve">
<style type="text/css">
	.st0{fill:#FFFFFF;}
</style>
<g>
	<g id="g3812" transform="matrix(0.70591233,0,0,0.70591233,-170.83588,196.64746)">
		<path id="path12" class="st0" d="M609.89-56.16c0.4,3.7,2.2,5.8,6,6.4c4.8,0.7,9.6,0.7,14.4-0.1c3.7-0.6,4.7-1.9,5.1-5.7
			c0-0.1,0.1-0.2,0.1-0.4c1.7,0,3.5,0,5.2,0c0.1,0.5,0.2,1,0.2,1.5c0,2.7-1.4,5.1-4,6.6c-2.4,1.4-5,2-7.7,2.1
			c-4.4,0.2-8.9,0.1-13.3,0c-1.5,0-3.1-0.5-4.6-1c-3.5-1.2-5.7-3.8-6.3-7.3c-0.9-5.1-0.9-10.4-0.1-15.5c0.8-5.2,4.3-8,9.3-9
			c4.4-0.9,8.9-0.5,13.3-0.4c2.2,0.1,4.4,0.6,6.5,1.3c4.6,1.6,6.9,5.2,7,10c0,2,0,4.1,0,6.3c-0.6,0-1.1,0-1.6,0c-9.3,0-18.6,0-28,0
			c-1.5,0-1.5,0-1.5,1.5C609.89-58.56,609.79-57.36,609.89-56.16L609.89-56.16z M635.29-65.26c0-1.1,0.1-2.2,0-3.2
			c-0.4-3.8-1.7-5.5-5.3-6.1c-4.7-0.8-9.6-0.7-14.3,0c-2.7,0.3-4.6,1.9-5.2,4.6c-0.3,1.1-0.3,2.4-0.5,3.5c-0.2,1,0.2,1.3,1.2,1.3
			c7.7,0,15.4,0,23,0C634.49-65.16,634.79-65.16,635.29-65.26L635.29-65.26z"/>
		<path id="path19" class="st0" d="M567.89-78.36c5.8-1,11.7-0.9,17.5-0.1c2.3,0.3,4.3,1.4,5.7,3.3c0.1,0,0.2-0.1,0.3-0.1
			c0-5.7,0-11.4,0-17.2c2,0,3.9,0,5.9,0c0,0.4,0.1,0.8,0.1,1.2c0,14.8,0,29.6,0,44.5c0,1-0.3,1.3-1.3,1.3c-1.3-0.1-2.5,0-3.8,0
			c-0.7,0-0.9-0.2-0.9-0.9c0-0.8,0-1.6,0-2.5c-0.2,0-0.3,0-0.3,0c-2.6,2.5-5.8,3.2-9.2,3.4c-4.7,0.2-9.4,0.4-14-0.5
			c-6.4-1.2-10.4-5.9-10.5-12.5c-0.1-3-0.2-6,0.2-8.9C558.29-74.66,562.89-77.56,567.89-78.36L567.89-78.36z M569.59-50.16
			c5,1.2,10.1,1.2,15.1,0c4.1-0.9,6.3-3.8,6.6-7.9c0.2-2.9,0.2-5.9,0-8.8c-0.2-4.1-2.4-6.7-6.5-7.5c-2.4-0.5-4.9-0.6-6.8-0.8
			c-2.6,0.2-4.7,0.3-6.8,0.5c-4.8,0.6-7.6,3.4-7.9,8.1c-0.2,2.9-0.2,5.8,0,8.7C563.49-53.66,565.59-51.06,569.59-50.16L569.59-50.16
			z"/>
		<path id="path26" class="st0" d="M521.89-65.56c5.6-0.6,11.3-0.7,16.9,0.2c1.4,0.2,2.8,1.1,4.2,1.7c0.2,0.1,0.4,0.2,1,0.6
			c-0.1-3-0.1-5.8-0.5-8.5c-0.3-1.9-2-2.9-3.8-3.1c-5.4-0.8-10.7-0.7-16.1,0c-1.9,0.3-3.2,1.3-3.4,3.4c0,0.2-0.4,0.7-0.6,0.7
			c-1.7,0.1-3.5,0-5.3,0c-0.2-2.4,0.6-4.3,2.3-5.8c1.8-1.7,4.1-2.4,6.5-2.4c5.6-0.1,11.1-0.2,16.7,0c1.8,0.1,3.7,0.7,5.4,1.5
			c2.9,1.4,4.5,3.8,4.5,7.2c0,7.8,0,15.5,0,23.3c0,0.8-0.2,1.2-1.1,1.1c-1.5-0.1-3.1,0-4.8,0c0-0.9,0-1.7,0-2.6
			c-3.1,2.5-6.6,2.5-10.1,2.6c-3,0-6,0.1-9-0.1c-2-0.1-4-0.5-5.8-1.2c-3.3-1.1-5.3-3.5-5.6-7.1c-0.2-3-0.2-5.8,1.9-8.2
			C516.99-64.16,519.29-65.26,521.89-65.56L521.89-65.56z M530.89-49.26c2.9-0.2,5.3-0.3,7.8-0.6c2.2-0.3,4-1.4,4.6-3.6
			c1-3.8,0-7.4-4.8-8c-4-0.4-8.1-0.3-12.1-0.4c-1.1,0-2.2,0.2-3.3,0.5c-2.9,0.7-4.1,2.5-4.1,5.6c0,3.2,1.2,5.1,4.1,5.7
			C525.79-49.56,528.49-49.46,530.89-49.26z"/>
		<path id="path33" class="st0" d="M471.09-78.86c1.1,0.1,2.2,0.1,3.3,0c1-0.1,1.5,0.2,1.4,1.3c-0.1,0.8,0,1.6,0,2.5
			c0.3-0.1,0.4-0.1,0.5-0.1c2.5-2.5,5.7-3.4,9-3.5c4.4-0.1,8.7,0.1,13.1,0.4c1.5,0.1,3.1,0.8,4.5,1.4c3.9,1.8,5.6,5,5.8,9.1
			c0.1,2.4,0.1,2.4-2.3,2.4c-1.1,0-2.2,0-3.4,0c-0.1-1-0.2-1.8-0.3-2.7c-0.4-3.5-2.1-5.7-5.5-6.4c-4.8-1.1-9.7-1.1-14.5,0.2
			c-4.5,1.2-6.8,4.4-6.8,9c0,6.2,0,12.4,0,18.6c0,1-0.2,1.4-1.3,1.3c-1.5-0.1-3,0-4.7,0c0-0.5,0-0.8,0-1.1c0-10.3,0-20.7,0-31
			C469.89-78.56,470.09-78.86,471.09-78.86L471.09-78.86z"/>
		<path id="path40" class="st0" d="M426.09-92.46c15.2,0,30.4,0,45.6,0c1.4,0,1.4,0,1.4,1.4c0,1,0,2,0,3.2c-0.5,0-0.9,0-1.3,0
			c-6.1,0-12.3,0-18.5,0c-1.1,0-1.4,0.2-1.4,1.4c0,13.1,0,26.3,0,39.4c0,0.5,0,0.9,0,1.6c-1.8,0-3.6,0-5.4,0c-0.2,0-0.4-0.3-0.5-0.6
			c-0.1-0.3,0-0.7,0-1.1c0-13,0-26,0-39c0-0.5,0-1.1-0.1-1.7c-7.1,0-14.1,0-21.2,0c0-1.5,0-2.8,0-4.2c0-0.2,0.3-0.4,0.5-0.4
			C425.49-92.46,425.79-92.46,426.09-92.46L426.09-92.46z"/>
		<path id="path47" class="st0" d="M401.69-67.16c4,0.2,7.9,0.2,11.9,0.5c2.5,0.2,5.1,0.7,7.4,1.5c3.6,1.2,5.1,3.6,5,7.4
			c0,1.3,0,2.7-0.2,4c-0.4,2.8-1.9,4.7-4.4,5.9c-2.4,1.1-5,1.7-7.6,1.7c-5.3,0.1-10.7,0.1-16,0c-2.9-0.1-5.7-0.7-8.3-2.2
			c-3.2-1.8-4.8-4.8-4.3-8.3c3.9,0,7.8,0,11.7,0c0.4,2.2,1.2,3,4,3.1c3.2,0.1,6.3,0.1,9.5,0c0.5,0,0.9-0.2,1.4-0.3
			c1.1-0.3,1.5-1.2,1.6-2.2s-0.3-1.9-1.3-2.3c-0.9-0.3-1.8-0.6-2.7-0.6c-4-0.2-8.1-0.3-12.1-0.5c-2.6-0.1-5.1-0.6-7.5-1.7
			c-2.9-1.2-4.3-3.5-4.4-6.5c0-1.3-0.1-2.7,0.1-4c0.4-3.2,2.3-5.3,5.2-6.5c2.6-1.1,5.3-1.6,8.1-1.7c5.3-0.1,10.6-0.1,15.9,0.2
			c2.2,0.1,4.5,0.8,6.6,1.6c3.7,1.5,5.1,4.4,4.6,8.5c-4.2,0-8.3,0-12.5,0c0.1-2.2-1.5-2.7-3.1-2.7c-3.5-0.1-7.1-0.1-10.6,0
			c-1.2,0-2.3,0.4-2.6,1.8c-0.3,1.3,0.2,2.3,1.4,2.6C399.49-67.46,400.59-67.26,401.69-67.16L401.69-67.16z"/>
		<path id="path54" class="st0" d="M353.59-54.06c1.3,0,2.5,0.1,3.8,0c4-0.2,6-1.9,6.3-5.6c0.2-2.1,0.2-4.3,0-6.4
			c-0.3-3.4-2.1-5.2-5.5-5.5c-2.9-0.3-5.8-0.4-8.7-0.2c-3.6,0.3-6.6,2.9-6.3,7.1c0.1,1.3,0,2.5,0,3.8c0,3.4,1.9,5.9,5.2,6.5
			c1.7,0.3,3.4,0.3,5.1,0.4C353.59-53.96,353.59-53.96,353.59-54.06L353.59-54.06z M354.09-79.66c4.5,0,9-0.3,13.5,0.7
			c0.6,0.1,1.3,0.3,1.9,0.5c4.7,1.5,7.8,4.5,8.2,9.5c0.3,4.4,0.3,8.8-0.1,13.2c-0.4,4.2-3,7-7,8.3c-2.4,0.7-5,1.3-7.5,1.4
			c-4.1,0.2-8.2,0.1-12.3-0.2c-3.1-0.2-5.8-1.7-7.7-4.2c-0.1-0.1-0.2-0.1-0.4-0.2c0,6.1,0,12.1,0,18.2c-4.7,0-9.3,0-13.9,0
			c0-15.6,0-31.2,0-46.8c4.6,0,9.2,0,13.9,0c0,1.3,0,2.6,0,4.1c0.5-0.3,0.8-0.5,1.1-0.7C346.69-78.46,350.19-79.66,354.09-79.66z"/>
		<path id="path61" class="st0" d="M320.69-93.06c0,3,0,5.8,0,8.8c-4.6,0-9.2,0-13.8,0c0-2.9,0-5.8,0-8.8
			C311.49-93.06,316.09-93.06,320.69-93.06z"/>
		<path id="path68" class="st0" d="M320.69-79.46c0,11.1,0,22.2,0,33.4c-4.6,0-9.2,0-13.8,0c0-11.1,0-22.2,0-33.4
			C311.49-79.46,315.99-79.46,320.69-79.46z"/>
		<path id="path75" class="st0" d="M298.79-93.06c0,3,0,6.1,0,9.2c-6,0-11.9,0-18,0c0,12.6,0,25.2,0,37.8c-4.7,0-9.3,0-14,0
			c0-12.5,0-25.1,0-37.7c-6.2,0-12.1,0-18.2,0c0-3.2,0-6.2,0-9.3C265.29-93.06,281.99-93.06,298.79-93.06z"/>
	</g>
	<g>
		<path id="path82" class="st0" d="M233.13,85.92c-1.19,8.52-5.35,15.36-11.89,20.81c-6.54,5.55-14.17,8.82-22.4,11
			c-11.3,2.97-22.79,3.67-34.39,2.97c-1.29-0.1-1.39-0.2-1.39-1.59c0-9.02,0-18.04,0-27.06c0,0,0,0-0.1,0c0-9.02,0-17.94,0-26.96
			c0-1.49,0.1-1.59,1.59-1.39c18.33,3.07,36.07,8.52,53.42,14.97c4.66,1.68,9.32,3.67,13.97,5.45
			C233.03,84.53,233.23,85.03,233.13,85.92z"/>
		<path id="path89" class="st0" d="M124.31,5.35c22.3,1.78,43.21,8.23,62.73,18.93c3.67,1.98,7.14,4.26,10.6,6.44
			c0.2,0.1,0.4,0.3,0.69,0.5c0,0.1,0,0.2-0.1,0.3c-1.98-0.3-4.06-0.5-6.05-0.79c-18.33-2.28-36.77-3.37-55.2-2.87
			c-7.73,0.2-15.56,0.59-23.19,1.39c-12.69,1.29-25.07,3.77-36.77,9.02c-4.66,2.08-8.92,4.66-12.49,8.32
			c-0.89,0.89-1.59,1.88-2.28,3.07c0.1,0,0.2,0,0.3-0.1c4.96-4.26,10.9-6.74,16.95-8.92c7.93-2.77,16.15-4.56,24.48-5.65
			c16.65-2.18,33.4-2.18,50.15-1.19c16.85,0.99,33.6,2.87,50.35,5.55c1.78,0.3,3.57,0.69,5.35,1.19c0.4,0.1,0.69,0.3,0.99,0.59
			c2.87,2.87,5.75,5.85,8.52,8.72c0.2,0.2,0.3,0.5,0.69,0.99c-0.69-0.2-1.09-0.2-1.49-0.4c-10.51-2.87-21.01-5.45-31.71-7.23
			c-8.52-1.39-17.05-2.48-25.67-3.47c-13.48-1.49-26.96-1.98-40.44-1.49c-14.87,0.59-29.43,2.48-43.51,7.53
			c-4.36,1.59-8.42,3.57-12.09,6.34c-2.28,1.78-4.36,3.77-5.55,6.44c-0.69,1.49-0.99,3.07-1.49,4.66c0,0-0.1,0-0.1-0.1
			c-2.97-5.95-4.86-12.09-4.86-18.63c0-0.69,0-1.39,0.1-2.08c0.59-9.91,5.15-17.74,12.78-23.88c6.34-5.05,13.58-8.23,21.31-10.31
			c8.72-2.38,17.44-3.37,26.36-3.37C117.17,4.85,120.74,5.05,124.31,5.35L124.31,5.35z"/>
		<path id="path96" class="st0" d="M124.31,57.87c0.99,0,1.39,0.5,1.39,1.49c0,8.72,0,17.44,0,26.16l0,0c0,8.62,0,17.34,0,25.97
			c0,1.29-0.1,1.39-1.29,0.99c-17.94-6.14-34.49-14.87-48.76-27.65c-6.05-5.45-11.4-11.5-15.66-18.53
			c-0.89-1.39-0.89-1.88,0.59-2.58c2.68-1.19,5.45-2.38,8.32-3.17c6.14-1.78,12.49-2.38,18.93-2.87c10.7-0.79,21.51-0.69,32.21-0.2
			C121.53,57.77,122.92,57.87,124.31,57.87L124.31,57.87z"/>
		<g id="layer4_1_">
			<path id="TM" class="st0" d="M228.22,106.96c0.55,0,1.1,0.14,1.63,0.43c0.53,0.28,0.94,0.69,1.24,1.22
				c0.29,0.53,0.44,1.08,0.44,1.66c0,0.57-0.15,1.12-0.44,1.64c-0.29,0.53-0.7,0.93-1.22,1.22c-0.52,0.29-1.07,0.44-1.64,0.44
				c-0.57,0-1.12-0.15-1.64-0.44c-0.52-0.29-0.93-0.7-1.22-1.22c-0.29-0.53-0.44-1.07-0.44-1.64c0-0.58,0.15-1.13,0.44-1.66
				c0.3-0.53,0.71-0.94,1.24-1.22C227.12,107.1,227.66,106.96,228.22,106.96L228.22,106.96z M228.22,107.51
				c-0.46,0-0.92,0.12-1.36,0.36c-0.44,0.24-0.78,0.58-1.03,1.02c-0.25,0.44-0.37,0.9-0.37,1.38c0,0.48,0.12,0.93,0.37,1.37
				c0.24,0.44,0.58,0.78,1.02,1.02c0.44,0.24,0.9,0.37,1.37,0.37c0.48,0,0.93-0.12,1.37-0.37s0.78-0.58,1.02-1.02
				c0.24-0.44,0.36-0.89,0.36-1.37c0-0.48-0.12-0.94-0.37-1.38c-0.25-0.44-0.59-0.78-1.03-1.02
				C229.13,107.62,228.68,107.51,228.22,107.51L228.22,107.51z M226.77,112.09v-3.56h1.22c0.42,0,0.72,0.03,0.91,0.1
				c0.19,0.07,0.34,0.18,0.45,0.34s0.17,0.34,0.17,0.52c0,0.26-0.09,0.49-0.28,0.68c-0.19,0.19-0.43,0.3-0.74,0.32
				c0.13,0.05,0.23,0.12,0.3,0.19c0.14,0.14,0.32,0.38,0.53,0.71l0.43,0.7h-0.7l-0.32-0.56c-0.25-0.44-0.45-0.72-0.6-0.83
				c-0.11-0.08-0.26-0.12-0.46-0.12h-0.34v1.51L226.77,112.09L226.77,112.09z M227.34,110.09h0.7c0.33,0,0.56-0.05,0.68-0.15
				c0.12-0.1,0.18-0.23,0.18-0.39c0-0.11-0.03-0.2-0.09-0.28c-0.06-0.08-0.14-0.15-0.24-0.19c-0.1-0.04-0.3-0.06-0.58-0.06h-0.65
				L227.34,110.09L227.34,110.09z"/>
		</g>
	</g>
</g>
</svg>
