<?xml version="1.0" encoding="utf-8"?>
<!-- Generator: Adobe Illustrator 25.2.3, SVG Export Plug-In . SVG Version: 6.00 Build 0)  -->
<svg version="1.1" id="Layer_1" xmlns="http://www.w3.org/2000/svg" xmlns:xlink="http://www.w3.org/1999/xlink" x="0px" y="0px"
	 viewBox="0 0 1772.5 326.81" style="enable-background:new 0 0 1772.5 326.81;" xml:space="preserve">
<style type="text/css">
	.st0{display:none;}
	.st1{display:inline;fill:#020203;}
	.st2{display:inline;}
	.st3{fill:#1B89CA;}
	.st4{fill:url(#path3046_1_);}
	.st5{fill:url(#path3050_1_);}
	.st6{fill:url(#path3054_1_);}
	.st7{fill:url(#path3056_1_);}
	.st8{fill:url(#path3058_1_);}
	.st9{fill:url(#path3060_1_);}
	.st10{fill:url(#SVGID_1_);}
	.st11{fill:url(#SVGID_2_);}
	.st12{fill:url(#Logo_Top_1_);}
	.st13{fill:#020203;}
</style>
<g id="layer7" class="st0">
	<path id="Text_Tips" class="st1" d="M-21.66,394.12h-23.78v-58.88h-32.63v-19.12h89.04v19.12h-32.63V394.12z M41.87,332.3H22.02
		v-16.19h19.85L41.87,332.3L41.87,332.3z M41.87,394.12H22.02v-55.16h19.85L41.87,394.12L41.87,394.12z M77.64,384.17v28.6H57.79
		v-73.81h19.85v10.11c0.42-3.91,2.47-6.7,6.15-8.36c3.68-1.66,9.82-2.49,18.41-2.49c10.68,0,18.2,1.4,22.55,4.19
		c4.35,2.79,6.52,7.54,6.52,14.25v18.23c0,6.71-2.27,11.57-6.81,14.59c-4.54,3.02-11.85,4.53-21.95,4.53
		c-8.45,0-14.45-0.73-17.99-2.2C80.99,390.35,78.69,387.8,77.64,384.17L77.64,384.17L77.64,384.17z M89.9,353.47
		c-4.57,0-7.81,0.7-9.72,2.1c-1.9,1.4-2.85,3.77-2.85,7.12v6.65c0,3.67,0.9,6.19,2.7,7.57c1.8,1.38,5.09,2.07,9.87,2.07h9.01
		c4.5,0,7.72-0.72,9.64-2.15c1.92-1.43,2.88-3.82,2.88-7.18v-6.86c0-3.39-0.93-5.79-2.8-7.2c-1.87-1.41-5.11-2.12-9.72-2.12
		L89.9,353.47L89.9,353.47z M141.86,376.68l21.06-0.05v0.21c0,1.71,0.86,2.96,2.57,3.75c1.71,0.79,4.45,1.18,8.22,1.18h14.51
		c2.9,0,4.94-0.32,6.13-0.97c1.19-0.65,1.78-1.74,1.78-3.27c0-1.4-0.64-2.45-1.91-3.17c-1.27-0.72-3.34-1.16-6.21-1.34l-19.64-0.37
		c-9.92-0.03-16.78-1.31-20.58-3.82c-3.81-2.51-5.71-6.78-5.71-12.78c0-6.36,2.06-10.91,6.18-13.67c4.12-2.76,11.03-4.14,20.74-4.14
		h22.52c7.19,0,12.52,1.33,15.98,3.98c3.46,2.65,5.22,6.76,5.29,12.31h-19.85c-0.49-1.05-1.55-1.84-3.2-2.38
		c-1.64-0.54-3.86-0.81-6.65-0.81H169.2c-2.65,0-4.51,0.27-5.58,0.81c-1.07,0.54-1.6,1.44-1.6,2.7c0,1.29,0.56,2.22,1.68,2.78
		c1.12,0.56,3.67,0.96,7.65,1.2h24.25c7.09,0.1,12.27,1.56,15.56,4.37c3.28,2.81,4.92,7.19,4.92,13.12c0,6.78-1.82,11.56-5.47,14.35
		c-3.65,2.79-10.08,4.19-19.3,4.19h-20.17c-11.38,0-19.08-1.33-23.1-3.98C144.02,388.22,141.96,383.49,141.86,376.68L141.86,376.68
		L141.86,376.68z"/>
	<g id="Text_Trade" transform="translate(0,-4.2187498e-6)" class="st2">
		<path id="Text_T" class="st3" d="M262.78,394.51h-9.68v-68.67h-38.54v-8.62h86.76v8.62h-38.54L262.78,394.51L262.78,394.51z"/>
		<g id="Text_rade" transform="matrix(1.1487854,0,0,1,-133.70949,2.6628213e-6)">
			<path id="Text_r" class="st3" d="M361.46,393.78V339.7h7.33v8.04c1.54-3.43,3.72-5.84,6.56-7.24c2.83-1.4,7.25-2.1,13.25-2.1
				c8.05,0,13.7,1.38,16.96,4.13c3.26,2.75,4.88,7.43,4.88,14.04v7.21h-7.01v-5.09c0-4.88-1.11-8.13-3.32-9.76
				c-2.22-1.63-6.67-2.44-13.36-2.44c-6.15,0-10.62,1.06-13.41,3.17c-2.79,2.11-4.18,5.52-4.18,10.22v33.89H361.46L361.46,393.78z"
				/>
			<path id="Text_a" class="st3" d="M469.03,379.3v-4.78c0-2.66-1.09-4.53-3.26-5.61c-2.17-1.07-6.3-1.61-12.39-1.61h-11.39
				c-6.63,0-10.91,0.61-12.84,1.84c-1.93,1.23-2.89,3.62-2.89,7.19c0,4.15,0.9,6.88,2.71,8.17c1.81,1.3,6.15,1.95,13.02,1.95h11.39
				c6.18,0,10.33-0.53,12.46-1.58C467.97,383.82,469.03,381.96,469.03,379.3L469.03,379.3L469.03,379.3z M455.33,338.4
				c7.36,0,12.76,1.62,16.21,4.85c3.45,3.24,5.18,8.31,5.18,15.23v35.29h-7.23v-7.21c-1.24,2.87-3.09,4.91-5.56,6.12
				c-2.47,1.21-6.21,1.82-11.21,1.82h-12.66c-8.14,0-13.85-1.31-17.14-3.94c-3.29-2.63-4.93-7.23-4.93-13.81
				c0-6.19,1.64-10.55,4.91-13.08c3.27-2.53,8.93-3.79,16.98-3.79h13.34c3.98,0,7.28,0.52,9.9,1.56c2.62,1.04,4.75,2.68,6.38,4.93
				v-7.47c0-4.64-1.08-7.85-3.23-9.63c-2.16-1.78-6.2-2.67-12.14-2.67h-11.3c-5.82,0-9.54,0.5-11.17,1.51
				c-1.63,1-2.44,2.98-2.44,5.92v1.61h-7.96v-1.51c0-5.54,1.6-9.54,4.79-12.02c3.2-2.47,8.4-3.71,15.6-3.71L455.33,338.4
				L455.33,338.4z"/>
			<path id="Text_d" class="st3" d="M524.38,386.46c6.9,0,11.49-1.16,13.75-3.48c2.26-2.32,3.39-6.83,3.39-13.55v-6.49
				c0-6.51-1.14-10.89-3.41-13.16c-2.28-2.27-6.85-3.4-13.72-3.4h-10.63c-6.87,0-11.45,1.13-13.72,3.4
				c-2.28,2.27-3.41,6.65-3.41,13.16v6.49c0,6.71,1.13,11.23,3.39,13.55c2.26,2.32,6.84,3.48,13.75,3.48H524.38L524.38,386.46z
				 M524.56,394.51H511.9c-8.2,0-14.05-1.84-17.54-5.53c-3.5-3.69-5.25-9.89-5.25-18.61v-8.56c0-8.37,1.77-14.37,5.31-17.98
				c3.54-3.62,9.37-5.42,17.48-5.42h14.61c3.56,0,6.53,0.61,8.91,1.84c2.38,1.23,4.39,3.16,6.01,5.79V316.5h7.33v77.28h-6.6v-8.93
				c-1.3,3.49-3.23,5.98-5.81,7.45C533.76,393.77,529.83,394.51,524.56,394.51L524.56,394.51L524.56,394.51z"/>
			<path id="Text_e" class="st3" d="M597.86,338.4c8.95,0,15.19,1.9,18.7,5.71c3.51,3.81,5.27,10.48,5.27,20.03
				c0,1.14-0.01,2.01-0.02,2.6c-0.02,0.59-0.04,1.12-0.07,1.61l-52.05,0.05v2.96c0,5.78,1.22,9.81,3.66,12.09
				c2.44,2.28,6.69,3.43,12.75,3.43h12.39c5.28,0,9.17-0.75,11.69-2.26c2.52-1.51,3.78-3.83,3.78-6.98v-0.57h7.87v1.4
				c0,5.26-1.83,9.25-5.49,11.96c-3.66,2.72-9.02,4.07-16.07,4.07h-14.24c-8.56,0-14.69-1.82-18.38-5.45
				c-3.69-3.63-5.54-9.67-5.54-18.11v-8.72c0-8.58,1.83-14.7,5.49-18.35c3.66-3.65,9.8-5.48,18.43-5.48L597.86,338.4L597.86,338.4z
				 M569.69,360.51h44.18v-1.3c0-4.88-1.09-8.24-3.26-10.07c-2.17-1.83-6.48-2.75-12.93-2.75h-11.8c-6,0-10.2,1.06-12.59,3.19
				C570.88,351.71,569.69,355.36,569.69,360.51L569.69,360.51L569.69,360.51z"/>
		</g>
	</g>
</g>
<g>
	<g>
		<linearGradient id="path3046_1_" gradientUnits="userSpaceOnUse" x1="636.251" y1="-76.0303" x2="886.4974" y2="425.7621">
			<stop  offset="0.1884" style="stop-color:#3F3F3F"/>
			<stop  offset="0.3729" style="stop-color:#2F3031"/>
			<stop  offset="0.8328" style="stop-color:#0A0B0B"/>
		</linearGradient>
		<path id="path3046" class="st4" d="M570.52,230.62h-45.33V118.37h-62.2V81.92h169.74v36.45h-62.2V230.62z M691.63,112.78h-37.84
			V81.92h37.84V112.78z M691.63,230.62h-37.84V125.46h37.84V230.62z M759.83,211.65v54.53h-37.84V125.46h37.84v19.27
			c0.8-7.46,4.71-12.77,11.73-15.93c7.02-3.16,18.72-4.74,35.1-4.74c20.37,0,34.7,2.66,42.98,7.99
			c8.29,5.33,12.43,14.38,12.43,27.16v34.75c0,12.78-4.33,22.05-12.98,27.81c-8.65,5.76-22.6,8.64-41.84,8.64
			c-16.11,0-27.54-1.4-34.3-4.19C766.2,223.43,761.83,218.57,759.83,211.65L759.83,211.65L759.83,211.65z M783.19,153.13
			c-8.72,0-14.89,1.33-18.52,3.99c-3.63,2.66-5.44,7.19-5.44,13.58v12.68c0,6.99,1.71,11.8,5.14,14.43
			c3.43,2.63,9.7,3.94,18.82,3.94h17.17c8.59,0,14.71-1.36,18.37-4.09c3.66-2.73,5.49-7.29,5.49-13.68V170.9
			c0-6.46-1.78-11.03-5.34-13.73c-3.56-2.7-9.74-4.04-18.52-4.04H783.19L783.19,153.13z M882.24,197.37l40.14-0.1v0.4
			c0,3.26,1.63,5.64,4.89,7.14c3.26,1.5,8.49,2.25,15.68,2.25h27.66c5.52,0,9.42-0.62,11.68-1.85c2.26-1.23,3.39-3.31,3.39-6.24
			c0-2.66-1.21-4.68-3.64-6.04c-2.43-1.36-6.37-2.21-11.83-2.55l-37.44-0.7c-18.9-0.07-31.98-2.5-39.24-7.29
			c-7.26-4.79-10.88-12.92-10.88-24.37c0-12.12,3.93-20.81,11.78-26.06c7.85-5.26,21.03-7.89,39.54-7.89h42.93
			c13.71,0,23.86,2.53,30.45,7.59c6.59,5.06,9.95,12.88,10.08,23.47h-37.84c-0.93-2-2.96-3.51-6.09-4.54
			c-3.13-1.03-7.36-1.55-12.68-1.55h-26.46c-5.06,0-8.6,0.52-10.63,1.55c-2.03,1.03-3.05,2.75-3.05,5.14c0,2.46,1.06,4.23,3.2,5.29
			c2.13,1.07,6.99,1.83,14.58,2.3h46.23c13.51,0.2,23.4,2.98,29.65,8.34c6.26,5.36,9.39,13.7,9.39,25.02
			c0,12.92-3.48,22.04-10.43,27.36c-6.96,5.33-19.22,7.99-36.79,7.99h-38.44c-21.7,0-36.38-2.53-44.03-7.59
			C886.37,219.37,882.44,210.35,882.24,197.37L882.24,197.37L882.24,197.37z"/>
		<g id="g3048" transform="translate(961.99515,-548.46435)">
			<linearGradient id="path3050_1_" gradientUnits="userSpaceOnUse" x1="96.1222" y1="556.0974" x2="388.718" y2="1101.4591">
				<stop  offset="0" style="stop-color:#4887C7"/>
				<stop  offset="1" style="stop-color:#2755A3"/>
			</linearGradient>
			<path id="path3050" class="st5" d="M150.74,779.82H132.3v-130.9H58.82V632.5h165.39v16.42h-73.47L150.74,779.82L150.74,779.82z"
				/>
			<g id="g3052" transform="matrix(1.1487854,0,0,1,-133.70949,2.6628213e-6)">
				<linearGradient id="path3054_1_" gradientUnits="userSpaceOnUse" x1="231.7164" y1="536.5894" x2="524.3121" y2="1081.951">
					<stop  offset="0" style="stop-color:#4887C7"/>
					<stop  offset="1" style="stop-color:#2755A3"/>
				</linearGradient>
				<path id="path3054" class="st6" d="M278.73,778.43v-103.1h13.96v15.34c2.93-6.53,7.1-11.13,12.5-13.8
					c5.4-2.67,13.82-4.01,25.26-4.01c15.34,0,26.12,2.62,32.32,7.87c6.21,5.24,9.31,14.16,9.31,26.76v13.75h-13.36v-9.7
					c0-9.3-2.11-15.5-6.34-18.6c-4.22-3.1-12.71-4.65-25.47-4.65c-11.72,0-20.24,2.01-25.56,6.04c-5.32,4.02-7.97,10.52-7.97,19.49
					v64.61H278.73L278.73,778.43z"/>
				<linearGradient id="path3056_1_" gradientUnits="userSpaceOnUse" x1="325.9378" y1="478.5167" x2="618.5336" y2="1023.8784">
					<stop  offset="0" style="stop-color:#4887C7"/>
					<stop  offset="1" style="stop-color:#2755A3"/>
				</linearGradient>
				<path id="path3056" class="st7" d="M483.79,750.83v-9.1c0-5.08-2.07-8.64-6.21-10.69c-4.14-2.04-12.01-3.07-23.62-3.07h-21.72
					c-12.64,0-20.8,1.17-24.48,3.51c-3.68,2.34-5.52,6.91-5.52,13.7c0,7.92,1.72,13.11,5.17,15.58c3.45,2.47,11.72,3.71,24.82,3.71
					h21.72c11.78,0,19.7-1.01,23.75-3.02C481.77,759.45,483.79,755.91,483.79,750.83L483.79,750.83L483.79,750.83z M457.67,672.87
					c14.02,0,24.32,3.08,30.9,9.25c6.58,6.17,9.87,15.85,9.87,29.04v67.28h-13.79v-13.75c-2.36,5.47-5.89,9.37-10.6,11.67
					c-4.71,2.31-11.84,3.46-21.38,3.46h-24.14c-15.52,0-26.4-2.51-32.67-7.52c-6.26-5.01-9.4-13.79-9.4-26.32
					c0-11.81,3.12-20.12,9.35-24.93c6.23-4.82,17.02-7.22,32.37-7.22h25.43c7.59,0,13.88,0.99,18.88,2.97
					c5,1.98,9.05,5.11,12.15,9.4v-14.25c0-8.84-2.05-14.96-6.16-18.35c-4.11-3.4-11.82-5.1-23.14-5.1H433.8
					c-11.09,0-18.19,0.96-21.29,2.87c-3.1,1.91-4.65,5.67-4.65,11.28v3.07h-15.17v-2.87c0-10.55,3.05-18.19,9.14-22.9
					c6.09-4.72,16-7.07,29.74-7.07L457.67,672.87L457.67,672.87z"/>
				<linearGradient id="path3058_1_" gradientUnits="userSpaceOnUse" x1="445.2592" y1="404.9738" x2="737.8549" y2="950.3355">
					<stop  offset="0" style="stop-color:#4887C7"/>
					<stop  offset="1" style="stop-color:#2755A3"/>
				</linearGradient>
				<path id="path3058" class="st8" d="M589.3,764.48c13.16,0,21.89-2.21,26.2-6.63c4.31-4.42,6.46-13.03,6.46-25.82v-12.37
					c0-12.4-2.17-20.76-6.51-25.08c-4.34-4.32-13.06-6.48-26.16-6.48h-20.26c-13.1,0-21.82,2.16-26.16,6.48
					c-4.34,4.32-6.51,12.68-6.51,25.08v12.37c0,12.8,2.15,21.4,6.46,25.82c4.31,4.42,13.04,6.63,26.2,6.63H589.3L589.3,764.48z
					 M589.64,779.82h-24.13c-15.63,0-26.78-3.51-33.44-10.54s-10-18.85-10-35.47v-16.33c0-15.96,3.38-27.39,10.13-34.28
					c6.75-6.89,17.86-10.34,33.31-10.34h27.84c6.78,0,12.44,1.17,16.98,3.51c4.54,2.34,8.36,6.02,11.46,11.03v-56.3h13.96v147.32
					h-12.58v-17.02c-2.47,6.66-6.16,11.39-11.08,14.2C607.18,778.42,599.7,779.82,589.64,779.82L589.64,779.82L589.64,779.82z"/>
				<linearGradient id="path3060_1_" gradientUnits="userSpaceOnUse" x1="540.4924" y1="346.2776" x2="833.0881" y2="891.6393">
					<stop  offset="0" style="stop-color:#4887C7"/>
					<stop  offset="1" style="stop-color:#2755A3"/>
				</linearGradient>
				<path id="path3060" class="st9" d="M729.36,672.87c17.07,0,28.95,3.63,35.64,10.88c6.69,7.26,10.04,19.99,10.04,38.19
					c0,2.18-0.01,3.83-0.04,4.95c-0.03,1.12-0.07,2.14-0.13,3.07l-99.21,0.1v5.64c0,11.02,2.33,18.7,6.98,23.05
					c4.65,4.35,12.76,6.53,24.31,6.53h23.62c10.06,0,17.48-1.43,22.28-4.3c4.8-2.87,7.2-7.3,7.2-13.31v-1.09h15v2.67
					c0,10.03-3.49,17.63-10.47,22.81c-6.98,5.18-17.2,7.77-30.64,7.77h-27.15c-16.32,0-28-3.46-35.04-10.39
					c-7.04-6.93-10.56-18.44-10.56-34.53v-16.62c0-16.36,3.49-28.02,10.47-34.98c6.98-6.96,18.69-10.44,35.12-10.44L729.36,672.87
					L729.36,672.87z M675.66,715.01h84.21v-2.47c0-9.3-2.07-15.7-6.21-19.19c-4.14-3.5-12.35-5.24-24.65-5.24h-22.5
					c-11.44,0-19.44,2.03-24.01,6.08C677.95,698.24,675.66,705.19,675.66,715.01L675.66,715.01L675.66,715.01z"/>
			</g>
		</g>
	</g>
	<g>
		<g>
			<linearGradient id="SVGID_1_" gradientUnits="userSpaceOnUse" x1="245.498" y1="46.2236" x2="496.732" y2="455.2449">
				<stop  offset="0" style="stop-color:#3F3F3F"/>
				<stop  offset="1" style="stop-color:#0A0B0B"/>
			</linearGradient>
			<path class="st10" d="M437.89,202.09c-1.18-0.96-24.78-9.86-40.99-15.46c-28.35-9.79-59.27-18.56-87.14-24.74
				c-13.27-2.94-17.35-3.74-17.94-3.51c-0.73,0.28-0.77,120.4-0.04,120.66c0.26,0.09,2.7,0.3,5.42,0.46
				c41.94,2.49,79.94-5.09,105.41-21.02c8.76-5.48,18.52-14.37,23.56-21.44c6.47-9.09,10.53-19.5,11.78-30.19
				C438.39,203.09,438.38,202.49,437.89,202.09z"/>
			<linearGradient id="SVGID_2_" gradientUnits="userSpaceOnUse" x1="122.6668" y1="121.6704" x2="373.9009" y2="530.6917">
				<stop  offset="0" style="stop-color:#3F3F3F"/>
				<stop  offset="1" style="stop-color:#0A0B0B"/>
			</linearGradient>
			<path class="st11" d="M189.89,145.3c-10.29-0.52-39.86-0.53-48.71-0.02c-31.13,1.79-53.94,6.22-64.95,12.61
				c-3.81,2.21-3.89,2.33-2.91,4.25c2.35,4.62,10.22,15.51,16.26,22.52c11.47,13.3,26.34,26.42,43.23,38.13
				c20.87,14.47,45.39,27.04,71.92,36.87c3.56,1.32,6.85,2.41,7.33,2.42l0.86,0.02v-57.44c0-38.93-0.13-57.52-0.39-57.68
				C212.05,146.69,200.71,145.84,189.89,145.3z"/>
		</g>
		<linearGradient id="Logo_Top_1_" gradientUnits="userSpaceOnUse" x1="59.6794" y1="95.0198" x2="407.7393" y2="95.0198">
			<stop  offset="0" style="stop-color:#4887C7"/>
			<stop  offset="1" style="stop-color:#2755A3"/>
		</linearGradient>
		<path id="Logo_Top" class="st12" d="M69.01,153.08c-3.61-7.07-6.93-17.23-8.26-25.31c-2.95-17.99,0.18-34.36,9.21-48.12
			c24.87-37.89,89.24-53.92,164.26-40.89c19.44,3.38,41.72,9.41,59.93,16.24c22.2,8.32,41.63,17.92,60.89,30.07
			c5.61,3.54,7.17,4.64,6.92,4.89c-0.07,0.07-3.28-0.29-7.14-0.8c-20.04-2.65-41.82-4.58-67.52-5.98c-11.51-0.63-53.69-0.63-64.12,0
			c-32.22,1.94-54.98,4.93-77.44,10.18c-35.52,8.3-59.57,20.27-68.72,34.2c-1.54,2.34-2.57,4.96-2.13,5.4
			c0.13,0.13,1.94-1.39,4.01-3.38c23.2-22.27,84.34-36.07,159.69-36.06c35.66,0.01,70.82,2.81,110.16,8.78
			c15.06,2.29,36.66,6.14,38.57,6.89c0.6,0.23,4.98,4.29,9.74,9.02c7.95,7.9,11.01,11.24,10.63,11.61
			c-0.08,0.08-3.32-0.62-7.19-1.54c-27.92-6.7-54.42-11.81-77.63-14.96c-4.71-0.64-9.76-1.33-11.23-1.54
			c-14.57-2.06-43.6-4.48-62.59-5.23c-20.49-0.8-54.78-0.01-68.89,1.59c-0.94,0.11-4.37,0.46-7.61,0.8
			c-25.1,2.56-48.54,7.52-65.74,13.91c-16.79,6.24-27.9,13.49-33.15,21.61c-1.84,2.85-2.69,5.27-3.05,8.7l-0.27,2.56L69.01,153.08
			L69.01,153.08z"/>
		<g id="layer4">
			<path id="TM" class="st13" d="M425.88,255.79c1.61,0,3.18,0.41,4.72,1.24c1.53,0.83,2.73,2.01,3.58,3.55
				c0.86,1.54,1.28,3.14,1.28,4.81c0,1.65-0.42,3.24-1.26,4.77c-0.84,1.53-2.03,2.71-3.55,3.55c-1.52,0.84-3.11,1.26-4.77,1.26
				c-1.66,0-3.25-0.42-4.77-1.26c-1.52-0.84-2.71-2.03-3.55-3.55c-0.85-1.53-1.27-3.11-1.27-4.77c0-1.67,0.43-3.27,1.29-4.81
				c0.86-1.54,2.06-2.72,3.59-3.55C422.7,256.2,424.27,255.79,425.88,255.79L425.88,255.79z M425.88,257.37
				c-1.35,0-2.66,0.35-3.93,1.04c-1.28,0.69-2.27,1.68-2.99,2.96c-0.72,1.28-1.08,2.62-1.08,4.01c0,1.38,0.35,2.71,1.06,3.97
				c0.71,1.27,1.7,2.25,2.97,2.96c1.27,0.71,2.6,1.06,3.98,1.06c1.38,0,2.71-0.35,3.98-1.06s2.26-1.69,2.96-2.96
				c0.7-1.27,1.05-2.59,1.05-3.97c0-1.39-0.36-2.73-1.07-4.01c-0.72-1.28-1.71-2.27-2.99-2.96
				C428.53,257.72,427.22,257.37,425.88,257.37L425.88,257.37z M421.67,270.68v-10.32h3.55c1.21,0,2.09,0.1,2.63,0.29
				c0.54,0.19,0.97,0.52,1.3,1c0.32,0.47,0.48,0.98,0.48,1.51c0,0.75-0.27,1.41-0.81,1.97c-0.54,0.56-1.25,0.87-2.14,0.94
				c0.36,0.15,0.66,0.33,0.88,0.55c0.42,0.41,0.92,1.09,1.53,2.05l1.26,2.02h-2.03l-0.92-1.63c-0.72-1.28-1.3-2.08-1.74-2.4
				c-0.31-0.24-0.75-0.36-1.33-0.36h-0.98v4.39L421.67,270.68L421.67,270.68z M423.34,264.87h2.02c0.97,0,1.62-0.14,1.98-0.43
				c0.35-0.29,0.53-0.67,0.53-1.14c0-0.31-0.08-0.58-0.25-0.82c-0.17-0.24-0.4-0.42-0.71-0.54c-0.3-0.12-0.86-0.18-1.67-0.18h-1.89
				L423.34,264.87L423.34,264.87z"/>
		</g>
	</g>
</g>
</svg>
