<svg id="Layer_1" data-name="Layer 1" xmlns="http://www.w3.org/2000/svg" xmlns:xlink="http://www.w3.org/1999/xlink" width="585.25mm" height="86.67mm" viewBox="0 0 1658.97 245.67"><defs><style>.cls-1{fill:url(#linear-gradient);}.cls-2{fill:url(#linear-gradient-2);}.cls-3{fill:url(#linear-gradient-3);}.cls-4{fill:url(#linear-gradient-4);}.cls-5{fill:url(#linear-gradient-5);}.cls-6{fill:url(#linear-gradient-6);}.cls-7{fill:url(#linear-gradient-7);}.cls-8{fill:url(#linear-gradient-8);}.cls-9{fill:url(#linear-gradient-9);}</style><linearGradient id="linear-gradient" x1="633.91" y1="-67.01" x2="884.15" y2="434.78" gradientUnits="userSpaceOnUse"><stop offset="0" stop-color="#3f3f3f"/><stop offset="1" stop-color="#0a0a0a"/></linearGradient><linearGradient id="linear-gradient-2" x1="1055.77" y1="16.65" x2="1348.37" y2="562.01" gradientUnits="userSpaceOnUse"><stop offset="0" stop-color="#1593ff"/><stop offset="1" stop-color="#0051bf"/></linearGradient><linearGradient id="linear-gradient-3" x1="1092.13" y1="-2.86" x2="1384.73" y2="542.51" xlink:href="#linear-gradient-2"/><linearGradient id="linear-gradient-4" x1="1200.38" y1="-60.93" x2="1492.97" y2="484.43" xlink:href="#linear-gradient-2"/><linearGradient id="linear-gradient-5" x1="1337.45" y1="-134.47" x2="1630.05" y2="410.89" xlink:href="#linear-gradient-2"/><linearGradient id="linear-gradient-6" x1="1446.85" y1="-193.17" x2="1739.45" y2="352.19" xlink:href="#linear-gradient-2"/><linearGradient id="linear-gradient-7" x1="243.15" y1="55.24" x2="494.39" y2="464.26" xlink:href="#linear-gradient"/><linearGradient id="linear-gradient-8" x1="120.32" y1="130.69" x2="371.56" y2="539.71" xlink:href="#linear-gradient"/><linearGradient id="linear-gradient-9" x1="57.34" y1="104.04" x2="405.4" y2="104.04" xlink:href="#linear-gradient-2"/></defs><path id="path3046" class="cls-1" d="M568.18,239.64H522.85V127.39h-62.2V90.94H630.38v36.45h-62.2ZM689.29,121.8H651.45V90.94h37.84Zm0,117.84H651.45V134.48h37.84Zm68.2-19v54.52H719.64V134.48h37.85v19.28q1.18-11.19,11.73-15.93t35.09-4.75q30.56,0,43,8t12.43,27.17V203q0,19.17-13,27.81t-41.84,8.64q-24.17,0-34.29-4.19a21.54,21.54,0,0,1-13.13-14.58Zm23.36-58.52q-13.08,0-18.52,4t-5.44,13.58V192.4q0,10.48,5.14,14.43t18.82,3.95H798q12.88,0,18.37-4.09t5.5-13.69V179.92q0-9.69-5.35-13.73t-18.52-4Zm99,44.24,40.13-.1v.4q0,4.89,4.9,7.14t15.67,2.24h27.66q8.28,0,11.68-1.85c2.26-1.23,3.4-3.31,3.4-6.24a6.56,6.56,0,0,0-3.65-6q-3.65-2-11.83-2.55l-37.44-.69q-28.36-.1-39.24-7.29T880.3,167q0-18.18,11.78-26.07t39.54-7.89h42.93q20.57,0,30.45,7.59t10.09,23.47H977.25c-.94-2-3-3.51-6.1-4.54a41.78,41.78,0,0,0-12.68-1.55H932q-7.59,0-10.64,1.55a5.33,5.33,0,0,0-3,5.14,5.46,5.46,0,0,0,3.19,5.29q3.19,1.6,14.58,2.3h46.23q20.26.3,29.65,8.34t9.39,25q0,19.37-10.44,27.36t-36.79,8H935.71q-32.55,0-44-7.59T879.9,206.39Z" transform="translate(-57.34 -43.32)"/><g id="g3048"><path id="path3050" class="cls-2" d="M1110.39,240.37H1092V109.48h-73.47V93.05h165.39v16.43h-73.48V240.37Z" transform="translate(-57.34 -43.32)"/><g id="g3052"><path id="path3054" class="cls-3" d="M1146.15,239V135.89h16v15.34a28.69,28.69,0,0,1,14.35-13.8q9.32-4,29-4,26.43,0,37.13,7.87t10.69,26.76V181.8H1238v-9.7q0-13.95-7.28-18.6t-29.26-4.65q-20.2,0-29.36,6T1163,174.38V239Z" transform="translate(-57.34 -43.32)"/><path id="path3056" class="cls-4" d="M1381.72,211.38v-9.1q0-7.62-7.13-10.68t-27.14-3.07h-25q-21.78,0-28.12,3.51t-6.34,13.7q0,11.88,5.94,15.59T1322.5,225h25q20.31,0,27.28-3a10.73,10.73,0,0,0,7-10.64Zm-30-78q24.16,0,35.5,9.25t11.34,29V239h-15.84V225.24a23.63,23.63,0,0,1-12.18,11.67q-8.13,3.47-24.56,3.46h-27.73q-26.73,0-37.53-7.52t-10.79-26.31q0-17.72,10.74-24.94t37.19-7.22h29.21q13.07,0,21.68,3a30.73,30.73,0,0,1,14,9.4V172.5q0-13.26-7.08-18.35t-26.59-5.1h-24.76q-19.11,0-24.45,2.87t-5.35,11.28v3.07h-17.43V163.4q0-15.84,10.5-22.91t34.16-7.07Z" transform="translate(-57.34 -43.32)"/><path id="path3058" class="cls-5" d="M1502.92,225q22.66,0,30.1-6.63t7.43-25.82V180.22q0-18.6-7.48-25.08t-30-6.48h-23.27q-22.58,0-30.06,6.48t-7.47,25.08v12.37q0,19.18,7.42,25.82t30.11,6.63Zm.39,15.33h-27.72q-26.94,0-38.42-10.53t-11.49-35.47V178q0-23.94,11.64-34.28t38.27-10.34h32q11.68,0,19.51,3.51a32.3,32.3,0,0,1,13.17,11V91.67h16V239h-14.46V222q-4.26,10-12.72,14.2t-25.8,4.2Z" transform="translate(-57.34 -43.32)"/><path id="path3060" class="cls-6" d="M1663.83,133.42q29.4,0,40.94,10.88t11.54,38.19c0,2.18,0,3.83,0,4.95s-.09,2.14-.15,3.07l-114,.1v5.64q0,16.51,8,23.05t27.92,6.53h27.13q17.32,0,25.6-4.3t8.27-13.31v-1.09h17.23v2.67q0,15-12,22.81t-35.21,7.76h-31.19q-28.12,0-40.25-10.39t-12.13-34.53V178.83q0-24.54,12-35t40.35-10.44Zm-61.69,42.15h96.74v-2.48q0-14-7.13-19.19t-28.32-5.24h-25.85q-19.69,0-27.57,6.08t-7.87,20.83Z" transform="translate(-57.34 -43.32)"/></g></g><path class="cls-7" d="M435.55,211.1c-1.18-1-24.78-9.86-41-15.45a819.1,819.1,0,0,0-87.14-24.75c-13.28-2.94-17.35-3.74-17.94-3.51-.74.28-.77,120.4,0,120.67.26.09,2.7.3,5.42.46,41.94,2.49,79.94-5.09,105.41-21,8.75-5.48,18.52-14.37,23.56-21.44a65.35,65.35,0,0,0,11.78-30.19C436.05,212.11,436,211.51,435.55,211.1Z" transform="translate(-57.34 -43.32)"/><path class="cls-8" d="M187.55,154.32c-10.29-.52-39.86-.53-48.71,0-31.13,1.8-53.94,6.22-64.95,12.61-3.81,2.21-3.89,2.34-2.91,4.26,2.35,4.62,10.21,15.5,16.26,22.51,11.47,13.31,26.34,26.42,43.23,38.14,20.87,14.47,45.39,27,71.92,36.87a66.93,66.93,0,0,0,7.33,2.42l.85,0V213.68c0-38.93-.12-57.52-.39-57.68C209.7,155.71,198.37,154.86,187.55,154.32Z" transform="translate(-57.34 -43.32)"/><path id="Logo_Top" data-name="Logo Top" class="cls-9" d="M66.67,162.1a95.34,95.34,0,0,1-8.26-25.31c-2.95-18,.18-34.36,9.21-48.12,24.87-37.89,89.24-53.91,164.26-40.89A353.91,353.91,0,0,1,291.82,64,325.06,325.06,0,0,1,352.7,94.09c5.62,3.55,7.17,4.65,6.92,4.89-.07.07-3.28-.29-7.14-.8-20-2.64-41.82-4.57-67.51-6-11.51-.63-53.69-.63-64.12,0-32.22,1.94-55,4.93-77.44,10.18-35.52,8.3-59.57,20.27-68.72,34.2-1.53,2.34-2.57,5-2.13,5.4.13.14,1.94-1.38,4-3.37,23.21-22.27,84.34-36.08,159.69-36.06,35.66,0,70.82,2.81,110.16,8.78,15.06,2.29,36.66,6.15,38.57,6.9.6.23,5,4.29,9.75,9,7.95,7.9,11,11.24,10.62,11.62-.08.08-3.31-.62-7.18-1.55-27.93-6.7-54.43-11.81-77.63-15l-11.23-1.54c-14.57-2.06-43.59-4.48-62.59-5.22-20.48-.81-54.78,0-68.88,1.59-.94.11-4.37.47-7.61.8-25.1,2.55-48.54,7.51-65.74,13.91-16.79,6.24-27.9,13.48-33.15,21.61a18.1,18.1,0,0,0-3,8.69L68,164.76l-1.36-2.66Z" transform="translate(-57.34 -43.32)"/><g id="layer4"><path id="TM" d="M423.54,264.8a9.87,9.87,0,0,1,4.71,1.24,8.83,8.83,0,0,1,3.59,3.55,9.67,9.67,0,0,1,0,9.58,9,9,0,0,1-3.55,3.55,9.61,9.61,0,0,1-9.55,0,9,9,0,0,1-3.55-3.55,9.6,9.6,0,0,1,0-9.58,8.89,8.89,0,0,1,3.59-3.55,9.94,9.94,0,0,1,4.72-1.24Zm0,1.59a8.21,8.21,0,0,0-3.94,1,7.47,7.47,0,0,0-3,3,8.08,8.08,0,0,0-1.08,4,8,8,0,0,0,1.06,4,7.48,7.48,0,0,0,3,3,7.94,7.94,0,0,0,8,0,7.46,7.46,0,0,0,3-3,8,8,0,0,0,0-8,7.41,7.41,0,0,0-3-3,8.2,8.2,0,0,0-3.93-1Zm-4.21,13.31V269.38h3.55a8.65,8.65,0,0,1,2.63.29,2.54,2.54,0,0,1,1.29,1,2.62,2.62,0,0,1,.49,1.52,2.75,2.75,0,0,1-.81,2,3.2,3.2,0,0,1-2.14.94,2.87,2.87,0,0,1,.88.54,12.11,12.11,0,0,1,1.52,2.05l1.26,2h-2l-.92-1.63a8.27,8.27,0,0,0-1.74-2.4,2.14,2.14,0,0,0-1.34-.35h-1v4.38Zm1.67-5.81h2a3.23,3.23,0,0,0,2-.43,1.41,1.41,0,0,0,.53-1.14,1.37,1.37,0,0,0-.25-.82,1.43,1.43,0,0,0-.71-.54,5.18,5.18,0,0,0-1.67-.18H421v3.11Z" transform="translate(-57.34 -43.32)"/></g></svg>