<?xml version="1.0" encoding="utf-8"?>
<!-- Generator: Adobe Illustrator 25.2.3, SVG Export Plug-In . SVG Version: 6.00 Build 0)  -->
<svg version="1.1" id="Layer_1" xmlns="http://www.w3.org/2000/svg" xmlns:xlink="http://www.w3.org/1999/xlink" x="0px" y="0px"
	 viewBox="0 0 425.2 279.9" style="enable-background:new 0 0 425.2 279.9;" xml:space="preserve">
<style type="text/css">
	.st0{fill:url(#path82_1_);}
	.st1{fill:url(#path89_1_);}
	.st2{fill:url(#path96_1_);}
</style>
<g>
	
		<linearGradient id="path82_1_" gradientUnits="userSpaceOnUse" x1="-25.7266" y1="211.9722" x2="536.0439" y2="297.2214" gradientTransform="matrix(0.9911 0 0 0.9911 34.8461 -43.9485)">
		<stop  offset="0" style="stop-color:#3F3F3F"/>
		<stop  offset="1" style="stop-color:#0A0A0A"/>
	</linearGradient>
	<path id="path82" class="st0" d="M409.3,190.3c-2.6,18.6-11.7,33.6-26,45.5c-14.3,12.1-31,19.3-49,24c-24.7,6.5-49.8,8-75.2,6.5
		c-2.8-0.2-3-0.4-3-3.5c0-19.7,0-39.4,0-59.1c0,0,0,0-0.2,0c0-19.7,0-39.2,0-58.9c0-3.2,0.2-3.5,3.5-3
		c40.1,6.7,78.9,18.6,116.8,32.7c10.2,3.7,20.4,8,30.5,11.9C409.1,187.2,409.5,188.3,409.3,190.3z"/>
	
		<linearGradient id="path89_1_" gradientUnits="userSpaceOnUse" x1="-19.1478" y1="121.8962" x2="348.954" y2="121.8962" gradientTransform="matrix(0.9911 0 0 0.9911 34.8461 -43.9485)">
		<stop  offset="0" style="stop-color:#1593FF"/>
		<stop  offset="1" style="stop-color:#0051BF"/>
	</linearGradient>
	<path id="path89" class="st1" d="M171.4,14.1c48.7,3.9,94.5,18,137.1,41.4c8,4.3,15.6,9.3,23.2,14.1c0.4,0.2,0.9,0.6,1.5,1.1
		c0,0.2,0,0.4-0.2,0.6c-4.3-0.6-8.9-1.1-13.2-1.7c-40.1-5-80.4-7.4-120.7-6.3c-16.9,0.4-34,1.3-50.7,3c-27.7,2.8-54.8,8.2-80.4,19.7
		c-10.2,4.5-19.5,10.2-27.3,18.2c-1.9,1.9-3.5,4.1-5,6.7c0.2,0,0.4,0,0.6-0.2c10.8-9.3,23.8-14.7,37-19.5
		c17.3-6.1,35.3-10,53.5-12.3c36.4-4.8,73-4.8,109.6-2.6c36.8,2.2,73.4,6.3,110.1,12.1c3.9,0.6,7.8,1.5,11.7,2.6
		c0.9,0.2,1.5,0.6,2.2,1.3c6.3,6.3,12.6,12.8,18.6,19.1c0.4,0.4,0.6,1.1,1.5,2.2c-1.5-0.4-2.4-0.4-3.2-0.9
		c-23-6.3-45.9-11.9-69.3-15.8c-18.6-3-37.3-5.4-56.1-7.6c-29.5-3.2-58.9-4.3-88.4-3.2c-32.5,1.3-64.3,5.4-95.1,16.5
		c-9.5,3.5-18.4,7.8-26.4,13.9c-5,3.9-9.5,8.2-12.1,14.1c-1.5,3.2-2.2,6.7-3.2,10.2c0,0-0.2,0-0.2-0.2c-6.5-13-10.6-26.4-10.6-40.7
		c0-1.5,0-3,0.2-4.5C17.4,73.5,27.4,56.4,44,43c13.9-11,29.7-18,46.6-22.5c19.1-5.2,38.1-7.4,57.6-7.4
		C155.8,13.1,163.6,13.5,171.4,14.1L171.4,14.1z"/>
	
		<linearGradient id="path96_1_" gradientUnits="userSpaceOnUse" x1="-25.4213" y1="209.9659" x2="536.3492" y2="295.2151" gradientTransform="matrix(0.9911 0 0 0.9911 34.8461 -43.9485)">
		<stop  offset="0" style="stop-color:#3F3F3F"/>
		<stop  offset="1" style="stop-color:#0A0A0A"/>
	</linearGradient>
	<path id="path96" class="st2" d="M171.4,129c2.2,0,3,1.1,3,3.2c0,19.1,0,38.1,0,57.2l0,0c0,18.8,0,37.9,0,56.8c0,2.8-0.2,3-2.8,2.2
		c-39.2-13.4-75.4-32.5-106.6-60.4c-13.2-11.9-24.9-25.1-34.2-40.5c-1.9-3-1.9-4.1,1.3-5.6c5.8-2.6,11.9-5.2,18.2-6.9
		c13.4-3.9,27.3-5.2,41.4-6.3c23.4-1.7,47-1.5,70.4-0.4C165.3,128.7,168.4,129,171.4,129L171.4,129z"/>
	<g id="layer4_1_">
		<path id="TM" d="M398.5,236.3c1.2,0,2.4,0.3,3.6,0.9c1.2,0.6,2.1,1.5,2.7,2.7c0.6,1.2,1,2.4,1,3.6c0,1.2-0.3,2.4-1,3.6
			c-0.6,1.1-1.5,2-2.7,2.7s-2.3,1-3.6,1s-2.4-0.3-3.6-1c-1.1-0.6-2-1.5-2.7-2.7c-0.6-1.1-1-2.3-1-3.6c0-1.3,0.3-2.5,1-3.6
			c0.6-1.2,1.5-2,2.7-2.7C396.2,236.6,397.3,236.3,398.5,236.3L398.5,236.3z M398.5,237.5c-1,0-2,0.3-3,0.8s-1.7,1.3-2.3,2.2
			c-0.5,1-0.8,2-0.8,3c0,1,0.3,2,0.8,3c0.5,1,1.3,1.7,2.2,2.2c1,0.5,2,0.8,3,0.8c1,0,2-0.3,3-0.8c1-0.5,1.7-1.3,2.2-2.2
			c0.5-1,0.8-2,0.8-3c0-1-0.3-2.1-0.8-3c-0.5-1-1.3-1.7-2.3-2.2S399.6,237.5,398.5,237.5L398.5,237.5z M395.4,247.5v-7.8h2.7
			c0.9,0,1.6,0.1,2,0.2c0.4,0.1,0.7,0.4,1,0.8c0.2,0.4,0.4,0.7,0.4,1.1c0,0.6-0.2,1.1-0.6,1.5c-0.4,0.4-0.9,0.7-1.6,0.7
			c0.3,0.1,0.5,0.3,0.7,0.4c0.3,0.3,0.7,0.8,1.1,1.5l0.9,1.5h-1.5l-0.7-1.2c-0.5-1-1-1.6-1.3-1.8c-0.2-0.2-0.6-0.3-1-0.3h-0.7v3.3
			L395.4,247.5L395.4,247.5z M396.6,243.1h1.5c0.7,0,1.2-0.1,1.5-0.3c0.3-0.2,0.4-0.5,0.4-0.9c0-0.2-0.1-0.4-0.2-0.6
			c-0.1-0.2-0.3-0.3-0.5-0.4c-0.2-0.1-0.6-0.1-1.3-0.1h-1.4L396.6,243.1L396.6,243.1z"/>
	</g>
</g>
</svg>
