<?xml version="1.0" encoding="UTF-8"?>
<svg id="Layer_1" data-name="Layer 1" xmlns="http://www.w3.org/2000/svg" width="312.04" height="196.86" viewBox="0 0 312.04 196.86">
  <g>
    <path d="m303.16,134.45c-.96-.75-19.83-7.87-32.83-12.37-22.75-7.83-47.49-14.87-69.83-19.83-10.67-2.37-13.92-3-14.37-2.83-.58.21-.62,96.49,0,96.7.21,0,2.17.25,4.33.37,33.62,2,64.08-4.08,84.49-16.83,7-4.42,14.83-11.5,18.87-17.16,5.21-7.29,8.42-15.62,9.46-24.21.37-3,.33-3.5-.04-3.83h-.08Z" fill="#4e4d4d"/>
    <path d="m104.39,89c-8.25-.42-31.95-.42-39.04,0-24.96,1.42-43.25,4.96-52.04,10.12-3.08,1.75-3.12,1.87-2.33,3.42,1.87,3.71,8.21,12.46,13,18.04,9.21,10.67,21.12,21.16,34.66,30.54,16.71,11.58,36.37,21.66,57.62,29.54,2.83,1.04,5.5,1.96,5.87,1.96h.71v-45.99c0-31.2-.08-46.08-.29-46.2-.37-.25-9.46-.92-18.16-1.33h0v-.08Z" fill="#4e4d4d"/>
  </g>
  <path id="b" d="m7.49,95.2c-2.87-5.67-5.54-13.79-6.62-20.29-2.37-14.42.17-27.54,7.37-38.58C28.24,5.96,79.77-6.87,139.93,3.59c15.58,2.71,33.45,7.54,48.04,13,17.79,6.67,33.37,14.37,48.79,24.08,4.5,2.83,5.75,3.75,5.54,3.92,0,.04-2.62-.25-5.71-.62-16.04-2.12-33.54-3.67-54.12-4.79-9.21-.5-43.04-.5-51.37,0-25.83,1.54-44.08,3.96-62.08,8.17-28.46,6.67-47.74,16.25-55.08,27.41-1.25,1.87-2.08,3.96-1.71,4.33.12.12,1.54-1.12,3.21-2.71,18.58-17.83,67.58-28.91,127.99-28.87,28.58,0,88.28,7.04,88.28,7.04,0,0,29.37,4.92,30.91,5.54.5.17,4,3.42,7.79,7.21,6.37,6.33,8.83,9,8.54,9.33-.04.04-2.67-.5-5.75-1.25-22.37-5.37-43.62-9.46-62.2-12-3.75-.5-7.83-1.04-9-1.25-11.67-1.62-34.91-3.58-50.16-4.21-16.41-.62-43.91,0-55.2,1.29-.75.08-3.5.37-6.08.62-20.12,2.08-38.91,6.04-52.66,11.12-13.46,5-22.37,10.79-26.58,17.33-1.5,2.29-2.17,4.21-2.46,7l-.21,2.08-1.08-2.12h-.08v-.04Z" fill="#3875bb"/>
  <g id="c">
    <g id="d">
      <path d="m301.04,172.78c1.83,0,3.67.46,5.42,1.42s3.12,2.33,4.12,4.08c.96,1.75,1.46,3.58,1.46,5.54s-.46,3.75-1.46,5.5-2.33,3.12-4.08,4.08-3.58,1.46-5.5,1.46-3.75-.46-5.5-1.46c-1.75-.96-3.12-2.37-4.08-4.08-.96-1.75-1.46-3.58-1.46-5.5s.46-3.75,1.46-5.54,2.37-3.12,4.12-4.08c1.75-.96,3.54-1.42,5.42-1.42h.08Zm0,1.83c-1.58,0-3.08.37-4.5,1.17s-2.62,1.96-3.46,3.42-1.25,3-1.25,4.67.42,3.12,1.17,4.54c.79,1.46,1.96,2.62,3.42,3.42s3,1.17,4.54,1.17,3.12-.42,4.54-1.17c1.46-.79,2.62-1.96,3.42-3.42.79-1.46,1.17-3,1.17-4.54s-.42-3.12-1.25-4.67-2-2.62-3.46-3.42-3-1.17-4.5-1.17h.17Zm-4.83,15.33v-11.92h4.08c1.37,0,2.42.08,3.04.33.62.21,1.08.58,1.46,1.12s.58,1.12.58,1.71c0,.83-.33,1.62-.96,2.29s-1.46,1-2.46,1.08c.42.21.75.37,1,.62.46.46,1.08,1.25,1.75,2.37l1.46,2.33h-2.37l-1.04-1.83c-.79-1.46-1.46-2.37-2-2.75-.33-.29-.83-.42-1.5-.42h-1.12v5.04s-1.92,0-1.92,0Zm1.92-6.58h2.33c1.08,0,1.83-.21,2.29-.46.42-.33.62-.75.62-1.33,0-.33-.08-.67-.29-.96s-.42-.46-.79-.62c-.33-.12-1-.21-1.96-.21h-2.17v3.58h-.04Z" fill="#4e4d4d"/>
    </g>
  </g>
</svg>